<svg width="955" height="306" viewBox="0 0 955 306" fill="none" xmlns="http://www.w3.org/2000/svg">
<path d="M344.905 184.581V190.709H339V184.581H344.905ZM344.905 178.452V184.581H339V178.452H344.905ZM344.905 172.323V178.452H339V172.323H344.905ZM344.905 166.193V172.323H339V166.193H344.905ZM344.905 123.291V129.419H339V123.291H344.905ZM350.809 123.291V129.419H344.905V123.291H350.809ZM350.809 129.419V135.548H344.905V129.419H350.809ZM350.809 135.548V141.677H344.905V135.548H350.809ZM356.714 166.193V172.323H350.809V166.193H356.714ZM356.714 172.323V178.452H350.809V172.323H356.714ZM356.714 178.452V184.581H350.809V178.452H356.714ZM356.714 184.581V190.709H350.809V184.581H356.714ZM356.714 190.709V196.839H350.809V190.709H356.714ZM356.714 196.839V202.968H350.809V196.839H356.714ZM356.714 202.968V209.097H350.809V202.968H356.714ZM368.523 209.097V215.225H362.618V209.097H368.523ZM368.523 202.968V209.097H362.618V202.968H368.523ZM368.523 196.839V202.968H362.618V196.839H368.523ZM368.523 190.709V196.839H362.618V190.709H368.523ZM368.523 184.581V190.709H362.618V184.581H368.523ZM368.523 178.452V184.581H362.618V178.452H368.523ZM368.523 172.323V178.452H362.618V172.323H368.523ZM368.523 166.193V172.323H362.618V166.193H368.523ZM362.618 166.193V172.323H356.714V166.193H362.618ZM362.618 172.323V178.452H356.714V172.323H362.618ZM362.618 178.452V184.581H356.714V178.452H362.618ZM362.618 184.581V190.709H356.714V184.581H362.618ZM362.618 190.709V196.839H356.714V190.709H362.618ZM362.618 196.839V202.968H356.714V196.839H362.618ZM362.618 202.968V209.097H356.714V202.968H362.618ZM350.809 196.839V202.968H344.905V196.839H350.809ZM350.809 190.709V196.839H344.905V190.709H350.809ZM350.809 184.581V190.709H344.905V184.581H350.809ZM350.809 178.452V184.581H344.905V178.452H350.809ZM350.809 172.323V178.452H344.905V172.323H350.809ZM350.809 166.193V172.323H344.905V166.193H350.809ZM344.905 117.161V123.291H339V117.161H344.905ZM362.618 117.161V123.291H356.714V117.161H362.618ZM362.618 123.291V129.419H356.714V123.291H362.618ZM362.618 129.419V135.548H356.714V129.419H362.618ZM362.618 135.548V141.677H356.714V135.548H362.618ZM362.618 141.677V147.807H356.714V141.677H362.618ZM368.523 147.807V153.935H362.618V147.807H368.523ZM368.523 141.677V147.807H362.618V141.677H368.523ZM368.523 135.548V141.677H362.618V135.548H368.523ZM368.523 129.419V135.548H362.618V129.419H368.523ZM368.523 123.291V129.419H362.618V123.291H368.523ZM368.523 117.161V123.291H362.618V117.161H368.523ZM350.809 117.161V123.291H344.905V117.161H350.809ZM356.714 117.161V123.291H350.809V117.161H356.714ZM356.714 123.291V129.419H350.809V123.291H356.714ZM356.714 129.419V135.548H350.809V129.419H356.714ZM356.714 135.548V141.677H350.809V135.548H356.714ZM356.714 141.677V147.807H350.809V141.677H356.714ZM415.76 209.097V215.225H409.856V209.097H415.76ZM415.76 202.968V209.097H409.856V202.968H415.76ZM415.76 196.839V202.968H409.856V196.839H415.76ZM415.76 190.709V196.839H409.856V190.709H415.76ZM415.76 184.581V190.709H409.856V184.581H415.76ZM415.76 178.452V184.581H409.856V178.452H415.76ZM415.76 172.323V178.452H409.856V172.323H415.76ZM415.76 166.193V172.323H409.856V166.193H415.76ZM415.76 160.065V166.193H409.856V160.065H415.76ZM415.76 153.935V160.065H409.856V153.935H415.76ZM415.76 147.807V153.935H409.856V147.807H415.76ZM415.76 141.677V147.807H409.856V141.677H415.76ZM415.76 135.548V141.677H409.856V135.548H415.76ZM415.76 129.419V135.548H409.856V129.419H415.76ZM415.76 123.291V129.419H409.856V123.291H415.76ZM421.665 129.419V135.548H415.76V129.419H421.665ZM421.665 135.548V141.677H415.76V135.548H421.665ZM421.665 141.677V147.807H415.76V141.677H421.665ZM421.665 147.807V153.935H415.76V147.807H421.665ZM421.665 153.935V160.065H415.76V153.935H421.665ZM421.665 160.065V166.193H415.76V160.065H421.665ZM427.569 166.193V172.323H421.665V166.193H427.569ZM427.569 172.323V178.452H421.665V172.323H427.569ZM427.569 178.452V184.581H421.665V178.452H427.569ZM427.569 184.581V190.709H421.665V184.581H427.569ZM427.569 190.709V196.839H421.665V190.709H427.569ZM427.569 196.839V202.968H421.665V196.839H427.569ZM427.569 202.968V209.097H421.665V202.968H427.569ZM439.378 184.581V190.709H433.474V184.581H439.378ZM439.378 178.452V184.581H433.474V178.452H439.378ZM439.378 172.323V178.452H433.474V172.323H439.378ZM439.378 166.193V172.323H433.474V166.193H439.378ZM433.474 166.193V172.323H427.569V166.193H433.474ZM433.474 160.065V166.193H427.569V160.065H433.474ZM433.474 172.323V178.452H427.569V172.323H433.474ZM433.474 178.452V184.581H427.569V178.452H433.474ZM433.474 184.581V190.709H427.569V184.581H433.474ZM433.474 190.709V196.839H427.569V190.709H433.474ZM433.474 196.839V202.968H427.569V196.839H433.474ZM421.665 202.968V209.097H415.76V202.968H421.665ZM421.665 196.839V202.968H415.76V196.839H421.665ZM421.665 190.709V196.839H415.76V190.709H421.665ZM421.665 184.581V190.709H415.76V184.581H421.665ZM421.665 178.452V184.581H415.76V178.452H421.665ZM421.665 172.323V178.452H415.76V172.323H421.665ZM421.665 166.193V172.323H415.76V166.193H421.665ZM433.474 141.677V147.807H427.569V141.677H433.474ZM439.378 147.807V153.935H433.474V147.807H439.378ZM439.378 153.935V160.065H433.474V153.935H439.378ZM439.378 160.065V166.193H433.474V160.065H439.378ZM427.569 129.419V135.548H421.665V129.419H427.569ZM427.569 135.548V141.677H421.665V135.548H427.569ZM427.569 141.677V147.807H421.665V141.677H427.569ZM427.569 147.807V153.935H421.665V147.807H427.569ZM427.569 153.935V160.065H421.665V153.935H427.569ZM427.569 160.065V166.193H421.665V160.065H427.569ZM433.474 153.935V160.065H427.569V153.935H433.474ZM433.474 147.807V153.935H427.569V147.807H433.474ZM374.428 209.097V215.225H368.523V209.097H374.428ZM380.332 209.097V215.225H374.428V209.097H380.332ZM386.237 209.097V215.225H380.332V209.097H386.237ZM398.046 209.097V215.225H392.142V209.097H398.046ZM403.951 209.097V215.225H398.046V209.097H403.951ZM409.856 209.097V215.225H403.951V209.097H409.856ZM409.856 202.968V209.097H403.951V202.968H409.856ZM403.951 202.968V209.097H398.046V202.968H403.951ZM398.046 202.968V209.097H392.142V202.968H398.046ZM386.237 202.968V209.097H380.332V202.968H386.237ZM380.332 202.968V209.097H374.428V202.968H380.332ZM374.428 202.968V209.097H368.523V202.968H374.428ZM374.428 196.839V202.968H368.523V196.839H374.428ZM380.332 196.839V202.968H374.428V196.839H380.332ZM386.237 196.839V202.968H380.332V196.839H386.237ZM398.046 196.839V202.968H392.142V196.839H398.046ZM403.951 196.839V202.968H398.046V196.839H403.951ZM409.856 196.839V202.968H403.951V196.839H409.856ZM409.856 190.709V196.839H403.951V190.709H409.856ZM403.951 190.709V196.839H398.046V190.709H403.951ZM398.046 190.709V196.839H392.142V190.709H398.046ZM386.237 190.709V196.839H380.332V190.709H386.237ZM380.332 190.709V196.839H374.428V190.709H380.332ZM374.428 190.709V196.839H368.523V190.709H374.428ZM374.428 184.581V190.709H368.523V184.581H374.428ZM409.856 184.581V190.709H403.951V184.581H409.856ZM433.474 92.6454V86.516H439.378V92.6454H433.474ZM433.474 98.7747V92.6454H439.378V98.7747H433.474ZM433.474 104.903V98.7747H439.378V104.903H433.474ZM421.665 104.903V98.7747H427.569V104.903H421.665ZM421.665 98.7747V92.6454H427.569V98.7747H421.665ZM421.665 92.6454V86.516H427.569V92.6454H421.665ZM421.665 86.516V80.3867H427.569V86.516H421.665ZM421.665 80.3867V74.2587H427.569V80.3867H421.665ZM421.665 74.2587V68.1293H427.569V74.2587H421.665ZM409.856 68.1293V62H415.76V68.1293H409.856ZM409.856 74.2587V68.1293H415.76V74.2587H409.856ZM409.856 80.3867V74.2587H415.76V80.3867H409.856ZM409.856 86.516V80.3867H415.76V86.516H409.856ZM409.856 92.6454V86.516H415.76V92.6454H409.856ZM409.856 98.7747V92.6454H415.76V98.7747H409.856ZM409.856 104.903V98.7747H415.76V104.903H409.856ZM415.76 104.903V98.7747H421.665V104.903H415.76ZM415.76 98.7747V92.6454H421.665V98.7747H415.76ZM415.76 92.6454V86.516H421.665V92.6454H415.76ZM415.76 86.516V80.3867H421.665V86.516H415.76ZM415.76 80.3867V74.2587H421.665V80.3867H415.76ZM415.76 74.2587V68.1293H421.665V74.2587H415.76ZM427.569 80.3867V74.2587H433.474V80.3867H427.569ZM427.569 86.516V80.3867H433.474V86.516H427.569ZM427.569 92.6454V86.516H433.474V92.6454H427.569ZM427.569 98.7747V92.6454H433.474V98.7747H427.569ZM427.569 104.903V98.7747H433.474V104.903H427.569ZM362.618 68.1293V62H368.523V68.1293H362.618ZM362.618 74.2587V68.1293H368.523V74.2587H362.618ZM362.618 80.3867V74.2587H368.523V80.3867H362.618ZM362.618 86.516V80.3867H368.523V86.516H362.618ZM362.618 92.6454V86.516H368.523V92.6454H362.618ZM362.618 98.7747V92.6454H368.523V98.7747H362.618ZM362.618 104.903V98.7747H368.523V104.903H362.618ZM350.809 104.903V98.7747H356.714V104.903H350.809ZM350.809 98.7747V92.6454H356.714V98.7747H350.809ZM350.809 92.6454V86.516H356.714V92.6454H350.809ZM350.809 86.516V80.3867H356.714V86.516H350.809ZM350.809 80.3867V74.2587H356.714V80.3867H350.809ZM350.809 74.2587V68.1293H356.714V74.2587H350.809ZM339 92.6454V86.516H344.905V92.6454H339ZM339 98.7747V92.6454H344.905V98.7747H339ZM339 104.903V98.7747H344.905V104.903H339ZM344.905 104.903V98.7747H350.809V104.903H344.905ZM344.905 98.7747V92.6454H350.809V98.7747H344.905ZM344.905 92.6454V86.516H350.809V92.6454H344.905ZM344.905 86.516V80.3867H350.809V86.516H344.905ZM344.905 80.3867V74.2587H350.809V80.3867H344.905ZM356.714 74.2587V68.1293H362.618V74.2587H356.714ZM356.714 80.3867V74.2587H362.618V80.3867H356.714ZM356.714 86.516V80.3867H362.618V86.516H356.714ZM356.714 92.6454V86.516H362.618V92.6454H356.714ZM356.714 98.7747V92.6454H362.618V98.7747H356.714ZM356.714 104.903V98.7747H362.618V104.903H356.714ZM403.951 68.1293V62H409.856V68.1293H403.951ZM398.046 68.1293V62H403.951V68.1293H398.046ZM392.142 68.1293V62H398.046V68.1293H392.142ZM380.332 68.1293V62H386.237V68.1293H380.332ZM374.428 68.1293V62H380.332V68.1293H374.428ZM368.523 68.1293V62H374.428V68.1293H368.523ZM368.523 74.2587V68.1293H374.428V74.2587H368.523ZM374.428 74.2587V68.1293H380.332V74.2587H374.428ZM380.332 74.2587V68.1293H386.237V74.2587H380.332ZM392.142 74.2587V68.1293H398.046V74.2587H392.142ZM398.046 74.2587V68.1293H403.951V74.2587H398.046ZM403.951 74.2587V68.1293H409.856V74.2587H403.951ZM403.951 80.3867V74.2587H409.856V80.3867H403.951ZM398.046 80.3867V74.2587H403.951V80.3867H398.046ZM392.142 80.3867V74.2587H398.046V80.3867H392.142ZM380.332 80.3867V74.2587H386.237V80.3867H380.332ZM374.428 80.3867V74.2587H380.332V80.3867H374.428ZM368.523 80.3867V74.2587H374.428V80.3867H368.523ZM368.523 86.516V80.3867H374.428V86.516H368.523ZM374.428 86.516V80.3867H380.332V86.516H374.428ZM380.332 86.516V80.3867H386.237V86.516H380.332ZM392.142 86.516V80.3867H398.046V86.516H392.142ZM398.046 86.516V80.3867H403.951V86.516H398.046ZM403.951 86.516V80.3867H409.856V86.516H403.951ZM403.951 92.6454V86.516H409.856V92.6454H403.951ZM368.523 92.6454V86.516H374.428V92.6454H368.523ZM344.905 111.032V117.161H339V111.032H344.905ZM350.809 111.032V117.161H344.905V111.032H350.809ZM344.905 104.903V111.032H339V104.903H344.905ZM362.618 104.903V111.032H356.714V104.903H362.618ZM362.618 111.032V117.161H356.714V111.032H362.618ZM368.523 111.032V117.161H362.618V111.032H368.523ZM368.523 104.903V111.032H362.618V104.903H368.523ZM350.809 104.903V111.032H344.905V104.903H350.809ZM356.714 104.903V111.032H350.809V104.903H356.714ZM356.714 111.032V117.161H350.809V111.032H356.714ZM380.332 184.581V190.709H374.428V184.581H380.332ZM386.237 184.581V190.709H380.332V184.581H386.237ZM398.046 184.581V190.709H392.142V184.581H398.046ZM403.951 184.581V190.709H398.046V184.581H403.951ZM409.856 178.452V184.581H403.951V178.452H409.856ZM374.428 178.452V184.581H368.523V178.452H374.428ZM380.332 86.516V92.6454H374.428V86.516H380.332ZM386.237 86.516V92.6454H380.332V86.516H386.237ZM398.046 86.516V92.6454H392.142V86.516H398.046ZM403.951 86.516V92.6454H398.046V86.516H403.951ZM409.856 92.6454V98.7747H403.951V92.6454H409.856ZM374.428 92.6454V98.7747H368.523V92.6454H374.428ZM386.237 135.548V141.677H380.332V135.548H386.237ZM398.046 135.548V141.677H392.142V135.548H398.046ZM403.951 135.548V141.677H398.046V135.548H403.951ZM409.856 135.548V141.677H403.951V135.548H409.856ZM409.856 141.677V147.807H403.951V141.677H409.856ZM403.951 141.677V147.807H398.046V141.677H403.951ZM398.046 141.677V147.807H392.142V141.677H398.046ZM386.237 141.677V147.807H380.332V141.677H386.237ZM386.237 123.291V129.419H380.332V123.291H386.237ZM398.046 123.291V129.419H392.142V123.291H398.046ZM403.951 123.291V129.419H398.046V123.291H403.951ZM409.856 123.291V129.419H403.951V123.291H409.856ZM409.856 129.419V135.548H403.951V129.419H409.856ZM403.951 129.419V135.548H398.046V129.419H403.951ZM398.046 129.419V135.548H392.142V129.419H398.046ZM386.237 129.419V135.548H380.332V129.419H386.237ZM386.237 147.807V153.935H380.332V147.807H386.237ZM398.046 147.807V153.935H392.142V147.807H398.046ZM403.951 147.807V153.935H398.046V147.807H403.951ZM409.856 147.807V153.935H403.951V147.807H409.856ZM433.474 135.548V141.677H427.569V135.548H433.474ZM409.856 153.935V160.065H403.951V153.935H409.856ZM374.428 123.291V129.419H368.523V123.291H374.428ZM380.332 123.291V129.419H374.428V123.291H380.332ZM374.428 117.161V123.291H368.523V117.161H374.428ZM380.332 129.419V135.548H374.428V129.419H380.332ZM380.332 135.548V141.677H374.428V135.548H380.332ZM380.332 141.677V147.807H374.428V141.677H380.332ZM380.332 147.807V153.935H374.428V147.807H380.332ZM374.428 147.807V153.935H368.523V147.807H374.428ZM374.428 141.677V147.807H368.523V141.677H374.428ZM374.428 135.548V141.677H368.523V135.548H374.428ZM374.428 129.419V135.548H368.523V129.419H374.428ZM392.142 62V68.1293H386.237V62H392.142ZM392.142 68.1293V74.2587H386.237V68.1293H392.142ZM392.142 74.2587V80.3867H386.237V74.2587H392.142ZM392.142 80.3867V86.516H386.237V80.3867H392.142ZM392.142 86.516V92.6454H386.237V86.516H392.142ZM392.142 123.291V129.419H386.237V123.291H392.142ZM392.142 129.419V135.548H386.237V129.419H392.142ZM392.142 135.548V141.677H386.237V135.548H392.142ZM392.142 141.677V147.807H386.237V141.677H392.142ZM392.142 147.807V153.935H386.237V147.807H392.142ZM392.142 184.581V190.709H386.237V184.581H392.142ZM392.142 190.709V196.839H386.237V190.709H392.142ZM392.142 196.839V202.968H386.237V196.839H392.142ZM392.142 202.968V209.097H386.237V202.968H392.142ZM392.142 209.097V215.225H386.237V209.097H392.142ZM461.523 98.7747V104.903H455.619V98.7747H461.523ZM467.428 98.7747V104.903H461.523V98.7747H467.428ZM473.333 98.7747V104.903H467.428V98.7747H473.333ZM479.237 98.7747V104.903H473.333V98.7747H479.237ZM479.237 104.903V111.032H473.333V104.903H479.237ZM485.142 104.903V111.032H479.237V104.903H485.142ZM485.142 111.032V117.161H479.237V111.032H485.142ZM485.142 98.7747V104.903H479.237V98.7747H485.142ZM485.142 117.161V123.291H479.237V117.161H485.142ZM485.142 123.291V129.419H479.237V123.291H485.142ZM485.142 129.419V135.548H479.237V129.419H485.142ZM485.142 135.548V141.677H479.237V135.548H485.142ZM485.142 141.677V147.807H479.237V141.677H485.142ZM485.142 147.807V153.935H479.237V147.807H485.142ZM485.142 153.935V160.065H479.237V153.935H485.142ZM485.142 160.065V166.193H479.237V160.065H485.142ZM485.142 166.193V172.323H479.237V166.193H485.142ZM479.237 166.193V172.323H473.333V166.193H479.237ZM473.333 172.323V178.452H467.428V172.323H473.333ZM467.428 172.323V178.452H461.523V172.323H467.428ZM461.523 172.323V178.452H455.619V172.323H461.523ZM461.523 166.193V172.323H455.619V166.193H461.523ZM461.523 160.065V166.193H455.619V160.065H461.523ZM461.523 153.935V160.065H455.619V153.935H461.523ZM461.523 147.807V153.935H455.619V147.807H461.523ZM467.428 147.807V153.935H461.523V147.807H467.428ZM467.428 141.677V147.807H461.523V141.677H467.428ZM467.428 135.548V141.677H461.523V135.548H467.428ZM467.428 129.419V135.548H461.523V129.419H467.428ZM467.428 123.291V129.419H461.523V123.291H467.428ZM467.428 117.161V123.291H461.523V117.161H467.428ZM467.428 111.032V117.161H461.523V111.032H467.428ZM467.428 104.903V111.032H461.523V104.903H467.428ZM461.523 104.903V111.032H455.619V104.903H461.523ZM461.523 111.032V117.161H455.619V111.032H461.523ZM461.523 117.161V123.291H455.619V117.161H461.523ZM461.523 123.291V129.419H455.619V123.291H461.523ZM461.523 129.419V135.548H455.619V129.419H461.523ZM461.523 135.548V141.677H455.619V135.548H461.523ZM461.523 141.677V147.807H455.619V141.677H461.523ZM473.333 129.419V135.548H467.428V129.419H473.333ZM473.333 123.291V129.419H467.428V123.291H473.333ZM473.333 117.161V123.291H467.428V117.161H473.333ZM473.333 111.032V117.161H467.428V111.032H473.333ZM473.333 104.903V111.032H467.428V104.903H473.333ZM479.237 129.419V135.548H473.333V129.419H479.237ZM479.237 135.548V141.677H473.333V135.548H479.237ZM479.237 123.291V129.419H473.333V123.291H479.237ZM479.237 117.161V123.291H473.333V117.161H479.237ZM479.237 111.032V117.161H473.333V111.032H479.237ZM473.333 147.807V153.935H467.428V147.807H473.333ZM473.333 141.677V147.807H467.428V141.677H473.333ZM473.333 135.548V141.677H467.428V135.548H473.333ZM479.237 141.677V147.807H473.333V141.677H479.237ZM479.237 147.807V153.935H473.333V147.807H479.237ZM479.237 153.935V160.065H473.333V153.935H479.237ZM473.333 160.065V166.193H467.428V160.065H473.333ZM473.333 166.193V172.323H467.428V166.193H473.333ZM473.333 153.935V160.065H467.428V153.935H473.333ZM467.428 153.935V160.065H461.523V153.935H467.428ZM467.428 160.065V166.193H461.523V160.065H467.428ZM467.428 166.193V172.323H461.523V166.193H467.428ZM479.237 160.065V166.193H473.333V160.065H479.237ZM473.333 178.452V184.581H467.428V178.452H473.333ZM467.428 178.452V184.581H461.523V178.452H467.428ZM479.237 178.452V184.581H473.333V178.452H479.237ZM479.237 172.323V178.452H473.333V172.323H479.237ZM485.142 172.323V178.452H479.237V172.323H485.142ZM491.046 172.323V178.452H485.142V172.323H491.046ZM491.046 178.452V184.581H485.142V178.452H491.046ZM485.142 178.452V184.581H479.237V178.452H485.142ZM496.951 178.452V184.581H491.046V178.452H496.951ZM473.333 184.581V190.709H467.428V184.581H473.333ZM479.237 184.581V190.709H473.333V184.581H479.237ZM485.142 184.581V190.709H479.237V184.581H485.142ZM491.046 184.581V190.709H485.142V184.581H491.046ZM496.951 184.581V190.709H491.046V184.581H496.951ZM502.855 184.581V190.709H496.951V184.581H502.855ZM508.76 184.581V190.709H502.855V184.581H508.76ZM514.666 184.581V190.709H508.76V184.581H514.666ZM520.569 184.581V190.709H514.666V184.581H520.569ZM526.475 184.581V190.709H520.569V184.581H526.475ZM520.569 178.452V184.581H514.666V178.452H520.569ZM514.666 178.452V184.581H508.76V178.452H514.666ZM508.76 178.452V184.581H502.855V178.452H508.76ZM514.666 172.323V178.452H508.76V172.323H514.666ZM496.951 209.097V215.225H491.046V209.097H496.951ZM496.951 202.968V209.097H491.046V202.968H496.951ZM496.951 196.839V202.968H491.046V196.839H496.951ZM502.855 190.709V196.839H496.951V190.709H502.855ZM508.76 190.709V196.839H502.855V190.709H508.76ZM508.76 196.839V202.968H502.855V196.839H508.76ZM508.76 202.968V209.097H502.855V202.968H508.76ZM508.76 209.097V215.225H502.855V209.097H508.76ZM502.855 209.097V215.225H496.951V209.097H502.855ZM502.855 196.839V202.968H496.951V196.839H502.855ZM502.855 202.968V209.097H496.951V202.968H502.855ZM514.666 196.839V202.968H508.76V196.839H514.666ZM514.666 190.709V196.839H508.76V190.709H514.666ZM520.569 190.709V196.839H514.666V190.709H520.569ZM526.475 190.709V196.839H520.569V190.709H526.475ZM520.569 196.839V202.968H514.666V196.839H520.569ZM514.666 202.968V209.097H508.76V202.968H514.666ZM479.237 190.709V196.839H473.333V190.709H479.237ZM485.142 190.709V196.839H479.237V190.709H485.142ZM485.142 196.839V202.968H479.237V196.839H485.142ZM491.046 196.839V202.968H485.142V196.839H491.046ZM491.046 202.968V209.097H485.142V202.968H491.046ZM496.951 190.709V196.839H491.046V190.709H496.951ZM491.046 190.709V196.839H485.142V190.709H491.046ZM520.569 98.7747V104.903H514.666V98.7747H520.569ZM526.475 98.7747V104.903H520.569V98.7747H526.475ZM532.378 98.7747V104.903H526.475V98.7747H532.378ZM538.284 104.903V111.032H532.378V104.903H538.284ZM544.188 117.161V123.291H538.284V117.161H544.188ZM544.188 123.291V129.419H538.284V123.291H544.188ZM544.188 129.419V135.548H538.284V129.419H544.188ZM544.188 141.677V147.807H538.284V141.677H544.188ZM544.188 147.807V153.935H538.284V147.807H544.188ZM544.188 153.935V160.065H538.284V153.935H544.188ZM544.188 160.065V166.193H538.284V160.065H544.188ZM544.188 166.193V172.323H538.284V166.193H544.188ZM538.284 166.193V172.323H532.378V166.193H538.284ZM532.378 172.323V178.452H526.475V172.323H532.378ZM526.475 172.323V178.452H520.569V172.323H526.475ZM520.569 172.323V178.452H514.666V172.323H520.569ZM520.569 166.193V172.323H514.666V166.193H520.569ZM520.569 160.065V166.193H514.666V160.065H520.569ZM520.569 147.807V153.935H514.666V147.807H520.569ZM526.475 147.807V153.935H520.569V147.807H526.475ZM526.475 141.677V147.807H520.569V141.677H526.475ZM526.475 135.548V141.677H520.569V135.548H526.475ZM526.475 129.419V135.548H520.569V129.419H526.475ZM526.475 123.291V129.419H520.569V123.291H526.475ZM526.475 117.161V123.291H520.569V117.161H526.475ZM526.475 111.032V117.161H520.569V111.032H526.475ZM526.475 104.903V111.032H520.569V104.903H526.475ZM520.569 104.903V111.032H514.666V104.903H520.569ZM520.569 111.032V117.161H514.666V111.032H520.569ZM520.569 117.161V123.291H514.666V117.161H520.569ZM520.569 123.291V129.419H514.666V123.291H520.569ZM520.569 129.419V135.548H514.666V129.419H520.569ZM520.569 141.677V147.807H514.666V141.677H520.569ZM532.378 129.419V135.548H526.475V129.419H532.378ZM532.378 123.291V129.419H526.475V123.291H532.378ZM532.378 117.161V123.291H526.475V117.161H532.378ZM532.378 111.032V117.161H526.475V111.032H532.378ZM538.284 129.419V135.548H532.378V129.419H538.284ZM538.284 135.548V141.677H532.378V135.548H538.284ZM538.284 123.291V129.419H532.378V123.291H538.284ZM538.284 117.161V123.291H532.378V117.161H538.284ZM532.378 147.807V153.935H526.475V147.807H532.378ZM532.378 141.677V147.807H526.475V141.677H532.378ZM532.378 135.548V141.677H526.475V135.548H532.378ZM538.284 141.677V147.807H532.378V141.677H538.284ZM538.284 147.807V153.935H532.378V147.807H538.284ZM538.284 153.935V160.065H532.378V153.935H538.284ZM532.378 160.065V166.193H526.475V160.065H532.378ZM532.378 166.193V172.323H526.475V166.193H532.378ZM532.378 153.935V160.065H526.475V153.935H532.378ZM526.475 153.935V160.065H520.569V153.935H526.475ZM526.475 160.065V166.193H520.569V160.065H526.475ZM526.475 166.193V172.323H520.569V166.193H526.475ZM538.284 160.065V166.193H532.378V160.065H538.284ZM532.378 178.452V184.581H526.475V178.452H532.378ZM538.284 178.452V184.581H532.378V178.452H538.284ZM538.284 172.323V178.452H532.378V172.323H538.284ZM544.188 172.323V178.452H538.284V172.323H544.188ZM550.093 172.323V178.452H544.188V172.323H550.093ZM550.093 178.452V184.581H544.188V178.452H550.093ZM544.188 178.452V184.581H538.284V178.452H544.188ZM555.998 178.452V184.581H550.093V178.452H555.998ZM538.284 184.581V190.709H532.378V184.581H538.284ZM544.188 184.581V190.709H538.284V184.581H544.188ZM550.093 184.581V190.709H544.188V184.581H550.093ZM555.998 184.581V190.709H550.093V184.581H555.998ZM561.903 184.581V190.709H555.998V184.581H561.903ZM567.807 184.581V190.709H561.903V184.581H567.807ZM573.71 184.581V190.709H567.807V184.581H573.71ZM579.616 184.581V190.709H573.71V184.581H579.616ZM585.52 184.581V190.709H579.616V184.581H585.52ZM591.426 184.581V190.709H585.52V184.581H591.426ZM585.52 178.452V184.581H579.616V178.452H585.52ZM579.616 178.452V184.581H573.71V178.452H579.616ZM573.71 178.452V184.581H567.807V178.452H573.71ZM567.807 178.452V184.581H561.903V178.452H567.807ZM573.71 172.323V178.452H567.807V172.323H573.71ZM579.616 172.323V178.452H573.71V172.323H579.616ZM585.52 172.323V178.452H579.616V172.323H585.52ZM591.426 172.323V178.452H585.52V172.323H591.426ZM597.329 172.323V178.452H591.426V172.323H597.329ZM597.329 178.452V184.581H591.426V178.452H597.329ZM591.426 178.452V184.581H585.52V178.452H591.426ZM603.235 172.323V178.452H597.329V172.323H603.235ZM555.998 209.097V215.225H550.093V209.097H555.998ZM555.998 202.968V209.097H550.093V202.968H555.998ZM555.998 196.839V202.968H550.093V196.839H555.998ZM561.903 190.709V196.839H555.998V190.709H561.903ZM567.807 190.709V196.839H561.903V190.709H567.807ZM567.807 196.839V202.968H561.903V196.839H567.807ZM567.807 202.968V209.097H561.903V202.968H567.807ZM567.807 209.097V215.225H561.903V209.097H567.807ZM561.903 209.097V215.225H555.998V209.097H561.903ZM561.903 196.839V202.968H555.998V196.839H561.903ZM561.903 202.968V209.097H555.998V202.968H561.903ZM573.71 196.839V202.968H567.807V196.839H573.71ZM573.71 190.709V196.839H567.807V190.709H573.71ZM579.616 190.709V196.839H573.71V190.709H579.616ZM585.52 190.709V196.839H579.616V190.709H585.52ZM579.616 196.839V202.968H573.71V196.839H579.616ZM573.71 202.968V209.097H567.807V202.968H573.71ZM538.284 190.709V196.839H532.378V190.709H538.284ZM544.188 190.709V196.839H538.284V190.709H544.188ZM544.188 196.839V202.968H538.284V196.839H544.188ZM550.093 196.839V202.968H544.188V196.839H550.093ZM550.093 202.968V209.097H544.188V202.968H550.093ZM555.998 190.709V196.839H550.093V190.709H555.998ZM550.093 190.709V196.839H544.188V190.709H550.093ZM579.616 166.193V172.323H573.71V166.193H579.616ZM579.616 160.065V166.193H573.71V160.065H579.616ZM579.616 153.935V160.065H573.71V153.935H579.616ZM579.616 147.807V153.935H573.71V147.807H579.616ZM585.52 147.807V153.935H579.616V147.807H585.52ZM591.426 147.807V153.935H585.52V147.807H591.426ZM597.329 147.807V153.935H591.426V147.807H597.329ZM603.235 147.807V153.935H597.329V147.807H603.235ZM603.235 153.935V160.065H597.329V153.935H603.235ZM603.235 160.065V166.193H597.329V160.065H603.235ZM603.235 166.193V172.323H597.329V166.193H603.235ZM597.329 166.193V172.323H591.426V166.193H597.329ZM591.426 166.193V172.323H585.52V166.193H591.426ZM585.52 166.193V172.323H579.616V166.193H585.52ZM591.426 160.065V166.193H585.52V160.065H591.426ZM597.329 160.065V166.193H591.426V160.065H597.329ZM597.329 153.935V160.065H591.426V153.935H597.329ZM591.426 153.935V160.065H585.52V153.935H591.426ZM585.52 153.935V160.065H579.616V153.935H585.52ZM585.52 160.065V166.193H579.616V160.065H585.52ZM579.616 141.677V147.807H573.71V141.677H579.616ZM579.616 135.548V141.677H573.71V135.548H579.616ZM579.616 129.419V135.548H573.71V129.419H579.616ZM579.616 123.291V129.419H573.71V123.291H579.616ZM579.616 117.161V123.291H573.71V117.161H579.616ZM579.616 111.032V117.161H573.71V111.032H579.616ZM579.616 104.903V111.032H573.71V104.903H579.616ZM579.616 98.7747V104.903H573.71V98.7747H579.616ZM585.52 104.903V111.032H579.616V104.903H585.52ZM585.52 98.7747V104.903H579.616V98.7747H585.52ZM591.426 98.7747V104.903H585.52V98.7747H591.426ZM597.329 98.7747V104.903H591.426V98.7747H597.329ZM597.329 104.903V111.032H591.426V104.903H597.329ZM597.329 111.032V117.161H591.426V111.032H597.329ZM603.235 111.032V117.161H597.329V111.032H603.235ZM603.235 117.161V123.291H597.329V117.161H603.235ZM603.235 123.291V129.419H597.329V123.291H603.235ZM603.235 129.419V135.548H597.329V129.419H603.235ZM603.235 135.548V141.677H597.329V135.548H603.235ZM603.235 141.677V147.807H597.329V141.677H603.235ZM603.235 104.903V111.032H597.329V104.903H603.235ZM603.235 98.7747V104.903H597.329V98.7747H603.235ZM591.426 104.903V111.032H585.52V104.903H591.426ZM591.426 111.032V117.161H585.52V111.032H591.426ZM591.426 117.161V123.291H585.52V117.161H591.426ZM591.426 123.291V129.419H585.52V123.291H591.426ZM591.426 129.419V135.548H585.52V129.419H591.426ZM591.426 135.548V141.677H585.52V135.548H591.426ZM585.52 135.548V141.677H579.616V135.548H585.52ZM585.52 141.677V147.807H579.616V141.677H585.52ZM585.52 129.419V135.548H579.616V129.419H585.52ZM585.52 123.291V129.419H579.616V123.291H585.52ZM585.52 117.161V123.291H579.616V117.161H585.52ZM585.52 111.032V117.161H579.616V111.032H585.52ZM597.329 117.161V123.291H591.426V117.161H597.329ZM597.329 123.291V129.419H591.426V123.291H597.329ZM597.329 129.419V135.548H591.426V129.419H597.329ZM597.329 135.548V141.677H591.426V135.548H597.329ZM597.329 141.677V147.807H591.426V141.677H597.329ZM591.426 141.677V147.807H585.52V141.677H591.426ZM538.284 98.7747V104.903H532.378V98.7747H538.284ZM544.188 98.7747V104.903H538.284V98.7747H544.188ZM544.188 104.903V111.032H538.284V104.903H544.188ZM544.188 111.032V117.161H538.284V111.032H544.188ZM538.284 111.032V117.161H532.378V111.032H538.284ZM520.569 135.548V141.677H514.666V135.548H520.569ZM520.569 153.935V160.065H514.666V153.935H520.569ZM544.188 135.548V141.677H538.284V135.548H544.188ZM532.378 104.903V111.032H526.475V104.903H532.378ZM532.378 184.581V190.709H526.475V184.581H532.378ZM526.475 178.452V184.581H520.569V178.452H526.475ZM625.426 62V68.1293H619.521V62H625.426ZM625.426 68.1293V74.2587H619.521V68.1293H625.426ZM625.426 74.2587V80.3867H619.521V74.2587H625.426ZM643.14 62V68.1293H637.235V62H643.14ZM643.14 68.1293V74.2587H637.235V68.1293H643.14ZM643.14 74.2587V80.3867H637.235V74.2587H643.14ZM649.044 74.2587V80.3867H643.14V74.2587H649.044ZM649.044 68.1293V74.2587H643.14V68.1293H649.044ZM649.044 62V68.1293H643.14V62H649.044ZM637.235 62V68.1293H631.33V62H637.235ZM631.33 62V68.1293H625.426V62H631.33ZM631.33 68.1293V74.2587H625.426V68.1293H631.33ZM637.235 68.1293V74.2587H631.33V68.1293H637.235ZM637.235 74.2587V80.3867H631.33V74.2587H637.235ZM631.33 74.2587V80.3867H625.426V74.2587H631.33ZM625.426 80.3867V86.516H619.521V80.3867H625.426ZM631.33 80.3867V86.516H625.426V80.3867H631.33ZM637.235 80.3867V86.516H631.33V80.3867H637.235ZM643.14 80.3867V86.516H637.235V80.3867H643.14ZM649.044 80.3867V86.516H643.14V80.3867H649.044ZM625.426 209.097V215.225H619.521V209.097H625.426ZM625.426 202.968V209.097H619.521V202.968H625.426ZM625.426 196.839V202.968H619.521V196.839H625.426ZM625.426 190.709V196.839H619.521V190.709H625.426ZM625.426 184.581V190.709H619.521V184.581H625.426ZM625.426 178.452V184.581H619.521V178.452H625.426ZM625.426 172.323V178.452H619.521V172.323H625.426ZM625.426 166.193V172.323H619.521V166.193H625.426ZM625.426 160.065V166.193H619.521V160.065H625.426ZM625.426 153.935V160.065H619.521V153.935H625.426ZM625.426 147.807V153.935H619.521V147.807H625.426ZM625.426 141.677V147.807H619.521V141.677H625.426ZM625.426 135.548V141.677H619.521V135.548H625.426ZM625.426 129.419V135.548H619.521V129.419H625.426ZM625.426 123.291V129.419H619.521V123.291H625.426ZM631.33 123.291V129.419H625.426V123.291H631.33ZM631.33 129.419V135.548H625.426V129.419H631.33ZM631.33 135.548V141.677H625.426V135.548H631.33ZM631.33 141.677V147.807H625.426V141.677H631.33ZM631.33 147.807V153.935H625.426V147.807H631.33ZM631.33 153.935V160.065H625.426V153.935H631.33ZM631.33 160.065V166.193H625.426V160.065H631.33ZM637.235 166.193V172.323H631.33V166.193H637.235ZM637.235 172.323V178.452H631.33V172.323H637.235ZM637.235 178.452V184.581H631.33V178.452H637.235ZM637.235 184.581V190.709H631.33V184.581H637.235ZM637.235 190.709V196.839H631.33V190.709H637.235ZM637.235 196.839V202.968H631.33V196.839H637.235ZM637.235 202.968V209.097H631.33V202.968H637.235ZM637.235 209.097V215.225H631.33V209.097H637.235ZM643.14 209.097V215.225H637.235V209.097H643.14ZM649.044 209.097V215.225H643.14V209.097H649.044ZM649.044 202.968V209.097H643.14V202.968H649.044ZM649.044 196.839V202.968H643.14V196.839H649.044ZM649.044 190.709V196.839H643.14V190.709H649.044ZM649.044 184.581V190.709H643.14V184.581H649.044ZM649.044 178.452V184.581H643.14V178.452H649.044ZM649.044 172.323V178.452H643.14V172.323H649.044ZM649.044 166.193V172.323H643.14V166.193H649.044ZM643.14 166.193V172.323H637.235V166.193H643.14ZM643.14 160.065V166.193H637.235V160.065H643.14ZM643.14 172.323V178.452H637.235V172.323H643.14ZM643.14 178.452V184.581H637.235V178.452H643.14ZM643.14 184.581V190.709H637.235V184.581H643.14ZM643.14 190.709V196.839H637.235V190.709H643.14ZM643.14 196.839V202.968H637.235V196.839H643.14ZM643.14 202.968V209.097H637.235V202.968H643.14ZM631.33 209.097V215.225H625.426V209.097H631.33ZM631.33 202.968V209.097H625.426V202.968H631.33ZM631.33 196.839V202.968H625.426V196.839H631.33ZM631.33 190.709V196.839H625.426V190.709H631.33ZM631.33 184.581V190.709H625.426V184.581H631.33ZM631.33 178.452V184.581H625.426V178.452H631.33ZM631.33 172.323V178.452H625.426V172.323H631.33ZM631.33 166.193V172.323H625.426V166.193H631.33ZM625.426 111.032V117.161H619.521V111.032H625.426ZM625.426 117.161V123.291H619.521V117.161H625.426ZM643.14 111.032V117.161H637.235V111.032H643.14ZM643.14 117.161V123.291H637.235V117.161H643.14ZM643.14 123.291V129.419H637.235V123.291H643.14ZM643.14 129.419V135.548H637.235V129.419H643.14ZM643.14 135.548V141.677H637.235V135.548H643.14ZM643.14 141.677V147.807H637.235V141.677H643.14ZM649.044 147.807V153.935H643.14V147.807H649.044ZM649.044 153.935V160.065H643.14V153.935H649.044ZM649.044 160.065V166.193H643.14V160.065H649.044ZM649.044 141.677V147.807H643.14V141.677H649.044ZM649.044 135.548V141.677H643.14V135.548H649.044ZM649.044 129.419V135.548H643.14V129.419H649.044ZM649.044 123.291V129.419H643.14V123.291H649.044ZM649.044 117.161V123.291H643.14V117.161H649.044ZM649.044 111.032V117.161H643.14V111.032H649.044ZM631.33 111.032V117.161H625.426V111.032H631.33ZM631.33 117.161V123.291H625.426V117.161H631.33ZM637.235 111.032V117.161H631.33V111.032H637.235ZM637.235 117.161V123.291H631.33V117.161H637.235ZM637.235 123.291V129.419H631.33V123.291H637.235ZM637.235 129.419V135.548H631.33V129.419H637.235ZM637.235 135.548V141.677H631.33V135.548H637.235ZM637.235 141.677V147.807H631.33V141.677H637.235ZM637.235 147.807V153.935H631.33V147.807H637.235ZM637.235 153.935V160.065H631.33V153.935H637.235ZM637.235 160.065V166.193H631.33V160.065H637.235ZM643.14 153.935V160.065H637.235V153.935H643.14ZM643.14 147.807V153.935H637.235V147.807H643.14ZM643.14 104.903V111.032H637.235V104.903H643.14ZM649.044 104.903V111.032H643.14V104.903H649.044ZM637.235 104.903V111.032H631.33V104.903H637.235ZM631.33 104.903V111.032H625.426V104.903H631.33ZM625.426 104.903V111.032H619.521V104.903H625.426ZM671.357 117.161V123.291H665.452V117.161H671.357ZM677.261 117.161V123.291H671.357V117.161H677.261ZM683.166 117.161V123.291H677.261V117.161H683.166ZM689.07 117.161V123.291H683.166V117.161H689.07ZM694.975 117.161V123.291H689.07V117.161H694.975ZM700.88 117.161V123.291H694.975V117.161H700.88ZM706.784 117.161V123.291H700.88V117.161H706.784ZM712.689 117.161V123.291H706.784V117.161H712.689ZM718.593 117.161V123.291H712.689V117.161H718.593ZM724.498 117.161V123.291H718.593V117.161H724.498ZM730.402 117.161V123.291H724.498V117.161H730.402ZM706.784 135.548V141.677H700.88V135.548H706.784ZM700.88 135.548V141.677H694.975V135.548H700.88ZM694.975 135.548V141.677H689.07V135.548H694.975ZM689.07 135.548V141.677H683.166V135.548H689.07ZM689.07 129.419V135.548H683.166V129.419H689.07ZM683.166 129.419V135.548H677.261V129.419H683.166ZM683.166 135.548V141.677H677.261V135.548H683.166ZM683.166 123.291V129.419H677.261V123.291H683.166ZM689.07 123.291V129.419H683.166V123.291H689.07ZM694.975 123.291V129.419H689.07V123.291H694.975ZM700.88 123.291V129.419H694.975V123.291H700.88ZM706.784 123.291V129.419H700.88V123.291H706.784ZM706.784 129.419V135.548H700.88V129.419H706.784ZM700.88 129.419V135.548H694.975V129.419H700.88ZM694.975 129.419V135.548H689.07V129.419H694.975ZM730.402 62V68.1293H724.498V62H730.402ZM730.402 68.1293V74.2587H724.498V68.1293H730.402ZM730.402 74.2587V80.3867H724.498V74.2587H730.402ZM730.402 80.3867V86.516H724.498V80.3867H730.402ZM724.498 80.3867V86.516H718.593V80.3867H724.498ZM718.593 80.3867V86.516H712.689V80.3867H718.593ZM712.689 80.3867V86.516H706.784V80.3867H712.689ZM712.689 86.516V92.6454H706.784V86.516H712.689ZM706.784 86.516V92.6454H700.88V86.516H706.784ZM700.88 86.516V92.6454H694.975V86.516H700.88ZM694.975 86.516V92.6454H689.07V86.516H694.975ZM694.975 80.3867V86.516H689.07V80.3867H694.975ZM689.07 80.3867V86.516H683.166V80.3867H689.07ZM689.07 74.2587V80.3867H683.166V74.2587H689.07ZM694.975 74.2587V80.3867H689.07V74.2587H694.975ZM700.88 74.2587V80.3867H694.975V74.2587H700.88ZM700.88 68.1293V74.2587H694.975V68.1293H700.88ZM694.975 68.1293V74.2587H689.07V68.1293H694.975ZM706.784 68.1293V74.2587H700.88V68.1293H706.784ZM712.689 68.1293V74.2587H706.784V68.1293H712.689ZM712.689 62V68.1293H706.784V62H712.689ZM706.784 62V68.1293H700.88V62H706.784ZM718.593 62V68.1293H712.689V62H718.593ZM724.498 62V68.1293H718.593V62H724.498ZM724.498 68.1293V74.2587H718.593V68.1293H724.498ZM724.498 74.2587V80.3867H718.593V74.2587H724.498ZM718.593 74.2587V80.3867H712.689V74.2587H718.593ZM718.593 68.1293V74.2587H712.689V68.1293H718.593ZM712.689 74.2587V80.3867H706.784V74.2587H712.689ZM706.784 74.2587V80.3867H700.88V74.2587H706.784ZM700.88 80.3867V86.516H694.975V80.3867H700.88ZM706.784 80.3867V86.516H700.88V80.3867H706.784ZM683.166 86.516V92.6454H677.261V86.516H683.166ZM689.07 86.516V92.6454H683.166V86.516H689.07ZM689.07 92.6454V98.7747H683.166V92.6454H689.07ZM683.166 92.6454V98.7747H677.261V92.6454H683.166ZM683.166 98.7747V104.903H677.261V98.7747H683.166ZM683.166 104.903V111.032H677.261V104.903H683.166ZM683.166 111.032V117.161H677.261V111.032H683.166ZM689.07 111.032V117.161H683.166V111.032H689.07ZM694.975 111.032V117.161H689.07V111.032H694.975ZM689.07 104.903V111.032H683.166V104.903H689.07ZM689.07 98.7747V104.903H683.166V98.7747H689.07ZM694.975 92.6454V98.7747H689.07V92.6454H694.975ZM700.88 92.6454V98.7747H694.975V92.6454H700.88ZM700.88 98.7747V104.903H694.975V98.7747H700.88ZM700.88 104.903V111.032H694.975V104.903H700.88ZM700.88 111.032V117.161H694.975V111.032H700.88ZM706.784 98.7747V104.903H700.88V98.7747H706.784ZM706.784 92.6454V98.7747H700.88V92.6454H706.784ZM706.784 104.903V111.032H700.88V104.903H706.784ZM706.784 111.032V117.161H700.88V111.032H706.784ZM694.975 104.903V111.032H689.07V104.903H694.975ZM694.975 98.7747V104.903H689.07V98.7747H694.975ZM683.166 141.677V147.807H677.261V141.677H683.166ZM689.07 141.677V147.807H683.166V141.677H689.07ZM694.975 141.677V147.807H689.07V141.677H694.975ZM700.88 141.677V147.807H694.975V141.677H700.88ZM706.784 141.677V147.807H700.88V141.677H706.784ZM706.784 147.807V153.935H700.88V147.807H706.784ZM694.975 147.807V153.935H689.07V147.807H694.975ZM689.07 147.807V153.935H683.166V147.807H689.07ZM683.166 147.807V153.935H677.261V147.807H683.166ZM700.88 147.807V153.935H694.975V147.807H700.88ZM683.166 209.097V215.225H677.261V209.097H683.166ZM683.166 202.968V209.097H677.261V202.968H683.166ZM683.166 196.839V202.968H677.261V196.839H683.166ZM683.166 190.709V196.839H677.261V190.709H683.166ZM683.166 184.581V190.709H677.261V184.581H683.166ZM683.166 178.452V184.581H677.261V178.452H683.166ZM683.166 172.323V178.452H677.261V172.323H683.166ZM689.07 172.323V178.452H683.166V172.323H689.07ZM689.07 166.193V172.323H683.166V166.193H689.07ZM689.07 160.065V166.193H683.166V160.065H689.07ZM689.07 153.935V160.065H683.166V153.935H689.07ZM683.166 160.065V166.193H677.261V160.065H683.166ZM683.166 166.193V172.323H677.261V166.193H683.166ZM683.166 153.935V160.065H677.261V153.935H683.166ZM706.784 153.935V160.065H700.88V153.935H706.784ZM706.784 160.065V166.193H700.88V160.065H706.784ZM706.784 166.193V172.323H700.88V166.193H706.784ZM706.784 172.323V178.452H700.88V172.323H706.784ZM706.784 178.452V184.581H700.88V178.452H706.784ZM706.784 184.581V190.709H700.88V184.581H706.784ZM706.784 190.709V196.839H700.88V190.709H706.784ZM706.784 196.839V202.968H700.88V196.839H706.784ZM706.784 202.968V209.097H700.88V202.968H706.784ZM706.784 209.097V215.225H700.88V209.097H706.784ZM700.88 209.097V215.225H694.975V209.097H700.88ZM694.975 209.097V215.225H689.07V209.097H694.975ZM689.07 209.097V215.225H683.166V209.097H689.07ZM689.07 202.968V209.097H683.166V202.968H689.07ZM694.975 202.968V209.097H689.07V202.968H694.975ZM700.88 202.968V209.097H694.975V202.968H700.88ZM700.88 196.839V202.968H694.975V196.839H700.88ZM694.975 196.839V202.968H689.07V196.839H694.975ZM689.07 196.839V202.968H683.166V196.839H689.07ZM694.975 190.709V196.839H689.07V190.709H694.975ZM700.88 190.709V196.839H694.975V190.709H700.88ZM689.07 190.709V196.839H683.166V190.709H689.07ZM689.07 184.581V190.709H683.166V184.581H689.07ZM689.07 178.452V184.581H683.166V178.452H689.07ZM694.975 178.452V184.581H689.07V178.452H694.975ZM694.975 184.581V190.709H689.07V184.581H694.975ZM700.88 184.581V190.709H694.975V184.581H700.88ZM700.88 172.323V178.452H694.975V172.323H700.88ZM700.88 166.193V172.323H694.975V166.193H700.88ZM700.88 160.065V166.193H694.975V160.065H700.88ZM700.88 153.935V160.065H694.975V153.935H700.88ZM694.975 153.935V160.065H689.07V153.935H694.975ZM694.975 160.065V166.193H689.07V160.065H694.975ZM694.975 166.193V172.323H689.07V166.193H694.975ZM694.975 172.323V178.452H689.07V172.323H694.975ZM700.88 178.452V184.581H694.975V178.452H700.88ZM712.689 104.903V111.032H706.784V104.903H712.689ZM718.593 104.903V111.032H712.689V104.903H718.593ZM724.498 104.903V111.032H718.593V104.903H724.498ZM730.402 104.903V111.032H724.498V104.903H730.402ZM730.402 111.032V117.161H724.498V111.032H730.402ZM724.498 111.032V117.161H718.593V111.032H724.498ZM718.593 111.032V117.161H712.689V111.032H718.593ZM712.689 111.032V117.161H706.784V111.032H712.689ZM671.357 104.903V111.032H665.452V104.903H671.357ZM677.261 104.903V111.032H671.357V104.903H677.261ZM677.261 111.032V117.161H671.357V111.032H677.261ZM671.357 111.032V117.161H665.452V111.032H671.357ZM730.402 123.291V129.419H724.498V123.291H730.402ZM724.498 123.291V129.419H718.593V123.291H724.498ZM718.593 123.291V129.419H712.689V123.291H718.593ZM712.689 123.291V129.419H706.784V123.291H712.689ZM677.261 123.291V129.419H671.357V123.291H677.261ZM671.357 123.291V129.419H665.452V123.291H671.357ZM770.457 74.2587V80.3867H764.553V74.2587H770.457ZM770.457 80.3867V86.516H764.553V80.3867H770.457ZM770.457 86.516V92.6454H764.553V86.516H770.457ZM770.457 92.6454V98.7747H764.553V92.6454H770.457ZM770.457 98.7747V104.903H764.553V98.7747H770.457ZM770.457 104.903V111.032H764.553V104.903H770.457ZM770.457 111.032V117.161H764.553V111.032H770.457ZM770.457 117.161V123.291H764.553V117.161H770.457ZM776.362 117.161V123.291H770.457V117.161H776.362ZM782.266 117.161V123.291H776.362V117.161H782.266ZM788.171 117.161V123.291H782.266V117.161H788.171ZM794.076 117.161V123.291H788.171V117.161H794.076ZM770.457 129.419V135.548H764.553V129.419H770.457ZM764.553 129.419V135.548H758.648V129.419H764.553ZM764.553 123.291V129.419H758.648V123.291H764.553ZM770.457 123.291V129.419H764.553V123.291H770.457ZM770.457 135.548V141.677H764.553V135.548H770.457ZM764.553 135.548V141.677H758.648V135.548H764.553ZM758.648 135.548V141.677H752.744V135.548H758.648ZM752.744 135.548V141.677H746.839V135.548H752.744ZM746.839 135.548V141.677H740.934V135.548H746.839ZM735.03 117.161V123.291H729.125V117.161H735.03ZM740.934 117.161V123.291H735.03V117.161H740.934ZM746.839 117.161V123.291H740.934V117.161H746.839ZM752.744 117.161V123.291H746.839V117.161H752.744ZM758.648 117.161V123.291H752.744V117.161H758.648ZM764.553 117.161V123.291H758.648V117.161H764.553ZM758.648 129.419V135.548H752.744V129.419H758.648ZM758.648 123.291V129.419H752.744V123.291H758.648ZM752.744 123.291V129.419H746.839V123.291H752.744ZM746.839 123.291V129.419H740.934V123.291H746.839ZM746.839 129.419V135.548H740.934V129.419H746.839ZM752.744 129.419V135.548H746.839V129.419H752.744ZM764.553 80.3867V86.516H758.648V80.3867H764.553ZM764.553 86.516V92.6454H758.648V86.516H764.553ZM758.648 86.516V92.6454H752.744V86.516H758.648ZM758.648 92.6454V98.7747H752.744V92.6454H758.648ZM758.648 98.7747V104.903H752.744V98.7747H758.648ZM752.744 92.6454V98.7747H746.839V92.6454H752.744ZM752.744 98.7747V104.903H746.839V98.7747H752.744ZM746.839 98.7747V104.903H740.934V98.7747H746.839ZM746.839 104.903V111.032H740.934V104.903H746.839ZM746.839 111.032V117.161H740.934V111.032H746.839ZM758.648 111.032V117.161H752.744V111.032H758.648ZM764.553 111.032V117.161H758.648V111.032H764.553ZM764.553 104.903V111.032H758.648V104.903H764.553ZM764.553 98.7747V104.903H758.648V98.7747H764.553ZM764.553 92.6454V98.7747H758.648V92.6454H764.553ZM758.648 104.903V111.032H752.744V104.903H758.648ZM752.744 111.032V117.161H746.839V111.032H752.744ZM752.744 104.903V111.032H746.839V104.903H752.744ZM794.076 190.709V196.839H788.171V190.709H794.076ZM794.076 196.839V202.968H788.171V196.839H794.076ZM794.076 209.097V215.225H788.171V209.097H794.076ZM788.171 209.097V215.225H782.266V209.097H788.171ZM782.266 209.097V215.225H776.362V209.097H782.266ZM776.362 209.097V215.225H770.457V209.097H776.362ZM770.457 209.097V215.225H764.553V209.097H770.457ZM770.457 202.968V209.097H764.553V202.968H770.457ZM764.553 202.968V209.097H758.648V202.968H764.553ZM758.648 202.968V209.097H752.744V202.968H758.648ZM758.648 196.839V202.968H752.744V196.839H758.648ZM752.744 196.839V202.968H746.839V196.839H752.744ZM752.744 190.709V196.839H746.839V190.709H752.744ZM752.744 184.581V190.709H746.839V184.581H752.744ZM746.839 184.581V190.709H740.934V184.581H746.839ZM746.839 178.452V184.581H740.934V178.452H746.839ZM746.839 172.323V178.452H740.934V172.323H746.839ZM746.839 166.193V172.323H740.934V166.193H746.839ZM746.839 160.065V166.193H740.934V160.065H746.839ZM746.839 153.935V160.065H740.934V153.935H746.839ZM746.839 147.807V153.935H740.934V147.807H746.839ZM746.839 141.677V147.807H740.934V141.677H746.839ZM752.744 141.677V147.807H746.839V141.677H752.744ZM758.648 141.677V147.807H752.744V141.677H758.648ZM764.553 141.677V147.807H758.648V141.677H764.553ZM770.457 141.677V147.807H764.553V141.677H770.457ZM770.457 147.807V153.935H764.553V147.807H770.457ZM770.457 153.935V160.065H764.553V153.935H770.457ZM770.457 160.065V166.193H764.553V160.065H770.457ZM770.457 166.193V172.323H764.553V166.193H770.457ZM770.457 172.323V178.452H764.553V172.323H770.457ZM770.457 178.452V184.581H764.553V178.452H770.457ZM770.457 184.581V190.709H764.553V184.581H770.457ZM776.362 184.581V190.709H770.457V184.581H776.362ZM776.362 190.709V196.839H770.457V190.709H776.362ZM782.266 190.709V196.839H776.362V190.709H782.266ZM782.266 196.839V202.968H776.362V196.839H782.266ZM788.171 196.839V202.968H782.266V196.839H788.171ZM788.171 190.709V196.839H782.266V190.709H788.171ZM794.076 202.968V209.097H788.171V202.968H794.076ZM788.171 202.968V209.097H782.266V202.968H788.171ZM782.266 202.968V209.097H776.362V202.968H782.266ZM776.362 202.968V209.097H770.457V202.968H776.362ZM776.362 196.839V202.968H770.457V196.839H776.362ZM770.457 196.839V202.968H764.553V196.839H770.457ZM770.457 190.709V196.839H764.553V190.709H770.457ZM764.553 190.709V196.839H758.648V190.709H764.553ZM764.553 196.839V202.968H758.648V196.839H764.553ZM758.648 190.709V196.839H752.744V190.709H758.648ZM764.553 184.581V190.709H758.648V184.581H764.553ZM764.553 178.452V184.581H758.648V178.452H764.553ZM758.648 184.581V190.709H752.744V184.581H758.648ZM758.648 178.452V184.581H752.744V178.452H758.648ZM764.553 172.323V178.452H758.648V172.323H764.553ZM764.553 166.193V172.323H758.648V166.193H764.553ZM764.553 160.065V166.193H758.648V160.065H764.553ZM764.553 153.935V160.065H758.648V153.935H764.553ZM764.553 147.807V153.935H758.648V147.807H764.553ZM758.648 147.807V153.935H752.744V147.807H758.648ZM752.744 147.807V153.935H746.839V147.807H752.744ZM752.744 153.935V160.065H746.839V153.935H752.744ZM752.744 160.065V166.193H746.839V160.065H752.744ZM752.744 166.193V172.323H746.839V166.193H752.744ZM752.744 172.323V178.452H746.839V172.323H752.744ZM752.744 178.452V184.581H746.839V178.452H752.744ZM758.648 172.323V178.452H752.744V172.323H758.648ZM758.648 166.193V172.323H752.744V166.193H758.648ZM758.648 160.065V166.193H752.744V160.065H758.648ZM758.648 153.935V160.065H752.744V153.935H758.648ZM794.076 104.903V111.032H788.171V104.903H794.076ZM788.171 104.903V111.032H782.266V104.903H788.171ZM788.171 111.032V117.161H782.266V111.032H788.171ZM794.076 111.032V117.161H788.171V111.032H794.076ZM782.266 111.032V117.161H776.362V111.032H782.266ZM776.362 111.032V117.161H770.457V111.032H776.362ZM776.362 104.903V111.032H770.457V104.903H776.362ZM782.266 104.903V111.032H776.362V104.903H782.266ZM746.839 92.6454V98.7747H740.934V92.6454H746.839ZM752.744 86.516V92.6454H746.839V86.516H752.744ZM758.648 80.3867V86.516H752.744V80.3867H758.648ZM764.553 74.2587V80.3867H758.648V74.2587H764.553ZM740.934 104.903V111.032H735.03V104.903H740.934ZM740.934 111.032V117.161H735.03V111.032H740.934ZM735.03 111.032V117.161H729.125V111.032H735.03ZM735.03 104.903V111.032H729.125V104.903H735.03ZM770.457 68.1293V74.2587H764.553V68.1293H770.457ZM735.03 123.291V129.419H729.125V123.291H735.03ZM740.934 123.291V129.419H735.03V123.291H740.934ZM776.362 123.291V129.419H770.457V123.291H776.362ZM782.266 123.291V129.419H776.362V123.291H782.266ZM788.171 123.291V129.419H782.266V123.291H788.171ZM794.076 123.291V129.419H788.171V123.291H794.076ZM810.502 209.097V215.225H804.596V209.097H810.502ZM810.502 202.968V209.097H804.596V202.968H810.502ZM810.502 196.839V202.968H804.596V196.839H810.502ZM810.502 190.709V196.839H804.596V190.709H810.502ZM810.502 184.581V190.709H804.596V184.581H810.502ZM810.502 178.452V184.581H804.596V178.452H810.502ZM810.502 172.323V178.452H804.596V172.323H810.502ZM810.502 166.193V172.323H804.596V166.193H810.502ZM810.502 160.065V166.193H804.596V160.065H810.502ZM810.502 153.935V160.065H804.596V153.935H810.502ZM810.502 147.807V153.935H804.596V147.807H810.502ZM810.502 141.677V147.807H804.596V141.677H810.502ZM810.502 135.548V141.677H804.596V135.548H810.502ZM810.502 129.419V135.548H804.596V129.419H810.502ZM810.502 123.291V129.419H804.596V123.291H810.502ZM816.405 123.291V129.419H810.502V123.291H816.405ZM816.405 129.419V135.548H810.502V129.419H816.405ZM816.405 135.548V141.677H810.502V135.548H816.405ZM816.405 141.677V147.807H810.502V141.677H816.405ZM816.405 147.807V153.935H810.502V147.807H816.405ZM816.405 153.935V160.065H810.502V153.935H816.405ZM816.405 160.065V166.193H810.502V160.065H816.405ZM822.311 166.193V172.323H816.405V166.193H822.311ZM822.311 172.323V178.452H816.405V172.323H822.311ZM822.311 178.452V184.581H816.405V178.452H822.311ZM822.311 184.581V190.709H816.405V184.581H822.311ZM822.311 190.709V196.839H816.405V190.709H822.311ZM822.311 196.839V202.968H816.405V196.839H822.311ZM822.311 202.968V209.097H816.405V202.968H822.311ZM822.311 209.097V215.225H816.405V209.097H822.311ZM828.214 209.097V215.225H822.311V209.097H828.214ZM834.12 209.097V215.225H828.214V209.097H834.12ZM834.12 202.968V209.097H828.214V202.968H834.12ZM834.12 196.839V202.968H828.214V196.839H834.12ZM834.12 190.709V196.839H828.214V190.709H834.12ZM834.12 184.581V190.709H828.214V184.581H834.12ZM834.12 178.452V184.581H828.214V178.452H834.12ZM834.12 172.323V178.452H828.214V172.323H834.12ZM834.12 166.193V172.323H828.214V166.193H834.12ZM828.214 166.193V172.323H822.311V166.193H828.214ZM828.214 160.065V166.193H822.311V160.065H828.214ZM828.214 172.323V178.452H822.311V172.323H828.214ZM828.214 178.452V184.581H822.311V178.452H828.214ZM828.214 184.581V190.709H822.311V184.581H828.214ZM828.214 190.709V196.839H822.311V190.709H828.214ZM828.214 196.839V202.968H822.311V196.839H828.214ZM828.214 202.968V209.097H822.311V202.968H828.214ZM816.405 209.097V215.225H810.502V209.097H816.405ZM816.405 202.968V209.097H810.502V202.968H816.405ZM816.405 196.839V202.968H810.502V196.839H816.405ZM816.405 190.709V196.839H810.502V190.709H816.405ZM816.405 184.581V190.709H810.502V184.581H816.405ZM816.405 178.452V184.581H810.502V178.452H816.405ZM816.405 172.323V178.452H810.502V172.323H816.405ZM816.405 166.193V172.323H810.502V166.193H816.405ZM810.502 62V68.1293H804.596V62H810.502ZM810.502 68.1293V74.2587H804.596V68.1293H810.502ZM810.502 74.2587V80.3867H804.596V74.2587H810.502ZM810.502 80.3867V86.516H804.596V80.3867H810.502ZM810.502 86.516V92.6454H804.596V86.516H810.502ZM810.502 92.6454V98.7747H804.596V92.6454H810.502ZM810.502 98.7747V104.903H804.596V98.7747H810.502ZM810.502 104.903V111.032H804.596V104.903H810.502ZM810.502 111.032V117.161H804.596V111.032H810.502ZM810.502 117.161V123.291H804.596V117.161H810.502ZM828.214 62V68.1293H822.311V62H828.214ZM828.214 68.1293V74.2587H822.311V68.1293H828.214ZM828.214 74.2587V80.3867H822.311V74.2587H828.214ZM828.214 80.3867V86.516H822.311V80.3867H828.214ZM828.214 86.516V92.6454H822.311V86.516H828.214ZM828.214 92.6454V98.7747H822.311V92.6454H828.214ZM828.214 104.903V111.032H822.311V104.903H828.214ZM828.214 111.032V117.161H822.311V111.032H828.214ZM828.214 117.161V123.291H822.311V117.161H828.214ZM828.214 123.291V129.419H822.311V123.291H828.214ZM828.214 129.419V135.548H822.311V129.419H828.214ZM828.214 135.548V141.677H822.311V135.548H828.214ZM828.214 141.677V147.807H822.311V141.677H828.214ZM834.12 147.807V153.935H828.214V147.807H834.12ZM834.12 153.935V160.065H828.214V153.935H834.12ZM834.12 160.065V166.193H828.214V160.065H834.12ZM834.12 141.677V147.807H828.214V141.677H834.12ZM834.12 135.548V141.677H828.214V135.548H834.12ZM834.12 129.419V135.548H828.214V129.419H834.12ZM834.12 123.291V129.419H828.214V123.291H834.12ZM834.12 117.161V123.291H828.214V117.161H834.12ZM834.12 111.032V117.161H828.214V111.032H834.12ZM834.12 104.903V111.032H828.214V104.903H834.12ZM834.12 98.7747V104.903H828.214V98.7747H834.12ZM834.12 92.6454V98.7747H828.214V92.6454H834.12ZM834.12 86.516V92.6454H828.214V86.516H834.12ZM828.214 98.7747V104.903H822.311V98.7747H828.214ZM834.12 80.3867V86.516H828.214V80.3867H834.12ZM834.12 74.2587V80.3867H828.214V74.2587H834.12ZM834.12 68.1293V74.2587H828.214V68.1293H834.12ZM834.12 62V68.1293H828.214V62H834.12ZM822.311 62V68.1293H816.405V62H822.311ZM816.405 62V68.1293H810.502V62H816.405ZM816.405 68.1293V74.2587H810.502V68.1293H816.405ZM822.311 68.1293V74.2587H816.405V68.1293H822.311ZM822.311 74.2587V80.3867H816.405V74.2587H822.311ZM822.311 80.3867V86.516H816.405V80.3867H822.311ZM822.311 86.516V92.6454H816.405V86.516H822.311ZM822.311 92.6454V98.7747H816.405V92.6454H822.311ZM822.311 98.7747V104.903H816.405V98.7747H822.311ZM822.311 104.903V111.032H816.405V104.903H822.311ZM816.405 111.032V117.161H810.502V111.032H816.405ZM816.405 117.161V123.291H810.502V117.161H816.405ZM816.405 104.903V111.032H810.502V104.903H816.405ZM816.405 98.7747V104.903H810.502V98.7747H816.405ZM816.405 92.6454V98.7747H810.502V92.6454H816.405ZM816.405 86.516V92.6454H810.502V86.516H816.405ZM816.405 80.3867V86.516H810.502V80.3867H816.405ZM816.405 74.2587V80.3867H810.502V74.2587H816.405ZM822.311 111.032V117.161H816.405V111.032H822.311ZM822.311 117.161V123.291H816.405V117.161H822.311ZM822.311 123.291V129.419H816.405V123.291H822.311ZM822.311 129.419V135.548H816.405V129.419H822.311ZM822.311 135.548V141.677H816.405V135.548H822.311ZM822.311 141.677V147.807H816.405V141.677H822.311ZM822.311 147.807V153.935H816.405V147.807H822.311ZM822.311 153.935V160.065H816.405V153.935H822.311ZM822.311 160.065V166.193H816.405V160.065H822.311ZM828.214 153.935V160.065H822.311V153.935H828.214ZM828.214 147.807V153.935H822.311V147.807H828.214ZM856.431 98.7747V104.903H850.527V98.7747H856.431ZM862.336 98.7747V104.903H856.431V98.7747H862.336ZM868.24 98.7747V104.903H862.336V98.7747H868.24ZM874.146 98.7747V104.903H868.24V98.7747H874.146ZM874.146 104.903V111.032H868.24V104.903H874.146ZM880.05 104.903V111.032H874.146V104.903H880.05ZM880.05 111.032V117.161H874.146V111.032H880.05ZM880.05 98.7747V104.903H874.146V98.7747H880.05ZM880.05 117.161V123.291H874.146V117.161H880.05ZM880.05 123.291V129.419H874.146V123.291H880.05ZM880.05 129.419V135.548H874.146V129.419H880.05ZM880.05 135.548V141.677H874.146V135.548H880.05ZM880.05 141.677V147.807H874.146V141.677H880.05ZM880.05 147.807V153.935H874.146V147.807H880.05ZM880.05 153.935V160.065H874.146V153.935H880.05ZM880.05 160.065V166.193H874.146V160.065H880.05ZM880.05 166.193V172.323H874.146V166.193H880.05ZM874.146 166.193V172.323H868.24V166.193H874.146ZM868.24 172.323V178.452H862.336V172.323H868.24ZM862.336 172.323V178.452H856.431V172.323H862.336ZM856.431 172.323V178.452H850.527V172.323H856.431ZM856.431 166.193V172.323H850.527V166.193H856.431ZM856.431 160.065V166.193H850.527V160.065H856.431ZM856.431 153.935V160.065H850.527V153.935H856.431ZM856.431 147.807V153.935H850.527V147.807H856.431ZM862.336 147.807V153.935H856.431V147.807H862.336ZM862.336 141.677V147.807H856.431V141.677H862.336ZM862.336 135.548V141.677H856.431V135.548H862.336ZM862.336 129.419V135.548H856.431V129.419H862.336ZM862.336 123.291V129.419H856.431V123.291H862.336ZM862.336 117.161V123.291H856.431V117.161H862.336ZM862.336 111.032V117.161H856.431V111.032H862.336ZM862.336 104.903V111.032H856.431V104.903H862.336ZM856.431 104.903V111.032H850.527V104.903H856.431ZM856.431 111.032V117.161H850.527V111.032H856.431ZM856.431 117.161V123.291H850.527V117.161H856.431ZM856.431 123.291V129.419H850.527V123.291H856.431ZM856.431 129.419V135.548H850.527V129.419H856.431ZM856.431 135.548V141.677H850.527V135.548H856.431ZM856.431 141.677V147.807H850.527V141.677H856.431ZM868.24 129.419V135.548H862.336V129.419H868.24ZM868.24 123.291V129.419H862.336V123.291H868.24ZM868.24 117.161V123.291H862.336V117.161H868.24ZM868.24 111.032V117.161H862.336V111.032H868.24ZM868.24 104.903V111.032H862.336V104.903H868.24ZM874.146 129.419V135.548H868.24V129.419H874.146ZM874.146 135.548V141.677H868.24V135.548H874.146ZM874.146 123.291V129.419H868.24V123.291H874.146ZM874.146 117.161V123.291H868.24V117.161H874.146ZM874.146 111.032V117.161H868.24V111.032H874.146ZM868.24 147.807V153.935H862.336V147.807H868.24ZM868.24 141.677V147.807H862.336V141.677H868.24ZM868.24 135.548V141.677H862.336V135.548H868.24ZM874.146 141.677V147.807H868.24V141.677H874.146ZM874.146 147.807V153.935H868.24V147.807H874.146ZM874.146 153.935V160.065H868.24V153.935H874.146ZM868.24 160.065V166.193H862.336V160.065H868.24ZM868.24 166.193V172.323H862.336V166.193H868.24ZM868.24 153.935V160.065H862.336V153.935H868.24ZM862.336 153.935V160.065H856.431V153.935H862.336ZM862.336 160.065V166.193H856.431V160.065H862.336ZM862.336 166.193V172.323H856.431V166.193H862.336ZM874.146 160.065V166.193H868.24V160.065H874.146ZM868.24 178.452V184.581H862.336V178.452H868.24ZM862.336 178.452V184.581H856.431V178.452H862.336ZM874.146 178.452V184.581H868.24V178.452H874.146ZM874.146 172.323V178.452H868.24V172.323H874.146ZM880.05 172.323V178.452H874.146V172.323H880.05ZM885.955 172.323V178.452H880.05V172.323H885.955ZM885.955 178.452V184.581H880.05V178.452H885.955ZM880.05 178.452V184.581H874.146V178.452H880.05ZM891.859 178.452V184.581H885.955V178.452H891.859ZM868.24 184.581V190.709H862.336V184.581H868.24ZM874.146 184.581V190.709H868.24V184.581H874.146ZM880.05 184.581V190.709H874.146V184.581H880.05ZM885.955 184.581V190.709H880.05V184.581H885.955ZM891.859 184.581V190.709H885.955V184.581H891.859ZM897.765 184.581V190.709H891.859V184.581H897.765ZM903.668 184.581V190.709H897.765V184.581H903.668ZM909.574 184.581V190.709H903.668V184.581H909.574ZM915.477 184.581V190.709H909.574V184.581H915.477ZM921.383 184.581V190.709H915.477V184.581H921.383ZM927.288 184.581V190.709H921.383V184.581H927.288ZM933.192 184.581V190.709H927.288V184.581H933.192ZM927.288 178.452V184.581H921.383V178.452H927.288ZM921.383 178.452V184.581H915.477V178.452H921.383ZM915.477 178.452V184.581H909.574V178.452H915.477ZM909.574 178.452V184.581H903.668V178.452H909.574ZM915.477 172.323V178.452H909.574V172.323H915.477ZM921.383 172.323V178.452H915.477V172.323H921.383ZM927.288 172.323V178.452H921.383V172.323H927.288ZM933.192 172.323V178.452H927.288V172.323H933.192ZM939.097 172.323V178.452H933.192V172.323H939.097ZM939.097 178.452V184.581H933.192V178.452H939.097ZM933.192 178.452V184.581H927.288V178.452H933.192ZM945 172.323V178.452H939.097V172.323H945ZM891.859 209.097V215.225H885.955V209.097H891.859ZM891.859 202.968V209.097H885.955V202.968H891.859ZM891.859 196.839V202.968H885.955V196.839H891.859ZM897.765 196.839V202.968H891.859V196.839H897.765ZM897.765 190.709V196.839H891.859V190.709H897.765ZM903.668 190.709V196.839H897.765V190.709H903.668ZM909.574 190.709V196.839H903.668V190.709H909.574ZM909.574 196.839V202.968H903.668V196.839H909.574ZM909.574 202.968V209.097H903.668V202.968H909.574ZM909.574 209.097V215.225H903.668V209.097H909.574ZM903.668 209.097V215.225H897.765V209.097H903.668ZM897.765 209.097V215.225H891.859V209.097H897.765ZM897.765 202.968V209.097H891.859V202.968H897.765ZM903.668 196.839V202.968H897.765V196.839H903.668ZM903.668 202.968V209.097H897.765V202.968H903.668ZM915.477 196.839V202.968H909.574V196.839H915.477ZM915.477 190.709V196.839H909.574V190.709H915.477ZM921.383 190.709V196.839H915.477V190.709H921.383ZM927.288 190.709V196.839H921.383V190.709H927.288ZM921.383 196.839V202.968H915.477V196.839H921.383ZM915.477 202.968V209.097H909.574V202.968H915.477ZM874.146 190.709V196.839H868.24V190.709H874.146ZM880.05 190.709V196.839H874.146V190.709H880.05ZM880.05 196.839V202.968H874.146V196.839H880.05ZM885.955 196.839V202.968H880.05V196.839H885.955ZM885.955 202.968V209.097H880.05V202.968H885.955ZM891.859 190.709V196.839H885.955V190.709H891.859ZM885.955 190.709V196.839H880.05V190.709H885.955ZM921.383 166.193V172.323H915.477V166.193H921.383ZM921.383 160.065V166.193H915.477V160.065H921.383ZM921.383 153.935V160.065H915.477V153.935H921.383ZM921.383 147.807V153.935H915.477V147.807H921.383ZM927.288 147.807V153.935H921.383V147.807H927.288ZM933.192 147.807V153.935H927.288V147.807H933.192ZM939.097 147.807V153.935H933.192V147.807H939.097ZM945 147.807V153.935H939.097V147.807H945ZM945 153.935V160.065H939.097V153.935H945ZM945 160.065V166.193H939.097V160.065H945ZM945 166.193V172.323H939.097V166.193H945ZM939.097 166.193V172.323H933.192V166.193H939.097ZM933.192 166.193V172.323H927.288V166.193H933.192ZM927.288 166.193V172.323H921.383V166.193H927.288ZM933.192 160.065V166.193H927.288V160.065H933.192ZM939.097 160.065V166.193H933.192V160.065H939.097ZM939.097 153.935V160.065H933.192V153.935H939.097ZM933.192 153.935V160.065H927.288V153.935H933.192ZM927.288 153.935V160.065H921.383V153.935H927.288ZM927.288 160.065V166.193H921.383V160.065H927.288ZM921.383 141.677V147.807H915.477V141.677H921.383ZM921.383 135.548V141.677H915.477V135.548H921.383ZM921.383 129.419V135.548H915.477V129.419H921.383ZM921.383 123.291V129.419H915.477V123.291H921.383ZM921.383 117.161V123.291H915.477V117.161H921.383ZM921.383 111.032V117.161H915.477V111.032H921.383ZM921.383 104.903V111.032H915.477V104.903H921.383ZM921.383 98.7747V104.903H915.477V98.7747H921.383ZM927.288 104.903V111.032H921.383V104.903H927.288ZM927.288 98.7747V104.903H921.383V98.7747H927.288ZM933.192 98.7747V104.903H927.288V98.7747H933.192ZM939.097 98.7747V104.903H933.192V98.7747H939.097ZM939.097 104.903V111.032H933.192V104.903H939.097ZM939.097 111.032V117.161H933.192V111.032H939.097ZM945 111.032V117.161H939.097V111.032H945ZM945 117.161V123.291H939.097V117.161H945ZM945 123.291V129.419H939.097V123.291H945ZM945 129.419V135.548H939.097V129.419H945ZM945 135.548V141.677H939.097V135.548H945ZM945 141.677V147.807H939.097V141.677H945ZM945 104.903V111.032H939.097V104.903H945ZM945 98.7747V104.903H939.097V98.7747H945ZM933.192 104.903V111.032H927.288V104.903H933.192ZM933.192 111.032V117.161H927.288V111.032H933.192ZM933.192 117.161V123.291H927.288V117.161H933.192ZM933.192 123.291V129.419H927.288V123.291H933.192ZM933.192 129.419V135.548H927.288V129.419H933.192ZM933.192 135.548V141.677H927.288V135.548H933.192ZM927.288 135.548V141.677H921.383V135.548H927.288ZM927.288 141.677V147.807H921.383V141.677H927.288ZM927.288 129.419V135.548H921.383V129.419H927.288ZM927.288 123.291V129.419H921.383V123.291H927.288ZM927.288 117.161V123.291H921.383V117.161H927.288ZM927.288 111.032V117.161H921.383V111.032H927.288ZM939.097 117.161V123.291H933.192V117.161H939.097ZM939.097 123.291V129.419H933.192V123.291H939.097ZM939.097 129.419V135.548H933.192V129.419H939.097ZM939.097 135.548V141.677H933.192V135.548H939.097ZM939.097 141.677V147.807H933.192V141.677H939.097ZM933.192 141.677V147.807H927.288V141.677H933.192ZM880.05 209.097V215.225H874.146V209.097H880.05ZM885.955 209.097V215.225H880.05V209.097H885.955ZM891.859 215.225V221.355H885.955V215.225H891.859ZM897.765 215.225V221.355H891.859V215.225H897.765ZM903.668 215.225V221.355H897.765V215.225H903.668ZM885.955 215.225V221.355H880.05V215.225H885.955ZM880.05 215.225V221.355H874.146V215.225H880.05ZM874.146 215.225V221.355H868.24V215.225H874.146ZM874.146 221.355V227.484H868.24V221.355H874.146ZM868.24 221.355V227.484H862.336V221.355H868.24ZM868.24 227.484V233.612H862.336V227.484H868.24ZM862.336 227.484V233.612H856.431V227.484H862.336ZM862.336 233.612V239.741H856.431V233.612H862.336ZM862.336 239.741V245.871H856.431V239.741H862.336ZM862.336 245.871V252H856.431V245.871H862.336ZM868.24 245.871V252H862.336V245.871H868.24ZM874.146 245.871V252H868.24V245.871H874.146ZM874.146 239.741V245.871H868.24V239.741H874.146ZM874.146 233.612V239.741H868.24V233.612H874.146ZM868.24 233.612V239.741H862.336V233.612H868.24ZM868.24 239.741V245.871H862.336V239.741H868.24ZM880.05 233.612V239.741H874.146V233.612H880.05ZM880.05 239.741V245.871H874.146V239.741H880.05ZM885.955 233.612V239.741H880.05V233.612H885.955ZM885.955 227.484V233.612H880.05V227.484H885.955ZM891.859 227.484V233.612H885.955V227.484H891.859ZM891.859 221.355V227.484H885.955V221.355H891.859ZM897.765 221.355V227.484H891.859V221.355H897.765ZM885.955 221.355V227.484H880.05V221.355H885.955ZM880.05 221.355V227.484H874.146V221.355H880.05ZM880.05 227.484V233.612H874.146V227.484H880.05ZM874.146 227.484V233.612H868.24V227.484H874.146Z" fill="white"/>
<circle cx="153" cy="153" r="145" fill="#C8FA6C"/>
<g clip-path="url(#clip0_2745_17614)">
<path d="M255.003 172.168H245.297V211.234H255.003V172.168Z" fill="#000001"/>
<path d="M245.291 211.234H235.648V221.049H245.291V211.234Z" fill="#000001"/>
<path d="M226.008 152.604V162.419H235.65V172.169H245.293V133.039H235.65V152.604H226.008Z" fill="#000001"/>
<path d="M235.65 221.047H226.008V230.797H235.65V221.047Z" fill="#000001"/>
<path d="M235.65 103.723H226.008V133.038H235.65V103.723Z" fill="#000001"/>
<path d="M226.011 162.418H187.314V172.168H216.305V181.919H206.663V191.733H196.957V201.484H187.314V172.168H177.672V211.234H187.314V221.049H226.011V211.234H235.654V172.168H226.011V162.418Z" fill="#000001"/>
<path d="M226.011 74.4062H216.305V103.722H226.011V74.4062Z" fill="#000001"/>
<path d="M226.009 230.797H187.312V240.611H226.009V230.797Z" fill="#000001"/>
<path d="M226.009 142.852H187.312V152.602H226.009V142.852Z" fill="#000001"/>
<path d="M187.314 221.047H177.672V230.797H187.314V221.047Z" fill="#000001"/>
<path d="M187.314 152.602H177.672V162.416H187.314V152.602Z" fill="#000001"/>
<path d="M216.3 64.6562H167.961V74.4067H216.3V64.6562Z" fill="#000001"/>
<path d="M177.667 211.234H167.961V221.049H177.667V211.234Z" fill="#000001"/>
<path d="M167.963 172.168H177.669V162.418H158.32V211.234H167.963V172.168Z" fill="#000001"/>
<path d="M177.667 123.286H167.962V113.535H138.971V123.286H129.328V133.036H138.971V142.851H167.962V133.036H177.667V123.286Z" fill="#000001"/>
<path d="M158.322 152.602H148.68V162.416H158.322V152.602Z" fill="#000001"/>
<path d="M138.977 103.722H167.968V74.4062H158.325V93.9712H148.682V74.4062H138.977V103.722Z" fill="#000001"/>
<path d="M138.971 211.234H129.328V221.049H138.971V211.234Z" fill="#000001"/>
<path d="M129.328 172.168H138.971V211.234H148.677V162.418H129.328V172.168Z" fill="#000001"/>
<path d="M129.331 221.047H119.625V230.797H129.331V221.047Z" fill="#000001"/>
<path d="M129.331 152.602H119.625V162.416H129.331V152.602Z" fill="#000001"/>
<path d="M119.627 162.418H80.9941V172.168H109.985V181.919H100.342V191.733H90.6366V201.484H80.9941V172.168H71.3516V211.234H80.9941V221.049H119.627V211.234H129.333V172.168H119.627V162.418Z" fill="#000001"/>
<path d="M119.626 230.797H80.9922V240.611H119.626V230.797Z" fill="#000001"/>
<path d="M138.972 64.6562H90.6328V74.4067H138.972V64.6562Z" fill="#000001"/>
<path d="M119.626 142.852H80.9922V152.602H119.626V142.852Z" fill="#000001"/>
<path d="M90.6347 74.4062H80.9922V103.722H90.6347V74.4062Z" fill="#000001"/>
<path d="M80.9941 221.047H71.3516V230.797H80.9941V221.047Z" fill="#000001"/>
<path d="M80.9941 103.723H71.3516V133.038H80.9941V103.723Z" fill="#000001"/>
<path d="M71.3466 211.234H61.6406V221.049H71.3466V211.234Z" fill="#000001"/>
<path d="M71.3466 162.419H80.9891V152.604H71.3466V133.039H61.6406V172.169H71.3466V162.419Z" fill="#000001"/>
<path d="M61.6425 172.168H52V211.234H61.6425V172.168Z" fill="#000001"/>
</g>
<path d="M936 34.2529C944.683 34.2529 951.747 41.317 951.747 50C951.747 58.683 944.683 65.7471 936 65.7471C927.317 65.7471 920.253 58.683 920.253 50C920.253 41.317 927.317 34.2529 936 34.2529ZM936 31C925.507 31 917 39.5066 917 50C917 60.4934 925.507 69 936 69C946.493 69 955 60.4934 955 50C955 39.5066 946.493 31 936 31Z" fill="white"/>
<path d="M933.595 51.1586H932.178V57.5743C932.178 58.4187 931.992 59.0411 931.62 59.4405C931.247 59.8399 930.762 60.0397 930.162 60.0397C929.517 60.0397 929.018 59.8306 928.664 59.413C928.31 58.9957 928.133 58.3826 928.133 57.5743V42.2096C928.133 41.3377 928.328 40.7067 928.718 40.3161C929.109 39.9258 929.74 39.7305 930.612 39.7305H937.191C938.099 39.7305 938.875 39.7692 939.52 39.8463C940.165 39.9235 940.746 40.0802 941.264 40.3161C941.89 40.5797 942.444 40.9564 942.925 41.4467C943.407 41.9371 943.772 42.507 944.022 43.1562C944.272 43.8056 944.397 44.4935 944.397 45.2198C944.397 46.7092 943.976 47.8987 943.137 48.7885C942.297 49.6785 941.023 50.3098 939.316 50.6821C940.033 51.0633 940.719 51.6264 941.373 52.3709C942.026 53.1157 942.61 53.9081 943.123 54.7479C943.636 55.588 944.036 56.3464 944.322 57.0227C944.608 57.6993 944.751 58.1646 944.751 58.4187C944.751 58.6824 944.667 58.9432 944.499 59.2019C944.331 59.461 944.101 59.6651 943.811 59.815C943.52 59.9649 943.184 60.0397 942.803 60.0397C942.349 60.0397 941.967 59.9328 941.659 59.7197C941.35 59.5063 941.084 59.236 940.862 58.9091C940.639 58.5822 940.337 58.1011 939.956 57.4654L938.335 54.7684C937.754 53.7788 937.234 53.0247 936.775 52.5072C936.317 51.9897 935.851 51.6354 935.379 51.4448C934.907 51.2542 934.312 51.1586 933.595 51.1586ZM935.91 42.768H932.178V48.2574H935.802C936.773 48.2574 937.59 48.1734 938.253 48.0053C938.916 47.8375 939.422 47.5513 939.772 47.1473C940.122 46.7433 940.297 46.1869 940.297 45.4787C940.297 44.9248 940.156 44.4366 939.874 44.0144C939.593 43.592 939.202 43.2767 938.703 43.0677C938.231 42.868 937.3 42.768 935.91 42.768Z" fill="white"/>
<defs>
<clipPath id="clip0_2745_17614">
<rect width="203" height="205.272" fill="white" transform="translate(52 50)"/>
</clipPath>
</defs>
</svg>
