<svg xmlns="http://www.w3.org/2000/svg" xmlns:xlink="http://www.w3.org/1999/xlink" width="673.5" height="560.5" viewBox="0 0 673.5 560.5">
  <defs>
    <clipPath id="clip-path">
      <rect id="cards_productos_kompralo" data-name="cards productos kompralo" width="673.5" height="560.5" transform="translate(624 260)" fill="#fff"/>
    </clipPath>
  </defs>
  <g id="Enmascarar_grupo_1" data-name="Enmascarar grupo 1" transform="translate(-624 -260)" clip-path="url(#clip-path)">
    <path id="shipping-fast-solid" d="M656.662,370.425H639.825V256.667a50.514,50.514,0,0,0-14.838-35.674L519.858,115.863a50.514,50.514,0,0,0-35.674-14.838H437.775V50.512A50.526,50.526,0,0,0,387.262,0h-269.4A50.526,50.526,0,0,0,67.35,50.512v50.512H8.419A8.444,8.444,0,0,0,0,109.444v16.838A8.443,8.443,0,0,0,8.419,134.7H294.656a8.443,8.443,0,0,1,8.419,8.419v16.838a8.443,8.443,0,0,1-8.419,8.419H42.094a8.443,8.443,0,0,0-8.419,8.419v16.837a8.443,8.443,0,0,0,8.419,8.419H260.981a8.444,8.444,0,0,1,8.419,8.419v16.837a8.444,8.444,0,0,1-8.419,8.419H8.419A8.444,8.444,0,0,0,0,244.144v16.837A8.444,8.444,0,0,0,8.419,269.4H227.306a8.444,8.444,0,0,1,8.419,8.419v16.837a8.443,8.443,0,0,1-8.419,8.419H67.35v134.7a101.025,101.025,0,0,0,202.05,0H404.1a101.025,101.025,0,1,0,202.05,0h50.513A16.887,16.887,0,0,0,673.5,420.938V387.262A16.887,16.887,0,0,0,656.662,370.425ZM168.375,488.287a50.512,50.512,0,1,1,50.512-50.512A50.526,50.526,0,0,1,168.375,488.287Zm336.75,0a50.512,50.512,0,1,1,50.513-50.512A50.526,50.526,0,0,1,505.125,488.287ZM589.313,269.4H437.775V151.537h46.408L589.313,256.667Z" transform="translate(624 270.85)" fill="#fff"/>
  </g>
</svg>
