<?xml version="1.0" encoding="utf-8"?>
<!-- Generator: Adobe Illustrator 23.0.6, SVG Export Plug-In . SVG Version: 6.00 Build 0)  -->
<svg version="1.1" id="Capa_1" xmlns="http://www.w3.org/2000/svg" xmlns:xlink="http://www.w3.org/1999/xlink" x="0px" y="0px"
	 viewBox="0 0 412.7 412.7" style="enable-background:new 0 0 412.7 412.7;" xml:space="preserve">
<style type="text/css">
	.st0{fill:#FFFFFF;}
</style>
<g>
	<g>
		<path class="st0" d="M295.7,35.5L295.7,35.5c-34.4-0.2-67.2,14.9-89.3,41.3c-22-26.5-54.9-41.7-89.3-41.3
			c-64.6,0-117,52.4-117,117c0,110.8,193.3,218.9,201.1,223.1c3.2,2.1,7.3,2.1,10.4,0c7.8-4.2,201.1-110.8,201.1-223.1
			C412.7,87.9,360.3,35.5,295.7,35.5z M206.4,354.7C176.1,337,20.9,242.4,20.9,152.6c0-53.1,43-96.1,96.1-96.1
			c32.5-0.4,62.9,16,80.5,43.4c3.6,4.9,10.4,6,15.3,2.4c0.9-0.7,1.8-1.5,2.4-2.4c29.1-44.4,88.6-56.9,133.1-27.8
			c27.2,17.8,43.6,48.1,43.5,80.6C391.8,243.5,236.7,337.5,206.4,354.7z"/>
	</g>
</g>
</svg>
