<svg height="512" viewBox="0 0 512 512" width="512" xmlns="http://www.w3.org/2000/svg"><g id="BULINE"><path d="m512 256a256 256 0 1 1 -512 0c0-141.38 114.62-256 256-256s256 114.62 256 256z" fill="#7cb2e8"/></g><g id="Icons"><circle cx="96.95" cy="266.01" fill="#a0c4ef" r="48.78"/><circle cx="331.7" cy="100.85" fill="#a0c4ef" r="48.78"/><path d="m380.55 318.36h-256.36c-6.85-59.47-8.72-114.87 0-161.61h256.36z" fill="#c1a199"/><path d="m422.29 140.8a34.53 34.53 0 0 1 -8.73 23l-53.4 55.2-.44.45-46.84-41.55 48.82-60.08a34.66 34.66 0 0 1 60.59 23z" fill="#dab8ad"/><path d="m422.29 140.8a34.53 34.53 0 0 1 -8.73 23l-53.4 55.2-36.09-32 48.81-60.08a34.68 34.68 0 0 1 41.73-7.92 34.62 34.62 0 0 1 7.68 21.8z" fill="#f1cbbc"/><circle cx="453.91" cy="248.72" fill="#a0c4ef" r="37.67"/><path d="m422.29 264a45.72 45.72 0 0 1 -45.76 45.76h-227.53a45.76 45.76 0 1 1 0-91.52h227.53a45.74 45.74 0 0 1 45.76 45.76z" fill="#e6d3ce"/><path d="m422.29 264a45.72 45.72 0 0 1 -45.76 45.76h-195.09a45.76 45.76 0 1 1 0-91.52h195.09a45.74 45.74 0 0 1 45.76 45.76z" fill="#fff"/><path d="m367.21 218.26a30 30 0 0 1 -30 30h-149a30 30 0 0 1 0-59.93h149a30 30 0 0 1 30 29.93z" fill="#e6d3ce"/><path d="m367.21 218.26a30 30 0 0 1 -30 30h-127.48a30 30 0 0 1 0-59.93h127.52a30 30 0 0 1 29.96 29.93z" fill="#fff"/><path d="m313.18 188.3h-103.61v-2c0-24.71 13.35-32.81 34.57-35.09a1 1 0 0 0 .32 0c15.39-1.76 28.46-12.1 34.69-26.26l7.08-16c2.4 3.9 4.73 7.73 6.84 11.56 14.05 24.67 22.27 47.67 20.11 67.79z" fill="#e6d3ce"/><path d="m313.18 188.3h-91.68v-2c0-24.71 13.39-32.81 34.61-35.09a1 1 0 0 0 .32 0c15.39-1.76 28.46-12.1 34.69-26.26l1.95-4.4c14.05 24.63 22.27 47.63 20.11 67.75z" fill="#fff"/><path d="m422.51 298.67v41.9h-333v-41.9a7.31 7.31 0 0 1 7.31-7.31h318.38a7.31 7.31 0 0 1 7.31 7.31z" fill="#89547a"/><path d="m422.51 298.67v41.9h-306v-41.9a7.31 7.31 0 0 1 7.31-7.31h291.38a7.31 7.31 0 0 1 7.31 7.31z" fill="#9d5b85"/><path d="m444.9 338.71v90.07a256.81 256.81 0 0 1 -76.28 57.22h-225.24a257.05 257.05 0 0 1 -76.28-57.22v-90.07c0-4.85 5.29-8.78 11.82-8.78h354.16c6.53 0 11.82 3.93 11.82 8.78z" fill="#a4608b"/><path d="m444.9 338.71v90.07a256.81 256.81 0 0 1 -76.28 57.22h-225.24a255.39 255.39 0 0 1 -46.38-29.4v-117.89c0-4.85 5.29-8.78 11.82-8.78h324.26c6.53 0 11.82 3.93 11.82 8.78z" fill="#b86695"/><rect fill="#ddbfd4" height="90.78" rx="12.42" width="251.8" x="128.75" y="362.55"/><path d="m263.53 438.56a34 34 0 0 1 -4-44.54 31.16 31.16 0 0 1 3-3.59 28.13 28.13 0 0 1 2.33-2.19c13.13-11.4 45.74-7.3 53.57 8.6 5.74 11.66-1.54 37.19 6.12 53-.03 0-47.43 1.73-61.02-11.28z" fill="#64976c"/><path d="m259.52 394a31.16 31.16 0 0 1 3-3.59 28.13 28.13 0 0 1 2.33-2.19l37.59 40.43z" fill="#8bbd94"/><path d="m204.24 381.42a31.18 31.18 0 0 1 40.58 5.75 29.52 29.52 0 0 1 2.57 3.41 26.06 26.06 0 0 1 1.47 2.54c7.41 14.1-3.08 42.32-18.9 46-11.61 2.68-32.85-9.17-48.56-5.65 0-.02 8.39-42.67 22.84-52.05z" fill="#64976c"/><path d="m244.82 387.17a29.52 29.52 0 0 1 2.57 3.41 26.06 26.06 0 0 1 1.47 2.54l-43.94 25.05z" fill="#8bbd94"/><circle cx="73.1" cy="146.51" fill="#a0c4ef" r="37.67"/><path d="m324 245.73a27.41 27.41 0 0 1 -39.44-19.8l-21.56-126.44a16.17 16.17 0 0 1 13.22-18.65l6.92-1.19 15.23-2.59a16.17 16.17 0 0 1 18.63 13.22l21.56 126.44a27.38 27.38 0 0 1 -14.56 29.01z" fill="#dab8ad"/><path d="m324 245.73a27.4 27.4 0 0 1 -27.41-22.79l-21.59-126.44a16.16 16.16 0 0 1 8.11-16.85l15.23-2.59a16.17 16.17 0 0 1 18.66 13.22l21.56 126.44a27.38 27.38 0 0 1 -14.56 29.01z" fill="#f1cbbc"/><path d="m206.94 226.64a26.42 26.42 0 0 1 -5.3 1.47 27.41 27.41 0 0 1 -31.64-22.41l-21.53-126.44a16.18 16.18 0 0 1 13.22-18.65l9.09-1.54 13.06-2.23a16.18 16.18 0 0 1 18.65 13.21l21.56 126.45a27.4 27.4 0 0 1 -17.11 30.14z" fill="#dab8ad"/><path d="m206.94 226.64a27.35 27.35 0 0 1 -26.46-22.77l-21.56-126.44a16.15 16.15 0 0 1 11.86-18.36l13.06-2.23a16.18 16.18 0 0 1 18.65 13.21l21.56 126.45a27.4 27.4 0 0 1 -17.11 30.14z" fill="#f1cbbc"/><path d="m153.63 187.91a20.87 20.87 0 0 1 -31.43-14.32l-16.44-96.36a12.32 12.32 0 0 1 10.08-14.23l4.41-.75 12.47-2.14a12.33 12.33 0 0 1 14.21 10.08l16.43 96.36a20.85 20.85 0 0 1 -9.73 21.36z" fill="#dab8ad"/><path d="m153.63 187.91a20.84 20.84 0 0 1 -21.74-17.32l-16.43-96.37a12.28 12.28 0 0 1 4.79-11.95l12.47-2.14a12.33 12.33 0 0 1 14.21 10.08l16.43 96.36a20.85 20.85 0 0 1 -9.73 21.34z" fill="#f1cbbc"/><path d="m261.19 241.3c-.57.15-1.14.26-1.72.36a27.38 27.38 0 0 1 -31.6-22.4l-24-140.55a16.17 16.17 0 0 1 13.22-18.65l22.15-3.76a16 16 0 0 1 8.27.75 16.16 16.16 0 0 1 10.41 12.45l24 140.55a27.38 27.38 0 0 1 -20.73 31.25z" fill="#dab8ad"/><path d="m261.19 241.3a27.37 27.37 0 0 1 -20.65-22l-24-140.55a16.16 16.16 0 0 1 13.2-18.65l17.76-3a16.16 16.16 0 0 1 10.42 12.4l24 140.55a27.38 27.38 0 0 1 -20.73 31.25z" fill="#f1cbbc"/><path d="m313.09 202.65a16.77 16.77 0 0 1 16.77 16.77v10.78a6 6 0 0 1 -6 6h-21.55a6 6 0 0 1 -6-6v-10.78a16.77 16.77 0 0 1 16.77-16.77z" fill="#fff" transform="matrix(.982 -.188 .188 .982 -35.6 62.62)"/><path d="m256.19 195.57a16.77 16.77 0 0 1 16.81 16.77v10.78a6 6 0 0 1 -6 6h-21.6a6 6 0 0 1 -6-6v-10.78a16.77 16.77 0 0 1 16.79-16.77z" fill="#fff" transform="matrix(.982 -.188 .188 .982 -35.28 51.82)"/><path d="m197.74 185a16.77 16.77 0 0 1 16.77 16.77v10.78a6 6 0 0 1 -6 6h-21.51a6 6 0 0 1 -6-6v-10.82a16.77 16.77 0 0 1 16.74-16.73z" fill="#fff" transform="matrix(.982 -.188 .188 .982 -34.33 40.67)"/><path d="m143 155a14.19 14.19 0 0 1 14.19 14.19v9.13a5.07 5.07 0 0 1 -5.07 5.07h-18.29a5.07 5.07 0 0 1 -5.07-5.07v-9.13a14.19 14.19 0 0 1 14.24-14.19z" fill="#fff" transform="matrix(.982 -.188 .188 .982 -29.2 29.82)"/><g fill="#dab8ad"><rect height="7" rx="3.5" transform="matrix(.984 -.177 .177 .984 -13.99 43.99)" width="28.6" x="225.11" y="96.84"/><rect height="7" rx="3.5" transform="matrix(.984 -.177 .177 .984 -16.03 44.81)" width="28.6" x="228.67" y="108.69"/><rect height="7" rx="3.5" transform="matrix(.984 -.177 .177 .984 -15.12 53.94)" width="28.6" x="280.24" y="108.18"/><rect height="7" rx="3.5" transform="matrix(.984 -.177 .177 .984 -17.17 54.76)" width="28.6" x="283.8" y="120.03"/><rect height="7" rx="3.5" transform="matrix(.984 -.177 .177 .984 -13.86 33.55)" width="28.6" x="166.67" y="90.91"/><rect height="7" rx="3.5" transform="matrix(.984 -.177 .177 .984 -15.91 34.37)" width="28.6" x="170.23" y="102.77"/><rect height="4.97" rx="2.49" transform="matrix(.984 -.177 .177 .984 -13.78 24.43)" width="20.32" x="119.76" y="86.92"/><rect height="4.97" rx="2.49" transform="matrix(.984 -.177 .177 .984 -15.23 25.01)" width="20.32" x="122.29" y="95.34"/></g></g></svg>