<svg id="Capa_1" enable-background="new 0 0 512 512" height="512" viewBox="0 0 512 512" width="512" xmlns="http://www.w3.org/2000/svg"><g><path d="m512 256c0 141.38-114.62 256-256 256-47.27 0-91.55-12.82-129.56-35.17-15.88-9.33-4.149-51.845-17.599-64.275-11.73-10.84-22.44-22.77-31.98-35.62-4.62-6.22-8.97-12.67-13.02-19.31-7.67-12.56-40.811 5.675-46.251-8.195-11.36-28.95-17.59-60.46-17.59-93.43 0-141.38 114.62-256 256-256s256 114.62 256 256z" fill="#c8effe"/><g><path d="m320.612.102h-147.315c-25.156 0-45.55 20.393-45.55 45.55v147.314c0 25.156 20.393 45.55 45.55 45.55h147.314c25.156 0 45.55-20.393 45.55-45.55v-147.315c0-25.156-20.393-45.549-45.549-45.549z" fill="#8ac9fe"/><path d="m193.021 238.512h-19.73c-25.157 0-45.543-20.396-45.543-45.554v-147.307c0-25.157 20.386-45.554 45.543-45.554h19.73c-25.157 0-45.543 20.396-45.543 45.554v147.307c0 25.157 20.386 45.554 45.543 45.554z" fill="#60b7ff"/><path d="m173.297 205.759c-7.054 0-12.793-5.739-12.793-12.793v-147.315c0-7.054 5.739-12.793 12.793-12.793h147.315c7.054 0 12.793 5.739 12.793 12.793v147.314c0 7.054-5.739 12.793-12.793 12.793h-147.315z" fill="#60b7ff"/><path d="m273.062 111.969c3.898-5.505 6.198-12.217 6.198-19.461 0-18.619-15.148-33.766-33.766-33.766h-28.842c-6.03 0-10.919 4.888-10.919 10.919v99.293c0 2.904 1.157 5.689 3.215 7.738 2.047 2.038 4.816 3.181 7.703 3.181h.049c.266-.001 26.618-.118 33.83-.118 20.758 0 37.646-16.888 37.646-37.645.001-12.317-5.944-23.269-15.114-30.141zm-27.568-31.39c6.577 0 11.929 5.351 11.929 11.928s-5.351 11.928-11.929 11.928c-2.125 0-6.132.012-10.498.027h-7.425v-23.883zm5.036 77.337c-4.185 0-14.727.039-22.96.072v-31.659c2.424-.01 5.007-.02 7.474-.028h15.486c8.716 0 15.808 7.091 15.808 15.808.001 8.716-7.091 15.807-15.808 15.807z" fill="#554e56"/></g><g><path d="m256 283.97v147.31c0 25.16-20.39 45.55-45.55 45.55h-84.01c-49.15-28.89-87.8-73.73-108.85-127.4v-65.46c0-25.16 20.39-45.55 45.55-45.55h147.31c25.16 0 45.55 20.39 45.55 45.55z" fill="#fd4755"/><path d="m82.86 238.41c-25.16 0-45.54 20.4-45.54 45.56v105.17c-7.67-12.56-14.29-25.84-19.73-39.71v-65.46c0-25.16 20.38-45.56 45.54-45.56z" fill="#e53950"/><path d="m223.24 283.97v147.31c0 7.05-5.74 12.79-12.79 12.79h-128.13c-11.73-10.84-22.44-22.77-31.98-35.62v-124.48c0-7.06 5.74-12.8 12.8-12.8h147.31c7.05 0 12.79 5.74 12.79 12.8z" fill="#e53950"/><path d="m186.539 403.836-37.259-98.731c-.038-.101-.078-.201-.118-.301-2.045-4.968-6.79-8.152-12.209-8.169-5.373.005-10.159 3.221-12.194 8.193-.034.083-.067.166-.099.25l-37.601 98.727c-2.146 5.635.682 11.944 6.318 14.09s11.944-.682 14.09-6.318l6.686-17.555h45.341l6.613 17.524c1.65 4.373 5.805 7.067 10.217 7.067 1.281 0 2.584-.227 3.854-.706 5.642-2.13 8.49-8.429 6.361-14.071zm-64.069-31.652 14.458-37.96 14.325 37.96z" fill="#ffd15b"/></g><g><path d="m448.864 238.416h-147.314c-25.156 0-45.55 20.393-45.55 45.55v147.314c0 25.156 20.393 45.55 45.55 45.55h147.314c25.156 0 45.55-20.393 45.55-45.55v-147.315c0-25.156-20.394-45.549-45.55-45.549z" fill="#bd80e1"/><path d="m321.273 476.825h-19.73c-25.157 0-45.543-20.396-45.543-45.554v-147.306c0-25.157 20.386-45.554 45.543-45.554h19.73c-25.157 0-45.543 20.396-45.543 45.554v147.307c0 25.157 20.386 45.553 45.543 45.553z" fill="#925cb4"/><path d="m301.549 444.073c-7.054 0-12.793-5.739-12.793-12.793v-147.315c0-7.054 5.739-12.793 12.793-12.793h147.315c7.054 0 12.793 5.739 12.793 12.793v147.315c0 7.054-5.739 12.793-12.793 12.793z" fill="#925cb4"/><g><path d="m384.391 418.186c-33.395 0-60.565-27.17-60.565-60.565 0-33.396 27.169-60.565 60.565-60.565 12.136 0 23.848 3.579 33.87 10.35 4.998 3.376 6.311 10.163 2.936 15.16-3.377 4.997-10.165 6.31-15.16 2.935-6.399-4.323-13.884-6.608-21.646-6.608-21.354 0-38.727 17.373-38.727 38.728s17.373 38.727 38.727 38.727c7.977 0 14.701-2.386 19.985-7.092 1.032-.919 2.016-1.935 2.925-3.018 3.874-4.622 10.76-5.226 15.381-1.353 4.621 3.874 5.228 10.761 1.353 15.382-1.587 1.893-3.314 3.675-5.134 5.296-9.271 8.258-21.204 12.623-34.51 12.623z" fill="#fff7f3"/></g></g></g></svg>