<svg height="512" viewBox="0 0 58 58" width="512" xmlns="http://www.w3.org/2000/svg"><g id="Page-1" fill="none" fill-rule="evenodd"><g id="019---Hearty-Diet" fill-rule="nonzero"><circle id="Oval" cx="29" cy="29" fill="#3b97d3" r="29"/><circle id="Oval" cx="29" cy="29" fill="#285680" r="22.998"/><path id="Shape" d="m28.979 53.021c-8.3674605-.0182921-16.1227234-4.3886105-20.47230731-11.5367466-4.34958394-7.148136-4.66691637-16.044376-.83769269-23.4842534.1639849-.3174305.48486035-.5232634.84175566-.5399636.35689532-.0167001.69558961.1582697.88850002.459.1929104.3007304.21072924.6815331.04674432.9989636-4.38686295 8.5064222-2.77078447 18.8730957 3.9971534 25.6405769 6.767938 6.7674812 17.1347204 8.3828601 25.6408466 3.9954231.3187098-.1758979.707829-.1647098 1.0159056.0292099s.4864385.539934.4656642.9033683-.2374027.6868705-.5655698.8444218c-3.4057615 1.7649129-7.1851008 2.6873721-11.021 2.69z" fill="#fff"/><path id="Shape" d="m49.441 40.543c-.3486753-.0005006-.6719146-.1825798-.8530454-.4805166-.1811309-.2979368-.1939971-.6687075-.0339546-.9784834 4.3884414-8.5065724 2.7730927-18.8744614-3.9952229-25.6427771-6.7683157-6.76831558-17.1362047-8.38366434-25.6427771-3.9952229-.3187098.17589794-.707829.16470975-1.0159056-.02920993s-.4864385-.53993398-.4656642-.90336827.2374027-.68687051.5655698-.8444218c9.2794905-4.78562963 20.5883317-3.02291293 27.9711223 4.3598777 7.3827906 7.3827906 9.1455073 18.6916318 4.3598777 27.9711223-.1713816.333563-.5149855.5432-.89.543z" fill="#fff"/><path id="Shape" d="m29 14.7c1.314809-1.704977 3.346941-2.7025691 5.5-2.7 3.256 0 5.5 2.772 5.5 6 0 3.736-3.059 8.158-11 12-7.941-3.842-11-8.264-11-12 0-3.228 2.244-6 5.5-6 2.153059-.0025691 4.185191.995023 5.5 2.7z" fill="#ff5364"/><path id="Shape" d="m29 47c-.6479581-.000627-1.2222692-.4172445-1.424-1.033l-3.634-10.961-1.883 5.023c-.2201096.5863339-.7797175.9755917-1.406.978h-5.653c-.5522847 0-1-.4477153-1-1s.4477153-1 1-1h5.306l2.261-6.029c.2215643-.5971916.7961324-.9893254 1.433-.978.6413864.0059398 1.2062626.4235447 1.4 1.035l3.6 10.872 3.6-10.875c.1999602-.6045981.7598757-1.0170411 1.3965751-1.0287402.6366993-.0116991 1.2113888.3798961 1.4334249.9767402l2.26 6.027h4.31c.5522847 0 1 .4477153 1 1s-.4477153 1-1 1h-4.653c-.6276629-.00262-1.1880707-.3937504-1.407-.982l-1.882-5.019-3.634 10.962c-.2020796.6153602-.7763086 1.031515-1.424 1.032z" fill="#ff5364"/><g fill="#fff"><path id="Shape" d="m10.97 36c-.430873-.0000395-.813275-.2760621-.949-.685-1.35103471-4.1016096-1.35103471-8.5283904 0-12.63.1739697-.5246705.7403295-.8089697 1.265-.635s.8089697.7403295.635 1.265c-1.2159911 3.6924648-1.2159911 7.6775352 0 11.37.0834745.2518216.0634622.5264929-.0556318.7635556s-.3275082.4170859-.5793682.5004444c-.1018395.0341506-.2085877.0513789-.316.051z"/><path id="Shape" d="m47.03 36c-.1067414.000161-.2127965-.0170645-.314-.051-.25186-.0833585-.4602742-.2633817-.5793682-.5004444s-.1391063-.511734-.0556318-.7635556c1.2159911-3.6924648 1.2159911-7.6775352 0-11.37-.1739697-.5246705.1103295-1.0910303.635-1.265s1.0910303.1103295 1.265.635c1.3510347 4.1016096 1.3510347 8.5283904 0 12.63-.1359563.4096376-.5193909.6858234-.951.685z"/><path id="Shape" d="m22.708 21.176c-.3515437.0000738-.6773065-.1844492-.858-.486-.5219752-.8030204-.8157886-1.7328535-.85-2.69 0-1.491.858-3 2.5-3 .5522847 0 1 .4477153 1 1s-.4477153 1-1 1c-.377 0-.5.744-.5 1 .0353653.5945907.2301854 1.1686881.564 1.662.184963.3086746.1898166.6929245.0127094 1.0061725-.1771073.3132481-.5088609.5071836-.8687094.5078275z"/></g></g></g></svg>