<svg id="Layer_1" enable-background="new 0 0 511.21 511.21" height="512" viewBox="0 0 511.21 511.21" width="512" xmlns="http://www.w3.org/2000/svg"><g><path d="m394.543 398.802c53.312 0 99.668-37.051 110.875-89.171.07-.327.14-.655.209-.982 3.605-17.093 5.497-34.802 5.497-52.939 0-180.042-180.608-302.211-346.694-238.725-.004.002-.008.003-.013.005-41.272 15.778-75.588 40.805-102.009 71.568v310.243h332.135z" fill="#05cdff"/><path d="m485.129 327.401v.011c-9.004 7.39-18.513 14.171-28.465 20.284l-.004-.001c-112.032 68.822-261.017 41.66-340.555-68.097l-1.234-.247c-43.918-61.567-56.03-135.252-41.357-202.887-83.696 85.519-100.502 224.504-26.137 328.752l1.234.247 340.555 68.097.004.001c9.951-6.113 19.46-12.894 28.465-20.284v-.011c44.244-36.333 75.832-86.98 87.977-144.621-6.477 6.607-13.314 12.869-20.483 18.756z" fill="#06acff"/><path d="m261.874 360.797-118.085 2.268c-42.007 7.772-76.235 22.744-95.719 41.658 46.38 64.486 122.058 106.487 207.554 106.487 48.953 0 94.683-13.777 133.545-37.65v-32.517c-.001-37.836-53.627-69.816-127.295-80.246z" fill="#f73c9a"/><path d="m143.789 363.066c-8.062 11.7-12.792 25.874-12.792 41.157 0 40.118 32.522 72.639 72.639 72.639 40.118 0 72.639-32.522 72.639-72.639 0-16.28-5.356-31.308-14.402-43.42-16.485-2.334-33.97-3.594-52.086-3.594-23.304-.001-45.57 2.077-65.998 5.857z" fill="#e0248b"/><path d="m207.076 346.107v103.352c25.372-1.94 45.359-23.126 45.359-48.995v-54.357z" fill="#ffbe82"/><path d="m208.191 449.119v-56.719c0-24.435 19.809-44.244 44.244-44.244v-48.656h-98.311v100.964c0 27.148 22.008 49.155 49.155 49.155 1.66 0 3.3-.085 4.918-.245 0-.086-.006-.17-.006-.255z" fill="#ff965a"/><g><path d="m271.269 209.74h115.948v-84.575h-175.43v195.752h127.822c25.363-16.264 43.136-43.319 46.868-74.682h-115.208c-10.23 0-17.805-8.361-18.248-18.248-.441-9.854 8.703-18.247 18.248-18.247z" fill="#ffbe82"/><path d="m255.218 137.379c.12-.002.241-.003.361-.003.163-.001.326-.001.488-.001h83.368c17.027 0 33.2-3.654 47.781-10.217v-106.313s-83.601-1.096-112.058-1.918c-23.271-.673-35.479 7.07-37.199 6.313-.972-.428-2.149-.095-2.567.882-.757 1.773-8.332 2.636-24.283 13.495-34.716 23.603-56.986 63.398-56.986 107.596v159.85 30.133h129.804c21.5 0 41.465-6.572 57.999-17.813h-68.702c-26.814 0-48.55-21.737-48.55-48.55v-57.447c0-1.236 1.002-2.239 2.239-2.239 1.002 0 1.865.672 2.153 1.632 6.09 20.337 24.942 35.159 47.261 35.159h54.006 32.817 23.115c.623-4.589.953-9.272.953-14.031v-84.632h-24.067-32.817-54.006c-18.831 0-35.192 10.554-43.505 26.066l-8.147-6.628c-.001-16.998 13.545-31.108 30.542-31.334z" fill="#ff965a"/><path d="m170.385 11.023c-20.377 0-37.479 14.005-42.217 32.913v217.438c0 19.984 16.03 36.489 36.014 36.59.132.001.263.001.395.001v-78.922c0-11.382 2.081-22.277 5.881-32.327 2.441-6.457 12.032-4.688 12.032 2.215v31.208c15.887 0 28.765-12.879 28.765-28.765v-18.976c0-24.652 19.899-44.773 44.551-44.844h.261 83.368c64.357 0 116.53-52.172 116.53-116.53h-285.58z" fill="#783c28"/><g fill="#5a2d19"><path d="m382.156 107.414h-83.368c-.163 0-.326.001-.488.001-15.433.081-28.953 8.099-36.882 20.138h78.019c26.266 0 50.501-8.693 69.989-23.355-8.75 2.097-17.879 3.216-27.27 3.216z"/><path d="m130.175 200.704v-124.2c0-22.328 17.417-40.58 39.404-41.932v-.162c0-8.611 2.511-16.631 6.825-23.387h-6.019c-24.039 0-43.526 19.487-43.526 43.526v.161c-21.987 1.352-39.404 19.604-39.404 41.932v124.2c0 42.593 34.529 77.122 77.122 77.122v-33.054c-20.736-13.823-34.402-37.415-34.402-64.206z"/></g><path d="m140.75 206.912c0 20.74 15.127 37.947 34.949 41.19 3.56.583 6.791-2.198 6.791-5.806v-70.769c0-3.608-3.23-6.388-6.791-5.806-19.822 3.244-34.949 20.451-34.949 41.191z" fill="#ff965a"/><path d="m172.491 198.687v-5.277c0-1.937-1.807-3.344-3.697-2.921-7.517 1.685-13.133 8.398-13.133 16.423 0 8.964 7.013 16.27 15.849 16.781 2.064.209 4.318-.232 6.566-1.559 1.025-.605 1.886-1.48 2.477-2.513 3.316-5.795.868-11.684-3.698-14.02-2.63-1.345-4.364-3.961-4.364-6.914z" fill="#ffbe82"/><path d="m276.327 139.647c-15.448 0-29.231 7.105-38.277 18.22v56.976c0 3.552 1.35 7.009 3.893 9.489.044.043.087.085.131.127 2.467 2.388 5.811 3.654 9.245 3.654h71.777v-88.466z" fill="#927e8f"/><g><path d="m287.123 226.533c-27.245 0-49.332-22.087-49.332-49.332 0-9.964 2.964-19.232 8.044-26.988-11.469 9.033-18.841 23.034-18.841 38.765 0 27.245 22.087 49.332 49.332 49.332h86.823v-11.777z" fill="#695a6e"/></g><g><path d="m416.638 238.31h-108.77c-15.124 0-27.384-12.26-27.384-27.384v-43.895c0-15.124 12.26-27.384 27.384-27.384h108.77z" fill="#695a6e"/></g><path d="m241.266 206.912c-3.512 0-6.36-2.847-6.36-6.36v-28.548c0-3.512 2.847-6.36 6.36-6.36 3.512 0 6.36 2.847 6.36 6.36v28.548c-.001 3.513-2.848 6.36-6.36 6.36z" fill="#695a6e"/><path d="m439.103 222.459v-40.39l-23.846-42.422h-71.565v82.812z" fill="#453d49"/><path d="m372.408 221.822c-15.124 0-27.384-12.26-27.384-27.384v-43.895c0-3.873.809-7.556 2.259-10.896h-16.95c-15.124 0-27.384 12.26-27.384 27.384v43.895c0 15.124 12.26 27.384 27.384 27.384h14.12l26.573-5.376 27.647 5.376h40.43v-16.488z" fill="#2b282d"/><path d="m112.635 169.543h129.472v22.17h-129.472z" fill="#594d5e"/><path d="m115.312 169.543h-35.63v33.124h162.424v-12.77h-106.44c-11.241.001-20.354-9.112-20.354-20.354z" fill="#453d49"/><ellipse cx="353.364" cy="275.752" fill="#ff965a" rx="13.897" ry="22.681"/><path d="m405.441 159.916c-9.893 1.413-33.212 7.773-27.559 30.781s-13.779 15.151-29.321 23.277c-9.703 5.073-7.29 16.481-4.108 24.337h54.22c-.19-5.103 1.427-9.963 6.885-12.817 15.542-8.126 34.974-.27 29.321-23.277-2.227-9.064.051-15.535 4.224-20.147v-42.423h-23.846c5.15 10.127-1.816 19.126-9.816 20.269z" fill="#695a6e"/><path d="m176.566 142.881c-21.217-.071-39.215 13.761-45.4 32.903-2.55 7.893.463 16.526 7.296 21.228l54.942 37.804c18.277-7.001 31.128-24.962 30.512-45.84-.751-25.449-21.89-46.01-47.35-46.095z" fill="#ffc305"/><path d="m188.744 216.732c6.028-4.181 9.893-11.363 9.302-19.485-.818-11.24-10.431-20.098-21.701-20.068-6.729.018-12.493 3.007-16.378 7.544-4.62 5.394-13.493 2.077-13.741-5.021-.008-.217-.014-.435-.018-.652-.19-8.957-12.926-10.577-15.437-1.977-1.236 4.232-1.898 8.708-1.898 13.34 0 26.077 20.687 47.113 46.76 47.527 6.27.1 12.266-1.016 17.77-3.127 4.881-1.872 3.551-9.062-1.672-9.28-.22-.009-.44-.02-.66-.032-4.586-.255-6.101-6.152-2.327-8.769z" fill="#fa870a"/><g fill="#453d49"><circle cx="176.405" cy="190.414" r="21.7"/><path d="m182.852 12.78v142.17c0 3.561-2.886 6.447-6.447 6.447-3.561 0-6.447-2.886-6.447-6.447v-142.17c0-3.184-2.581-5.766-5.766-5.766h-17.175c-3.356 0-6.003 2.855-5.749 6.202l13.437 177.197h43.401l13.437-177.197c.254-3.347-2.393-6.202-5.749-6.202h-17.175c-3.186 0-5.767 2.582-5.767 5.766z"/></g></g></g></svg>