<?xml version="1.0" encoding="UTF-8"?>
<svg xmlns="http://www.w3.org/2000/svg" viewBox="0 0 512 512" width="512" height="512"><g id="ouline"><path d="M88.04,104.8a7.968,7.968,0,0,0,.47,2.013l24,64a7.994,7.994,0,0,0,2.69,3.591L144,196V320a8,8,0,0,0,8,8h72v72a8,8,0,0,0,8,8h84.579l.4.891A107.293,107.293,0,0,0,352,452.177V488a8,8,0,0,0,8,8h64a8,8,0,0,0,7.96-8.8l-8-80a7.968,7.968,0,0,0-.47-2.013l-24-64a7.994,7.994,0,0,0-2.69-3.591L368,316V192a8,8,0,0,0-8-8H288V112a8,8,0,0,0-8-8H195.421l-.4-.891A107.293,107.293,0,0,0,160,59.823V24a8,8,0,0,0-8-8H88a8,8,0,0,0-7.96,8.8ZM240,392V328h16v24a8,8,0,0,0,8,8,8.009,8.009,0,0,1,8,8,8,8,0,0,0,8,8h22.356l7.112,16Zm128-8V336l17.33,13,22.814,60.835L415.16,480H368V448a8,8,0,0,0-3.562-6.656A91.325,91.325,0,0,1,331.6,402.393l-2.446-5.5-.006-.015L316.531,368.5a7.246,7.246,0,0,1,12.835-6.672l15.774,26.289A8,8,0,0,0,352,392h8A8,8,0,0,0,368,384ZM288,200h64V368.451L343.087,353.6a23.117,23.117,0,0,0-7.087-7.4V240a8,8,0,0,0-8-8,8.009,8.009,0,0,1-8-8,8,8,0,0,0-8-8H288Zm0,32h17.371A24.115,24.115,0,0,0,320,246.629v17.393a39.744,39.744,0,0,0-32-7.2Zm0,41.371A23.786,23.786,0,0,1,296,272a24,24,0,1,1-8,46.611ZM296,336a39.788,39.788,0,0,0,24-8.022v14.528A23.3,23.3,0,0,0,300.586,360H286.629A24.115,24.115,0,0,0,272,345.371V328h.01A39.959,39.959,0,0,0,296,336ZM272,120V312H160V143.549l8.913,14.856a23.117,23.117,0,0,0,7.087,7.4V272a8,8,0,0,0,8,8,8.009,8.009,0,0,1,8,8,8,8,0,0,0,8,8h32a8,8,0,0,0,8-8,8.009,8.009,0,0,1,8-8,8,8,0,0,0,8-8V160a8,8,0,0,0-8-8,8.009,8.009,0,0,1-8-8,8,8,0,0,0-8-8H209.644l-7.112-16ZM216,256a39.788,39.788,0,0,0,24-8.022v17.393A24.115,24.115,0,0,0,225.371,280H206.629A24.115,24.115,0,0,0,192,265.371V247.978A39.788,39.788,0,0,0,216,256Zm-24-40a24,24,0,1,1,24,24A24.028,24.028,0,0,1,192,216Zm19.414-64h13.957A24.115,24.115,0,0,0,240,166.629v17.393a39.912,39.912,0,0,0-48,0V169.493A23.3,23.3,0,0,0,211.414,152ZM144,32V64a8,8,0,0,0,3.562,6.656A91.325,91.325,0,0,1,180.4,109.607L195.469,143.5a7.246,7.246,0,0,1-12.835,6.672L166.86,123.884A8,8,0,0,0,160,120h-8a8,8,0,0,0-8,8v48l-17.33-13-22.814-60.835L96.84,32Z"/><path d="M317.217,106.937A176.232,176.232,0,0,1,425.145,320.783l-1.465-5.023a8,8,0,0,0-15.36,4.48l7,24a7.994,7.994,0,0,0,9.547,5.539l25-6a8,8,0,1,0-3.734-15.558l-7.028,1.687A192.135,192.135,0,0,0,322.783,91.936a8,8,0,0,0-5.566,15Z"/><path d="M68.333,210.272l6.914-3.168A190.78,190.78,0,0,0,64,272c0,105.869,86.131,192,192,192a191.924,191.924,0,0,0,58.433-9.056,8,8,0,0,0-4.866-15.242A175.942,175.942,0,0,1,256,448c-97.047,0-176-78.953-176-176a174.969,174.969,0,0,1,9.655-57.628l1.96,4.7a8,8,0,0,0,14.77-6.154l-10-24a8,8,0,0,0-10.718-4.195l-24,11a8,8,0,0,0,6.666,14.544Z"/></g></svg>
