<?xml version="1.0" encoding="iso-8859-1"?>
<!-- Generator: Adobe Illustrator 19.0.0, SVG Export Plug-In . SVG Version: 6.00 Build 0)  -->
<svg version="1.1" id="Capa_1" xmlns="http://www.w3.org/2000/svg" xmlns:xlink="http://www.w3.org/1999/xlink" x="0px" y="0px"
	 viewBox="0 0 464.005 464.005" style="enable-background:new 0 0 464.005 464.005;" xml:space="preserve">
<g>
	<g>
		<path d="M463.163,420.427l-26.704-53.416c18.04-25.704,27.544-55.68,27.544-87.008c0-83.816-68.184-152-152-152h-18.824
			c-22.36-56.152-77.152-96-141.176-96c-83.816,0-152,68.184-152,152c0,31.328,9.504,61.304,27.544,87.008L0.843,324.427
			c-1.536,3.08-0.936,6.8,1.504,9.232c1.536,1.536,3.584,2.344,5.656,2.344c1.216,0,2.44-0.272,3.576-0.84l53.416-26.704
			c25.704,18.04,55.68,27.544,87.008,27.544c6.232,0,12.352-0.496,18.392-1.224c22.528,58.36,78.64,97.224,141.608,97.224
			c31.328,0,61.304-9.504,87.008-27.544l53.416,26.704c1.136,0.568,2.36,0.84,3.576,0.84c2.072,0,4.12-0.808,5.656-2.344
			C464.099,427.219,464.699,423.499,463.163,420.427z M152.003,320.003c-29.504,0-57.656-9.432-81.44-27.272
			c-1.416-1.064-3.104-1.6-4.808-1.6c-1.216,0-2.448,0.28-3.576,0.84l-36.296,18.152l18.152-36.296
			c1.352-2.712,1.064-5.952-0.76-8.384c-17.84-23.784-27.272-51.936-27.272-81.44c0-74.992,61.008-136,136-136s136,61.008,136,136
			S226.995,320.003,152.003,320.003z M401.827,387.971c-2.72-1.344-5.96-1.064-8.384,0.76c-23.784,17.84-51.944,27.272-81.44,27.272
			c-55.304,0-104.704-33.48-125.576-84.08c67.264-15.664,117.576-75.96,117.576-147.92c0-13.864-2.024-27.232-5.52-40h13.52
			c74.992,0,136,61.008,136,136c0,29.504-9.432,57.656-27.272,81.44c-1.824,2.432-2.112,5.672-0.76,8.384l18.152,36.296
			L401.827,387.971z"/>
	</g>
</g>
<g>
	<g>
		<path d="M88.003,160.003c-13.232,0-24,10.768-24,24s10.768,24,24,24s24-10.768,24-24S101.235,160.003,88.003,160.003z
			 M88.003,192.003c-4.416,0-8-3.584-8-8s3.584-8,8-8s8,3.584,8,8S92.419,192.003,88.003,192.003z"/>
	</g>
</g>
<g>
	<g>
		<path d="M152.003,160.003c-13.232,0-24,10.768-24,24s10.768,24,24,24s24-10.768,24-24S165.235,160.003,152.003,160.003z
			 M152.003,192.003c-4.416,0-8-3.584-8-8s3.584-8,8-8s8,3.584,8,8S156.419,192.003,152.003,192.003z"/>
	</g>
</g>
<g>
	<g>
		<path d="M216.003,160.003c-13.232,0-24,10.768-24,24s10.768,24,24,24s24-10.768,24-24S229.235,160.003,216.003,160.003z
			 M216.003,192.003c-4.416,0-8-3.584-8-8s3.584-8,8-8s8,3.584,8,8S220.419,192.003,216.003,192.003z"/>
	</g>
</g>
<g>
	<g>
		<path d="M312.003,256.003c-13.232,0-24,10.768-24,24s10.768,24,24,24s24-10.768,24-24S325.235,256.003,312.003,256.003z
			 M312.003,288.003c-4.416,0-8-3.584-8-8c0-4.416,3.584-8,8-8c4.416,0,8,3.584,8,8
			C320.003,284.419,316.419,288.003,312.003,288.003z"/>
	</g>
</g>
<g>
	<g>
		<path d="M376.003,256.003c-13.232,0-24,10.768-24,24s10.768,24,24,24s24-10.768,24-24S389.235,256.003,376.003,256.003z
			 M376.003,288.003c-4.416,0-8-3.584-8-8c0-4.416,3.584-8,8-8c4.416,0,8,3.584,8,8
			C384.003,284.419,380.419,288.003,376.003,288.003z"/>
	</g>
</g>
<g>
</g>
<g>
</g>
<g>
</g>
<g>
</g>
<g>
</g>
<g>
</g>
<g>
</g>
<g>
</g>
<g>
</g>
<g>
</g>
<g>
</g>
<g>
</g>
<g>
</g>
<g>
</g>
<g>
</g>
</svg>
