<svg height="512" viewBox="0 0 512 512" width="512" xmlns="http://www.w3.org/2000/svg"><g id="BULINE"><circle cx="256" cy="256" fill="#9cc753" r="256"/></g><g id="Icons"><path d="m291.38 299.33h-70.76a96.78 96.78 0 0 0 -96.62 96.67v1.07a95.62 95.62 0 0 0 95.51 95.51h73.08a95.62 95.62 0 0 0 95.51-95.51v-1.07a96.78 96.78 0 0 0 -96.72-96.67zm56.67 97.74a55.42 55.42 0 0 1 -19.34 42.07 19.12 19.12 0 0 1 -26.7-1.93c-8.86-10-26.14-16.88-46-16.88s-37.15 6.83-46 16.88a19.12 19.12 0 0 1 -26.7 1.93 55.42 55.42 0 0 1 -19.31-42.07v-1.07a56.67 56.67 0 0 1 56.67-56.67h70.76a56.67 56.67 0 0 1 56.62 56.67z" fill="#fff"/><rect fill="#5289be" height="76.5" rx="28" width="307" x="102.5" y="218.96"/><path d="m409.5 265.46v2a28 28 0 0 1 -28 28h-251a28 28 0 0 1 -28-28v-20.46a28 28 0 0 1 28-28v18.5a28 28 0 0 0 28 28z" fill="#4b7da1"/><path d="m190.5 295.46h131a0 0 0 0 1 0 0v16.25a38.25 38.25 0 0 1 -38.25 38.29h-54.5a38.25 38.25 0 0 1 -38.25-38.25v-16.29a0 0 0 0 1 0 0z" fill="#7eccc8"/><path d="m321.5 295.46v16.25c0 1 0 2.07-.12 3.08h-82a16.26 16.26 0 0 0 -16.21 16.21 37.93 37.93 0 0 0 5 18.91 38.24 38.24 0 0 1 -37.67-38.24v-16.21z" fill="#6caca7"/><path d="m307.34 181.94-2.67-23.46a39.59 39.59 0 0 1 9-29.74 71 71 0 1 0 -109.38-.05 39.66 39.66 0 0 1 9.08 29.79l-2.66 23.46a40 40 0 0 0 -24.83 37h146.29a40 40 0 0 0 -24.83-37z" fill="#f0c997"/><path d="m332.17 219h-146.25a40 40 0 0 1 24.83-37l2.66-23.47a39.66 39.66 0 0 0 -9.08-29.79 71 71 0 0 1 48.27-115.98 71 71 0 0 0 -1.83 92.6 39.7 39.7 0 0 1 9.08 29.79 52.26 52.26 0 0 1 -15.32 31.74 40.45 40.45 0 0 0 -6.72 8.55 13.37 13.37 0 0 0 11.48 20.19h75.38a39.9 39.9 0 0 1 7.5 23.37z" fill="#d7b389"/></g></svg>