<svg height="512" viewBox="0 0 512 512" width="512" xmlns="http://www.w3.org/2000/svg"><g id="BULINE"><circle cx="256" cy="256" fill="#8be3df" r="256"/></g><g id="Icons"><path d="m498.75 337.5c-34.04 101.42-129.86 174.5-242.75 174.5s-208.71-73.08-242.75-174.5z" fill="#cf5151"/><ellipse cx="252.65" cy="392.5" fill="#b24a4a" rx="198.67" ry="56.5"/><path d="m372.85 312.4c13.9 8.5 30.54 8.22 40.57-1.8 9.68-9.69 10.27-25.57 2.59-39.18a45.75 45.75 0 0 0 -7.55-9.94c-14.93-14.94-75.56-55.78-87.74-43.59a6.6 6.6 0 0 0 -.64.76c-17.07-26-39.31-46-63.63-46-53.83 0-97.47 97.92-97.47 142.52s43.64 80.75 97.47 80.75a111.06 111.06 0 0 0 57.3-15.42c12.42 17.63 29.14 34.77 41.31 43 .4.27.8.54 1.2.79a56.17 56.17 0 0 0 11 5.56c18.36 6.77 34.26-.15 38.11-18.45 1.78-8.46.72-18.15-2.54-27.77a83.88 83.88 0 0 0 -17.72-29.46 74.8 74.8 0 0 0 -13.11-11.33 103.81 103.81 0 0 0 -20.36-10.33 67.62 67.62 0 0 0 2.26-17.35 119.35 119.35 0 0 0 -3.63-26.69 156 156 0 0 0 14 17.17 46.18 46.18 0 0 0 8.58 6.76z" fill="#b18160"/><g fill="#eac1a0"><ellipse cx="255" cy="299" rx="73.43" ry="83.13"/><path d="m372.41 306.74a36.33 36.33 0 0 0 .44 5.66c13.9 8.5 30.54 8.22 40.57-1.8 9.68-9.69 10.27-25.57 2.59-39.18a35.58 35.58 0 0 0 -7.49-.78 36.11 36.11 0 0 0 -36.11 36.1z"/><path d="m355.86 418.8a37.69 37.69 0 0 0 .4 5.45 56.17 56.17 0 0 0 11 5.56c18.36 6.77 34.26-.15 38.11-18.45 1.78-8.46.72-18.15-2.54-27.77a36.7 36.7 0 0 0 -46.95 35.21z"/></g><path d="m294.33 378.49c-31.39 0-59.31-12.3-77.14-31.38a78.4 78.4 0 0 1 -14.19-21.05 68.58 68.58 0 0 1 -6.16-28.32c0-32.91 23.75-94.83 57.82-125.06-22.79 1.07-43.66 19.51-60 43.68-16.29-6.24-71.19 31-85.3 45.12a45.49 45.49 0 0 0 -7.56 9.94c-7.68 13.61-7.09 29.49 2.59 39.18 10 10 26.67 10.3 40.57 1.8a45.53 45.53 0 0 0 8.55-6.76 107.92 107.92 0 0 0 7.65-8.78 103.31 103.31 0 0 0 -1.87 18.31 67.42 67.42 0 0 0 2.38 17.83 102.88 102.88 0 0 0 -19.23 9.9 75.16 75.16 0 0 0 -13.07 11.28 83.83 83.83 0 0 0 -17.72 29.47c-3.26 9.62-4.32 19.31-2.54 27.77 3.85 18.3 19.75 25.21 38.11 18.44a56.17 56.17 0 0 0 11-5.56l1.2-.78c12-8.12 28.55-25 40.94-42.45a111.35 111.35 0 0 0 56.42 14.9c25.06 0 47.93-7.84 65.19-20.73a115.37 115.37 0 0 1 -27.64 3.25z" fill="#a57559"/><path d="m280.2 377.5a65.53 65.53 0 0 1 -24.2 4.63c-40.55 0-73.43-37.21-73.43-83.14 0-29.36 13.45-55.17 33.75-69.94-11.62 25-18.46 51-18.46 68.69a68.58 68.58 0 0 0 6.14 28.32 78.4 78.4 0 0 0 14.17 21.05c14.93 15.95 36.88 27.16 62.03 30.39z" fill="#d4ac91"/><path d="m145.4 306.74a36.33 36.33 0 0 1 -.44 5.66c-13.9 8.5-30.54 8.22-40.57-1.8-9.68-9.69-10.27-25.57-2.59-39.18a35.58 35.58 0 0 1 7.49-.78 36.11 36.11 0 0 1 36.11 36.1z" fill="#eac1a0"/><path d="m158.6 418.8a37.69 37.69 0 0 1 -.4 5.45 56.17 56.17 0 0 1 -11 5.56c-18.36 6.77-34.26-.15-38.11-18.45-1.78-8.46-.72-18.15 2.54-27.77a36.7 36.7 0 0 1 46.97 35.21z" fill="#eac1a0"/><path d="m376.65 87.14c11-11 8.23-31.6-6.19-46s-35-17.18-46-6.19c-6.95 7-11.32 20.65-10 33.43-16.38-14.89-36.4-24.38-58.01-24.38-55.55 0-100.58 62.75-100.58 118.3s45 70.16 100.58 70.16 100.55-14.62 100.55-70.16c0-22.45-7.36-46.08-19.79-66.27 14.28 3.75 31.4-.84 39.44-8.89z" fill="#b18160"/><path d="m198.67 162.3c0-48.21 33.91-101.85 79.18-115.18a75.63 75.63 0 0 0 -21.4-3.12c-20.47 0-39.51 8.53-55.39 22.07.62-12.09-3.64-24.59-10.17-31.12-11-11-31.59-8.22-46 6.19s-17.19 35-6.19 46c7.52 7.52 23 12 36.58 9.53-12.2 20-19.41 43.41-19.41 65.63 0 55.55 45 70.16 100.58 70.16 7.34 0 14.5-.26 21.4-.83-45.27-3.75-79.18-21.13-79.18-69.33z" fill="#a57559"/><ellipse cx="256.45" cy="182.44" fill="#eac1a0" rx="72.76" ry="44.21"/><ellipse cx="256.45" cy="150.3" fill="#634c35" rx="29.04" ry="18.27"/><path d="m280.57 183.27a6.86 6.86 0 0 0 -9.72 0 20.27 20.27 0 0 1 -7.52 4.75v-20.02l1.38-.22-1.38-.29-7.79-2.62c-7-3.33-11.62-8.63-11.62-14.6 0-8.28 8.77-15.28 20.79-17.52a45.68 45.68 0 0 0 -8.25-.75c-16 0-29 8.18-29 18.27 0 8.6 9.45 15.8 22.16 17.74v20a20.36 20.36 0 0 1 -7.51-4.75 6.88 6.88 0 1 0 -9.73 9.72 34.1 34.1 0 0 0 48.25 0 6.87 6.87 0 0 0 -.06-9.71z" fill="#53402e"/><circle cx="286.11" cy="122.4" fill="#4a3a2a" r="11.46"/><circle cx="288.91" cy="119.09" fill="#fff" r="4.08"/><circle cx="227.41" cy="122.4" fill="#4a3a2a" r="11.46"/><circle cx="230.21" cy="119.09" fill="#fff" r="4.08"/><path d="m183.25 75.46c6.56-6.57 4.48-19.3-.53-24.31s-14.4-3.74-21 2.82-7.83 16-2.82 21 17.78 7.03 24.35.49z" fill="#976751"/><path d="m332.1 75.46c-6.56-6.57-4.48-19.3.53-24.31s14.39-3.74 21 2.82 7.83 16 2.82 21-17.78 7.03-24.35.49z" fill="#976751"/><path d="m308.42 266.34a33.5 33.5 0 0 0 -47.37 0 8.56 8.56 0 0 1 -12.1 0 33.5 33.5 0 0 0 -47.37 0 33.51 33.51 0 0 0 0 47.38l6 6 39.31 39.32a11.4 11.4 0 0 0 16.12 0l39.31-39.32 6.05-6a33.51 33.51 0 0 0 .05-47.38z" fill="#d14a74"/><path d="m287.09 283.56a20.14 20.14 0 0 0 -28.46 0 5.12 5.12 0 0 1 -7.26 0 20.14 20.14 0 0 0 -28.46 0 20.12 20.12 0 0 0 0 28.46l3.63 3.63 23.62 23.62a6.85 6.85 0 0 0 9.68 0l23.62-23.62 3.63-3.63a20.12 20.12 0 0 0 0-28.46z" fill="#ab4268"/></g></svg>