<svg height="512" viewBox="0 0 512 512" width="512" xmlns="http://www.w3.org/2000/svg"><g id="BULINE"><circle cx="256" cy="256" fill="#8be3df" r="256"/></g><g id="Icons"><path d="m507.78 302.52a253.08 253.08 0 0 1 -11.51 42q-3 8.21-6.59 16.14a256.25 256.25 0 0 1 -51.2 74.88 93.57 93.57 0 0 1 -87.48-17.86 70.9 70.9 0 0 1 -106.74-4.79 93.59 93.59 0 0 1 -121.78 7.91 78.57 78.57 0 0 1 -45.08 18.59 256.51 256.51 0 0 1 -55.06-78.72q-2.7-6-5.07-12.13a252.94 252.94 0 0 1 -10.41-33.45 78.95 78.95 0 0 1 88.84-29.5 75.92 75.92 0 0 1 8.75 3.42 94 94 0 0 1 28.4-24.64 93.7 93.7 0 0 1 130.78 42.1l.4.87.91-.52a70.58 70.58 0 0 1 27.53-8.74 72 72 0 0 1 7.23-.36 70.66 70.66 0 0 1 28 5.77 94.27 94.27 0 0 1 23.83-29.7 93.33 93.33 0 0 1 26-15.25q2.52-1 5.1-1.79a93.58 93.58 0 0 1 109.09 41.64 70.46 70.46 0 0 1 16.06 4.13z" fill="#d4fff8"/><path d="m418.79 161.12h-97a82.92 82.92 0 0 0 12.48-43.5c0-52.33-50.15-94.75-112-94.75s-112 42.42-112 94.75c0 21.72 8.64 41.73 23.17 57.71a89.52 89.52 0 0 0 -41.17 75.4v10.27a89.61 89.61 0 0 0 89.61 89.61h131.33a135.08 135.08 0 0 0 135.08-135.07v-24.92a29.5 29.5 0 0 0 -29.5-29.5z" fill="#efc32e"/><g fill="#d6ae2a"><path d="m162.42 199a126.68 126.68 0 0 0 59.87 14.66c34.37 0 65.13-13.1 85.67-33.72a129.93 129.93 0 0 1 -113.38.4 111.1 111.1 0 0 1 -26.5-18.12c-18.14-16.84-29.2-39.23-29.2-63.81 0-23.25 9.9-44.55 26.33-61-32.88 16.5-54.92 46.84-54.92 81.53 0 21.37 8.36 41.08 22.47 56.93a89.48 89.48 0 0 0 -40.47 74.93v10.2a89.63 89.63 0 0 0 80.17 89.12 89.52 89.52 0 0 1 -39.61-74.37v-10.27a89.38 89.38 0 0 1 29.57-66.48z"/><path d="m402 222.48c4.36 24.89-35.48 52.66-89 62s-100.41-3.2-104.77-28.09c0-.09 0-.18-.05-.26-1.89-11.63 11.62-19.26 20.92-12 17.52 13.63 54 19 94.15 11.93 34.55-6 63.4-19.78 78.33-35.45q.27.92.42 1.87z"/><path d="m349.73 298c0 16.3-28.4 29.51-63.44 29.51s-63.45-13.2-63.45-29.51a1 1 0 0 1 0-.17c.09-7.6 9.52-10.94 14.62-5.31 9.61 10.62 32.19 18.06 58.49 18.06 22.63 0 42.48-5.51 53.71-13.8.05.42.07.82.07 1.22z"/></g><path d="m118.31 122.94c-5.89 7.3-19.38 19.71-44 21.47a3.6 3.6 0 0 0 -2.77 5.6c8 11.91 30.72 37.91 68.59 18.94a5.58 5.58 0 0 0 3.07-4.74c.57-15.56-5.38-29.23-16.28-41.47a5.62 5.62 0 0 0 -8.61.2z" fill="#c7822b"/><path d="m122.55 174.94c-27.44 4.77-44.4-15-51-24.92a3.61 3.61 0 0 1 2.78-5.61c24.64-1.75 38.14-14.17 44-21.46a5.61 5.61 0 0 1 8.58-.2q2 2.25 3.78 4.57c-7.17 7.07-19.87 15.66-40 17.09a3.61 3.61 0 0 0 -2.85 5.59c5.21 7.8 16.75 21.63 34.71 24.94z" fill="#ac6e28"/><circle cx="183.29" cy="121.62" fill="#4a3a2a" r="31"/><circle cx="172.29" cy="110.12" fill="#fff" r="10"/><path d="m496.27 344.53q-3 8.21-6.59 16.14a256.25 256.25 0 0 1 -51.2 74.88q-9 9.17-19 17.41h-327.01q-7.81-6.48-15.09-13.57a256.51 256.51 0 0 1 -55.06-78.72q-2.7-6-5.07-12.13a78.93 78.93 0 0 1 87.21-14.15 93 93 0 0 1 11.63-12.57 93.59 93.59 0 0 1 147 28.81q.51 1 1 2.1 1.89-1.11 3.87-2.1a71.06 71.06 0 0 1 59.84-1.76 93.62 93.62 0 0 1 83.42-51.14q4.51 0 8.93.42a93.59 93.59 0 0 1 71.71 45.63c1.45.22 2.94.45 4.41.75z" fill="#8be3df"/><path d="m489.68 360.67a254.64 254.64 0 0 1 -20.8 37.57 257.85 257.85 0 0 1 -30.4 37.31q-9 9.17-19 17.41-5.92 4.94-12.14 9.49a256 256 0 0 1 -302.78 0q-6.23-4.56-12.14-9.49-7.81-6.48-15.09-13.57c-.89-.87-1.77-1.74-2.64-2.62a256.34 256.34 0 0 1 -52.42-76.1z" fill="#d6fffa"/><path d="m407.39 462.45a256 256 0 0 1 -302.78 0z" fill="#97d3c0"/><path d="m468.88 398.24a257.85 257.85 0 0 1 -30.4 37.31q-9 9.17-19 17.41-5.92 4.94-12.14 9.49a256 256 0 0 1 -302.78 0q-6.23-4.56-12.14-9.49-7.81-6.48-15.09-13.57c-.89-.87-1.77-1.74-2.64-2.62a75.56 75.56 0 0 1 75.49-7 88.14 88.14 0 0 1 11.13-12 89.57 89.57 0 0 1 140.69 27.54c.33.66.64 1.33 1 2 1.2-.71 2.44-1.38 3.7-2a68 68 0 0 1 57.3-1.68 89.59 89.59 0 0 1 79.84-48.95q4.32 0 8.55.4a89.24 89.24 0 0 1 16.49 3.16z" fill="#aff1e9"/></g></svg>