<svg height="512" viewBox="0 0 512 512" width="512" xmlns="http://www.w3.org/2000/svg"><g id="BULINE"><circle cx="256" cy="256" fill="#6d8fa3" r="256"/></g><g id="Icons"><path d="m329.08 89.64h-37.63l-2.95-29.55a12.88 12.88 0 0 0 -12.81-11.59h-40.83a12.88 12.88 0 0 0 -12.81 11.59l-3 29.55h-37.58a34.29 34.29 0 0 0 -34.29 34.28v29.44h216.18v-29.44a34.28 34.28 0 0 0 -34.28-34.28z" fill="#7eccc8"/><path d="m289.25 67.46h-26.55a12.86 12.86 0 0 0 -12.81 11.59 32.82 32.82 0 0 1 -32.65 29.55h-7.94a34.29 34.29 0 0 0 -34.3 34.29v10.48h-27.82v-29.45a34.29 34.29 0 0 1 34.29-34.28h37.63l3-29.55a12.86 12.86 0 0 1 12.77-11.59h40.82a12.89 12.89 0 0 1 12.82 11.59z" fill="#6fb3ad"/><path d="m391.94 346.5q-.21 13.32-1.32 26.67-.8 9.65-2.08 19.31-1.76 13.33-4.42 26.67-.67 3.44-1.43 6.89a50.69 50.69 0 0 1 -4.43 12.42 51.51 51.51 0 0 1 -45.89 28.08h-154.18a51.46 51.46 0 0 1 -50.34-40.54 401.74 401.74 0 0 1 -8.32-113.77 420.74 420.74 0 0 1 19.15-98.61h233.18c2.29 7.19 4.4 14.37 6.28 21.57q2.57 9.66 4.62 19.31 2.91 13.35 4.87 26.67 1.42 9.66 2.38 19.31.6 5.88 1 11.75.53 7.46.77 14.92.33 9.7.16 19.35z" fill="#b1f6f0"/><path d="m199.83 316.29a400.25 400.25 0 0 0 -.71 150.25h-20.94a51.47 51.47 0 0 1 -50.33-40.54q-23-106.18 10.83-212.38h233.18a430.12 430.12 0 0 1 13.37 53.24h-125.16a61.27 61.27 0 0 0 -60.24 49.43z" fill="#93d1ca"/><path d="m488.14 220.75a101.43 101.43 0 0 0 -97.64-60.82 12.5 12.5 0 0 0 -11-6.57h-248.45a12.5 12.5 0 0 0 -10.91 6.41 101.29 101.29 0 0 0 -41.41 194.23 21.17 21.17 0 1 0 16.86-38.84 58.94 58.94 0 0 1 23-113 12.5 12.5 0 0 0 12.45 11.52h248.46a12.49 12.49 0 0 0 12.44-11.41 58.92 58.92 0 0 1 26.77 112.87 21.17 21.17 0 1 0 16.86 38.86 101.25 101.25 0 0 0 52.57-133.21z" fill="#d14a74"/><rect fill="#5e948c" height="8.47" rx="4.23" width="45.58" x="232.49" y="53.54"/><path d="m392 189.36v11.8a12.5 12.5 0 0 1 -12.5 12.5h-248.44a12.51 12.51 0 0 1 -12.51-12.5v-35.29a12.5 12.5 0 0 1 12.51-12.5h21.57v23.48a12.51 12.51 0 0 0 12.5 12.51z" fill="#b2436a"/><path d="m382.69 426a51.46 51.46 0 0 1 -50.32 40.5h-154.18a51.46 51.46 0 0 1 -50.34-40.5 401.74 401.74 0 0 1 -8.32-113.77h271.47a401.77 401.77 0 0 1 -8.31 113.77z" fill="#fff"/><path d="m199.84 316.29a399.84 399.84 0 0 0 -.71 150.25h-20.95a51.47 51.47 0 0 1 -50.33-40.54 401.93 401.93 0 0 1 -9-101.74q.07-2 .18-4 .18-4 .47-8.07h81.25c-.34 1.4-.64 2.74-.91 4.1z" fill="#cacccc"/><g fill="#6fb3ad"><path d="m382.76 254.54h-33.5a9.66 9.66 0 0 1 0-19.31h28.88q2.57 9.66 4.62 19.31z"/><path d="m390 300.52h-40.74a9.66 9.66 0 0 1 -9.65-9.65 9.66 9.66 0 0 1 9.65-9.66h38.37q1.42 9.66 2.37 19.31z"/><path d="m391.94 346.5h-42.68a9.66 9.66 0 0 1 -9.65-9.66 9.66 9.66 0 0 1 9.65-9.65h42.53q.32 9.66.15 19.31z"/><path d="m390.62 373.17q-.8 9.65-2.08 19.31h-39.28a9.66 9.66 0 0 1 -9.65-9.66 9.66 9.66 0 0 1 9.65-9.65z"/><path d="m384.12 419.15q-.67 3.44-1.43 6.89a50.69 50.69 0 0 1 -4.43 12.42h-29a9.66 9.66 0 0 1 -9.65-9.66 9.66 9.66 0 0 1 9.65-9.65z"/></g><path d="m401.67 466.54a256.12 256.12 0 0 1 -291.34 0z" fill="#755b41"/></g></svg>