<svg id="Capa_1" enable-background="new 0 0 512 512" height="512" viewBox="0 0 512 512" width="512" xmlns="http://www.w3.org/2000/svg" xmlns:xlink="http://www.w3.org/1999/xlink"><linearGradient id="SVGID_1_" gradientUnits="userSpaceOnUse" x1="256" x2="256" y1="512" y2="0"><stop offset="0" stop-color="#ffbef9"/><stop offset="1" stop-color="#fff1ff"/></linearGradient><linearGradient id="SVGID_2_" gradientUnits="userSpaceOnUse" x1="256" x2="256" y1="380.353" y2="131.647"><stop offset="0" stop-color="#ff81ff"/><stop offset="1" stop-color="#a93aff"/></linearGradient><g><g><g><circle cx="256" cy="256" fill="url(#SVGID_1_)" r="256"/></g></g><g><g><path d="m344.823 202.706c-34.28 0-62.177 27.896-62.177 62.177 0 33.997 27.745 62.177 62.177 62.177 34.28 0 62.177-27.896 62.177-62.177 0-34.03-27.513-62.177-62.177-62.177zm17.765 71.059h-8.882v8.882c0 4.91-3.973 8.882-8.882 8.882-4.91 0-8.882-3.973-8.882-8.882v-8.882h-8.882c-4.91 0-8.882-3.973-8.882-8.882s3.973-8.882 8.882-8.882h8.882v-8.882c0-4.91 3.973-8.882 8.882-8.882 4.91 0 8.882 3.973 8.882 8.882v8.881h8.882c4.91 0 8.882 3.973 8.882 8.882s-3.972 8.883-8.882 8.883zm-248.706 0c-4.975 0-8.882 3.908-8.882 8.882s3.908 8.882 8.882 8.882h29.312c-5.863-5.863-10.837-11.903-15.455-17.765h-13.857zm151.534 0h-6.928l-11.725 46.543c-.888 3.908-4.263 6.573-8.171 6.751-.178 0-.178 0-.356 0-3.731 0-7.283-2.487-8.349-6.041l-25.937-77.632-10.482 41.392c-.888 3.908-4.441 6.75-8.527 6.75h-41.747c16.699 17.943 38.549 36.24 64.13 57.735 10.658 9.06 22.028 18.653 33.93 28.957 1.777 1.42 3.731 2.132 5.863 2.132s4.085-.711 5.863-2.132c12.436-10.837 24.338-20.962 35.53-30.378 5.685-4.797 11.014-9.415 16.343-13.856-4.893.001-35.21-23.226-39.437-60.221zm-71.237-64.308c.888-3.909 4.263-6.573 8.171-6.751 3.909-.356 7.462 2.31 8.704 6.039l25.937 77.632 6.04-23.626c.888-3.909 4.441-6.751 8.527-6.751h13.857c4.441-39.971 38.371-71.059 79.408-71.059 15.455 0 30.378 4.619 43.168 12.79-6.395-38.549-36.062-66.084-74.256-66.084-33.398 0-55.07 22.738-66.618 43.701-11.548-20.962-33.22-43.701-66.618-43.701-42.99 0-75.5 34.818-75.5 81.185 0 22.56 8.172 41.747 22.739 60.933h50.273z" fill="url(#SVGID_2_)"/></g></g></g></svg>