<svg id="Capa_1" enable-background="new 0 0 512 512" height="512" viewBox="0 0 512 512" width="512" xmlns="http://www.w3.org/2000/svg" xmlns:xlink="http://www.w3.org/1999/xlink"><linearGradient id="lg1"><stop offset="0" stop-color="#ff4747"/><stop offset="1" stop-color="#ff9ceb"/></linearGradient><linearGradient id="SVGID_1_" gradientUnits="userSpaceOnUse" x1="74.98" x2="437.019" xlink:href="#lg1" y1="437.019" y2="74.981"/><radialGradient id="SVGID_2_" cx="256" cy="256" gradientUnits="userSpaceOnUse" r="256"><stop offset="0" stop-color="#ff2f2b"/><stop offset="1" stop-color="#ff9ceb" stop-opacity="0"/></radialGradient><linearGradient id="lg2"><stop offset="0" stop-color="#ff79a2"/><stop offset="1" stop-color="#ffe3f1"/></linearGradient><linearGradient id="SVGID_3_" gradientUnits="userSpaceOnUse" x1="2.547" x2="484.937" xlink:href="#lg2" y1="622.51" y2="140.119"/><linearGradient id="SVGID_4_" gradientTransform="matrix(-1 0 0 1 3000 0)" gradientUnits="userSpaceOnUse" x1="3031.806" x2="2560.935" xlink:href="#lg2" y1="445.885" y2="-24.986"/><linearGradient id="SVGID_5_" gradientUnits="userSpaceOnUse" x1="-82.51" x2="519.926" xlink:href="#lg2" y1="601.828" y2="-.608"/><linearGradient id="lg3"><stop offset="0" stop-color="#ffb5d3"/><stop offset=".4183" stop-color="#ffdbea"/><stop offset=".7836" stop-color="#fff5f9"/><stop offset="1" stop-color="#fff"/></linearGradient><linearGradient id="SVGID_6_" gradientUnits="userSpaceOnUse" x1="-615.48" x2="648.495" xlink:href="#lg3" y1="1266.044" y2="2.069"/><linearGradient id="SVGID_7_" gradientUnits="userSpaceOnUse" x1="256" x2="256" y1="423.756" y2="332.626"><stop offset="0" stop-color="#ff9ceb" stop-opacity="0"/><stop offset=".1861" stop-color="#ff9ae8" stop-opacity=".186"/><stop offset=".333" stop-color="#ff95de" stop-opacity=".333"/><stop offset=".4666" stop-color="#ff8bcd" stop-opacity=".467"/><stop offset=".5922" stop-color="#ff7eb6" stop-opacity=".592"/><stop offset=".7123" stop-color="#ff6c97" stop-opacity=".712"/><stop offset=".8283" stop-color="#ff5772" stop-opacity=".828"/><stop offset=".9388" stop-color="#ff3f46" stop-opacity=".939"/><stop offset="1" stop-color="#ff2f2b"/></linearGradient><linearGradient id="SVGID_8_" gradientUnits="userSpaceOnUse" x1="-915.846" x2="350.15" xlink:href="#lg3" y1="1435.233" y2="169.237"/><linearGradient id="SVGID_9_" gradientUnits="userSpaceOnUse" x1="181.882" x2="356.472" xlink:href="#lg1" y1="321.92" y2="147.33"/><linearGradient id="SVGID_10_" gradientUnits="userSpaceOnUse" x1="207.959" x2="334.405" xlink:href="#lg1" y1="331.716" y2="206.311"/><linearGradient id="lg4"><stop offset="0" stop-color="#ffb5d3"/><stop offset=".1571" stop-color="#ffc2db"/><stop offset=".7161" stop-color="#ffeef5"/><stop offset="1" stop-color="#fff"/></linearGradient><linearGradient id="SVGID_11_" gradientUnits="userSpaceOnUse" x1="-108.031" x2="445.984" xlink:href="#lg4" y1="511.092" y2="-42.923"/><radialGradient id="SVGID_12_" cx="256" cy="78.35" gradientUnits="userSpaceOnUse" r="44.981"><stop offset="0" stop-color="#ff9ceb" stop-opacity="0"/><stop offset=".1088" stop-color="#ff95df" stop-opacity=".109"/><stop offset=".3033" stop-color="#ff84c1" stop-opacity=".303"/><stop offset=".5609" stop-color="#ff688f" stop-opacity=".561"/><stop offset=".8684" stop-color="#ff414a" stop-opacity=".868"/><stop offset="1" stop-color="#ff2f2b"/></radialGradient><linearGradient id="SVGID_13_" gradientUnits="userSpaceOnUse" x1="115.354" x2="393.861" xlink:href="#lg4" y1="271.575" y2="-6.932"/><g><circle cx="256" cy="256" fill="url(#SVGID_1_)" r="256"/><circle cx="256" cy="256" fill="url(#SVGID_2_)" r="256"/><path d="m371.813 80.961c-10.071-.454-20.141-.849-30.212-1.184 2.216 122.647 2.016 245.294-.601 367.94 10-.396 20-.862 30-1.398 16.475-.91 30.488-15.355 31.025-31.818 3.154-100.667 3.439-201.333.855-302-.441-16.465-14.474-30.764-31.067-31.54z" fill="url(#SVGID_3_)"/><path d="m140.187 80.961c10.071-.454 20.141-.849 30.212-1.184-2.216 122.647-2.016 245.294.601 367.94-10-.396-20-.862-30-1.398-16.474-.91-30.486-15.355-31.025-31.818-3.154-100.667-3.439-201.333-.855-302 .44-16.465 14.473-30.764 31.067-31.54z" fill="url(#SVGID_4_)"/><path d="m371.813 416.04c.062-2.523.123-5.047.182-7.57-19.157-42.364-39.256-85.656-59.652-129.328 20.58-43.829 41.064-87.364 60.806-130.056-.184-12.616-.404-25.232-.658-37.848-.354-16.624-14.295-30.889-30.89-31.463-57.067-1.901-114.134-1.901-171.201 0-16.595.574-30.537 14.838-30.89 31.463-.254 12.616-.474 25.232-.658 37.848 19.742 42.692 40.226 86.227 60.806 130.056-20.396 43.672-40.495 86.964-59.652 129.328.059 2.523.12 5.046.182 7.57.431 16.624 14.337 31.003 30.813 31.677 56.667 2.245 113.333 2.245 170 0 16.474-.673 30.381-15.054 30.812-31.677z" fill="url(#SVGID_5_)"/><path d="m139.361 378.192c.192 10.093.407 20.185.644 30.278.1 4.179 3.565 7.722 7.735 7.899 72.173 3.041 144.346 3.041 216.52 0 4.17-.177 7.636-3.72 7.735-7.899.237-10.093.452-20.185.644-30.278-77.759 2.694-155.519 2.694-233.278 0z" fill="url(#SVGID_6_)"/><path d="m139.361 378.192c.192 10.093.407 20.185.644 30.278.1 4.179 3.565 7.722 7.735 7.899 72.173 3.041 144.346 3.041 216.52 0 4.17-.177 7.636-3.72 7.735-7.899.237-10.093.452-20.185.644-30.278-77.759 2.694-155.519 2.694-233.278 0z" fill="url(#SVGID_7_)"/><path d="m365.401 141.307c-72.934-1.942-145.869-1.942-218.803 0-4.214.113-7.686 3.601-7.748 7.78-1.116 76.369-.946 152.737.51 229.105.08 4.178 3.551 7.695 7.746 7.839 72.596 2.492 145.191 2.492 217.787 0 4.195-.146 7.664-3.66 7.746-7.839 1.455-76.369 1.625-152.737.51-229.105-.061-4.179-3.533-7.667-7.748-7.78z" fill="url(#SVGID_8_)"/><path d="m256 208.99c-8.994-11.026-22.654-18.052-37.964-17.974-27.034.167-49.122 22.241-49.157 49.07.044 53.053 66.026 98.73 83.045 109.601 2.493 1.588 5.656 1.59 8.148.002 10.917-6.933 41.616-28.041 62.546-56.223-22.103-27.946-44.406-56.243-66.618-84.476z" fill="url(#SVGID_9_)"/><path d="m293.965 191.016c-15.31-.078-28.97 6.946-37.964 17.974-.001 41.098 28.438 75.599 66.618 84.477 11.852-15.97 20.518-34.133 20.504-53.381-.036-26.829-22.125-48.904-49.158-49.07z" fill="url(#SVGID_10_)"/><path d="m316.928 124.993c-40.619-.69-81.238-.69-121.857 0-10.202 5.276-20.424 10.574-30.664 15.878-.031 2.539-.061 5.077-.09 7.615-.049 4.205 3.339 7.548 7.564 7.475 56.928-.997 113.856-.982 170.785.045 2.816.05 5.075-2.178 5.043-4.982-.037-3.385-.077-6.769-.118-10.154-10.238-5.303-20.461-10.601-30.663-15.877z" fill="url(#SVGID_11_)"/><path d="m256 101.413c-12.58-.003-22.73-10.235-22.659-22.963.071-12.724 10.223-23.163 22.659-23.162 12.438-.001 22.586 10.438 22.659 23.162.071 12.728-10.08 22.959-22.659 22.963z" fill="url(#SVGID_12_)"/><path d="m332.884 120.472c-8.708-3.094-17.406-6.169-26.091-9.218-3.113-1.092-5.228-4.052-5.254-7.354-.027-3.27-.054-6.541-.082-9.811-.268-25.383-20.66-46.482-45.457-46.489-24.797.006-45.19 21.107-45.457 46.489-.028 3.27-.056 6.541-.082 9.811-.027 3.302-2.141 6.262-5.254 7.354-8.685 3.049-17.383 6.124-26.091 9.218-8.656 3.081-14.595 11.309-14.708 20.4 61.061-1.361 122.122-1.361 183.184 0-.112-9.091-6.052-17.32-14.708-20.4zm-76.884-26.747c-8.374-.002-15.137-6.842-15.106-15.331.032-8.487 6.797-15.42 15.106-15.419 8.309 0 15.074 6.931 15.106 15.419.031 8.488-6.733 15.331-15.106 15.331z" fill="url(#SVGID_13_)"/></g></svg>