<svg id="Capa_1" enable-background="new 0 0 512 512" height="512" viewBox="0 0 512 512" width="512" xmlns="http://www.w3.org/2000/svg"><g><g><g><g><g><g><g><circle cx="256" cy="256" fill="#ffce00" r="256"/></g></g></g></g></g></g><path d="m512 256c0-2.485-.035-4.962-.106-7.43l-101.47-101.852-350.424 173.502 191.745 191.745c1.415.023 2.834.035 4.255.035 141.385 0 256-114.615 256-256z" fill="#ffa300"/><g><path d="m60.41 219.205c0-57.801 46.857-104.658 104.658-104.658 34.966 0 65.927 17.147 84.933 43.492 19.006-26.344 49.967-43.492 84.933-43.492 57.801 0 104.658 46.857 104.658 104.658-.001 123.232-189.592 231.795-189.592 231.795s-189.59-108.563-189.59-231.795z" fill="#ff583e"/></g><g><path d="m250 158.039c19.006-26.344 49.967-43.492 84.933-43.492 57.801 0 104.658 46.857 104.658 104.658 0 123.232-189.591 231.795-189.591 231.795z" fill="#f92814"/></g><g><path d="m276.393 399.028-68.701-116.35-26.303 37.542h-121.389v-30h105.778l44.068-62.898 61.605 104.334 67.173-164.84 34.038 123.404h70.677v30h-93.523l-16.674-60.453z" fill="#fff"/></g><g><path d="m372.662 290.22-34.038-123.403-67.173 164.839-21.451-36.329v59.003l26.393 44.698 56.749-139.261 16.674 60.453h93.523v-30z" fill="#e9edf5"/></g></g></svg>