<svg height="512" viewBox="0 0 60 60" width="512" xmlns="http://www.w3.org/2000/svg"><g id="Page-1" fill="none" fill-rule="evenodd"><g id="019---Hearty-Diet" fill-rule="nonzero"><circle id="Oval" cx="30" cy="30" fill="#02a9f4" r="29"/><path id="Shape" d="m30 1c-.5033333 0-1.0033333.01266667-1.5.038 15.4192225.79012792 27.5158989 13.5225465 27.5158989 28.962s-12.0966764 28.1718721-27.5158989 28.962c.4973333.0253333.9973333.038 1.5.038 16.0162576-.0000002 28.9999996-12.9837424 28.9999996-29s-12.983742-28.99999976-28.9999996-29z" fill="#0377bc"/><circle id="Oval" cx="30" cy="30" fill="#0377bc" r="23"/><path id="Shape" d="m30 15.7c1.314809-1.704977 3.346941-2.7025691 5.5-2.7 3.256 0 5.5 2.772 5.5 6 0 3.736-3.059 8.158-11 12-7.941-3.842-11-8.264-11-12 0-3.228 2.244-6 5.5-6 2.153059-.0025691 4.185191.995023 5.5 2.7z" fill="#ef314c"/><path id="Shape" d="m35.5 13c-.5388595.000715-1.0758049.0641416-1.6.189 2.52579.7838183 4.2083984 3.1686079 4.1 5.811 0 3.491-2.673 7.579-9.5 11.235.48.257.978.512 1.5.765 7.941-3.843 11-8.264 11-12 0-3.228-2.244-6-5.5-6z" fill="#bb193b"/><path id="Shape" d="m30 48c-.6479581-.000627-1.2222692-.4172445-1.424-1.033l-3.634-10.961-1.883 5.023c-.2201096.5863339-.7797175.9755917-1.406.978h-5.653c-.5522847 0-1-.4477153-1-1s.4477153-1 1-1h5.306l2.261-6.029c.2215643-.5971916.7961324-.9893254 1.433-.978.6413864.0059398 1.2062626.4235447 1.4 1.035l3.6 10.872 3.6-10.875c.1999602-.6045981.7598757-1.0170411 1.3965751-1.0287402.6366993-.0116991 1.2113888.3798961 1.4334249.9767402l2.26 6.027h4.31c.5522847 0 1 .4477153 1 1s-.4477153 1-1 1h-4.653c-.6276629-.00262-1.1880707-.3937504-1.407-.982l-1.882-5.019-3.634 10.962c-.2020796.6153602-.7763086 1.031515-1.424 1.032z" fill="#ffeb3a"/><path id="Shape" d="m11.97 37c-.430873-.0000395-.813275-.2760621-.949-.685-1.35103471-4.1016096-1.35103471-8.5283904 0-12.63.1739697-.5246705.7403295-.8089697 1.265-.635s.8089697.7403295.635 1.265c-1.2159911 3.6924648-1.2159911 7.6775352 0 11.37.0834745.2518216.0634622.5264929-.0556318.7635556s-.3275082.4170859-.5793682.5004444c-.1018395.0341506-.2085877.0513789-.316.051z" fill="#f5f5f5"/><path id="Shape" d="m48.03 37c-.1067414.000161-.2127965-.0170645-.314-.051-.25186-.0833585-.4602742-.2633817-.5793682-.5004444s-.1391063-.511734-.0556318-.7635556c1.2159911-3.6924648 1.2159911-7.6775352 0-11.37-.1739697-.5246705.1103295-1.0910303.635-1.265s1.0910303.1103295 1.265.635c1.3510347 4.1016096 1.3510347 8.5283904 0 12.63-.1359563.4096376-.5193909.6858234-.951.685z" fill="#f5f5f5"/><path id="Shape" d="m23.708 22.176c-.3515437.0000738-.6773065-.1844492-.858-.486-.5219752-.8030204-.8157886-1.7328535-.85-2.69 0-1.491.858-3 2.5-3 .5522847 0 1 .4477153 1 1s-.4477153 1-1 1c-.377 0-.5.744-.5 1 .0353653.5945907.2301854 1.1686881.564 1.662.184963.3086746.1898166.6929245.0127094 1.0061725-.1771073.3132481-.5088609.5071836-.8687094.5078275z" fill="#f5f5f5"/><g fill="#000"><path id="Shape" d="m40.084 49.554c-8.5065724 4.3884414-18.8744614 2.7730927-25.6427771-3.9952229-6.76831558-6.7683157-8.38366434-17.1362047-3.9952229-25.6427771.1758979-.3187098.1647098-.707829-.0292099-1.0159056s-.53993401-.4864385-.9033683-.4656642-.68687051.2374027-.8444218.5655698c-4.80727694 9.2796925-3.05278937 20.6038973 4.3371567 27.9938433 7.389946 7.3899461 18.7141508 9.1444336 27.9938433 4.3371567.490705-.2534987.6829987-.856795.4295-1.3475s-.856795-.6829987-1.3475-.4295z"/><path id="Shape" d="m19 8.669c-.3174305.1639849-.5232634.48486035-.5399636.84175566-.0167001.35689532.1582697.69558964.459.88850004.3007304.1929104.6815331.2107292.9989636.0467443 8.5064222-4.38686295 18.8730957-2.77078447 25.6405769 3.9971534 6.7674812 6.767938 8.3828601 17.1347204 3.9954231 25.6408466-.2342506.4879259-.037783 1.0736683.4433056 1.3216577.4810886.2479895 1.0721656.0682069 1.3336944-.4056577 4.7856296-9.2794905 3.0229129-20.5883317-4.3598777-27.9711223-7.3827906-7.38279063-18.6916318-9.14550733-27.9711223-4.3598777z"/><path id="Shape" d="m30 0c-16.5685425 0-30 13.4314575-30 30s13.4314575 30 30 30 30-13.4314575 30-30c-.018737-16.5607751-13.4392249-29.98126296-30-30zm0 58c-15.463973 0-28-12.536027-28-28s12.536027-28 28-28 28 12.536027 28 28c-.0176345 15.4566626-12.5433374 27.9823655-28 28z"/><path id="Shape" d="m35.5 12c-2.0492851-.0077881-4.021406.7810603-5.5 2.2-1.478594-1.4189397-3.4507149-2.2077881-5.5-2.2-1.7959587.0496118-3.4965355.8193005-4.7190637 2.1358694-1.2225283 1.3165689-1.8643121 3.0694224-1.7809363 4.8641306 0 2.728 1.5 8.032 11.564 12.9.2753598.1334044.5966402.1334044.872 0 10.064-4.868 11.564-10.172 11.564-12.9.0833758-1.7947082-.558408-3.5475617-1.7809363-4.8641306-1.2225282-1.3165689-2.923105-2.0862576-4.7190637-2.1358694zm-5.5 17.886c-8.687-4.323-10-8.663-10-10.886 0-2.851 1.935-5 4.5-5 1.8264869-.0085414 3.5539443.8293382 4.678 2.269.1866979.269822.4938841.4308892.822.431.3268545-.0000829.6330392-.1598964.82-.428 1.1232853-1.4420751 2.8520878-2.281357 4.68-2.272 2.565 0 4.5 2.149 4.5 5 0 2.223-1.312 6.563-10 10.886z"/></g></g></g></svg>