<svg height="512pt" viewBox="-11 0 512 512.001" width="512pt" xmlns="http://www.w3.org/2000/svg"><path d="m458.582031 387.089844c19.996094-35.488282 31.417969-76.453125 31.417969-120.089844 0-135.308594-109.691406-245-245-245s-245 109.691406-245 245c0 43.640625 11.421875 84.601562 31.421875 120.089844zm0 0" fill="#1d3ba8"/><path d="m245 22c-92.082031 0-172.28125 50.808594-214.136719 125.910156v238.179688c39.40625 70.710937 112.808594 119.867187 198.113281 125.375v-289.214844c0-6.179688 5.03125-11.210938 11.214844-11.210938h169.242188v-125.65625c-43.472656-39.386718-101.148438-63.382812-164.433594-63.382812zm0 0" fill="#f29b00"/><path d="m30.863281 215.042969v171.046875c13.960938 25.050781 32.191407 47.390625 53.703125 66.046875v-224.289063c-20.761718-7.460937-38.53125-11.390625-53.703125-12.804687zm0 0" fill="#e58303"/><path d="m30.863281 11.101562v205.9375c19.703125 1.84375 43.769531 7.890626 73.097657 20.453126 73.078124 31.3125 96.804687 15.976562 125.015624-3.523438v-11.71875c0-3.476562 1.59375-6.589844 4.085938-8.648438.277344-.226562.566406-.441406.863281-.644531 1.789063-1.210937 3.945313-1.917969 6.265625-1.917969h169.242188v-199.9375c0-1.914062-.484375-3.71875-1.339844-5.292968-1.878906-3.457032-5.546875-5.808594-9.761719-5.808594h-356.371093c-.382813 0-.761719.0195312-1.132813.0585938-5.597656.5703122-9.964844 5.2968752-9.964844 11.0429682zm0 0" fill="#f4b500"/><path d="m81.566406 0h-39.605468c-.382813 0-.761719.0195312-1.132813.0585938-5.597656.5703122-9.964844 5.2968752-9.964844 11.0429682v205.9375c14.433594 1.351563 31.226563 4.96875 50.703125 11.746094zm0 0" fill="#f29b00"/><path d="m196.789062 312.214844c-4.421874 0-8.007812-3.585938-8.007812-8.007813 0-9.636719 11.855469-19.359375 38.339844-19.359375 4.421875 0 8.007812 3.582032 8.007812 8.007813 0 4.421875-3.585937 8.007812-8.007812 8.007812-12.148438 0-20.277344 2.941407-22.445313 4.730469-.65625 3.761719-3.9375 6.621094-7.886719 6.621094zm8.007813-8.007813v.003907zm0 0" fill="#b7dbf6"/><path d="m196.789062 265.363281c-4.421874 0-8.007812-3.585937-8.007812-8.007812 0-9.636719 11.855469-19.359375 38.339844-19.359375 4.421875 0 8.007812 3.585937 8.007812 8.007812s-3.585937 8.007813-8.007812 8.007813c-12.144532 0-20.277344 2.941406-22.445313 4.730469-.65625 3.761718-3.9375 6.621093-7.886719 6.621093zm8.007813-8.007812v.003906zm0 0" fill="#b7dbf6"/><path d="m196.789062 359.0625c-4.421874 0-8.007812-3.582031-8.007812-8.007812 0-9.632813 11.855469-19.359376 38.339844-19.359376 4.421875 0 8.007812 3.585938 8.007812 8.007813 0 4.425781-3.585937 8.011719-8.007812 8.011719-12.144532 0-20.277344 2.941406-22.445313 4.726562-.65625 3.761719-3.9375 6.621094-7.886719 6.621094zm8.007813-8.007812v.007812c0-.003906 0-.003906 0-.007812zm0 0" fill="#b7dbf6"/><path d="m196.789062 405.914062c-4.421874 0-8.007812-3.585937-8.007812-8.007812 0-9.636719 11.855469-19.359375 38.339844-19.359375 4.421875 0 8.007812 3.585937 8.007812 8.007813 0 4.421874-3.585937 8.007812-8.007812 8.007812-12.144532 0-20.277344 2.945312-22.445313 4.730469-.65625 3.761719-3.9375 6.621093-7.886719 6.621093zm8.007813-8.007812v.003906zm0 0" fill="#b7dbf6"/><path d="m196.789062 452.765625c-4.421874 0-8.007812-3.585937-8.007812-8.007813 0-9.636718 11.855469-19.359374 38.339844-19.359374 4.421875 0 8.007812 3.582031 8.007812 8.007812 0 4.421875-3.585937 8.007812-8.007812 8.007812-12.144532 0-20.277344 2.941407-22.445313 4.730469-.65625 3.761719-3.9375 6.621094-7.886719 6.621094zm8.007813-8.007813v.003907zm0 0" fill="#b7dbf6"/><path d="m196.789062 499.613281c-4.421874 0-8.007812-3.585937-8.007812-8.007812 0-9.636719 11.855469-19.359375 38.339844-19.359375 4.421875 0 8.007812 3.585937 8.007812 8.007812 0 4.425782-3.585937 8.007813-8.007812 8.007813-12.144532 0-20.277344 2.945312-22.445313 4.730469-.65625 3.761718-3.9375 6.621093-7.886719 6.621093zm8.007813-8.007812v.003906s0 0 0-.003906zm0 0" fill="#b7dbf6"/><path d="m141.847656 218.371094c-1.242187-3.367188-6.007812-3.367188-7.25 0l-21.042968 57.035156v17.054688h49.335937v-17.054688zm0 0" fill="#fcecac"/><path d="m134.597656 218.371094-21.042968 57.035156v17.054688h24.667968v-11.398438c-15.496094-9.71875 3.625-62.691406 3.625-62.691406-1.246094-3.367188-6.007812-3.367188-7.25 0zm0 0" fill="#fce275"/><path d="m150.554688 287.742188c-4.3125 0-8.101563-2.21875-10.304688-5.574219-.453125-.6875-1.207031-1.105469-2.027344-1.105469v174.03125h24.667969v-179.683594c-.003906 6.8125-5.523437 12.332032-12.335937 12.332032zm0 0" fill="#06daf7"/><path d="m138.222656 281.0625c-.820312 0-1.574218.417969-2.027344 1.105469-2.203124 3.355469-5.992187 5.574219-10.308593 5.574219-6.808594 0-12.332031-5.523438-12.332031-12.332032v179.683594h24.667968zm0 0" fill="#05b8e2"/><path d="m150.554688 410.667969c-6.808594 0-12.332032-5.519531-12.332032-12.332031v56.757812h24.667969v-56.757812c0 6.8125-5.523437 12.332031-12.335937 12.332031zm0 0" fill="#05b8e2"/><path d="m125.886719 410.667969c-6.808594 0-12.332031-5.519531-12.332031-12.332031v56.757812h24.667968v-56.757812c0 6.8125-5.523437 12.332031-12.335937 12.332031zm0 0" fill="#07a3d3"/><path d="m162.683594 455.09375h-48.921875c-6.203125 0-11.320313 4.578125-12.191407 10.539062 7.023438 5.078126 14.316407 9.800782 21.871094 14.125h39.242188c6.8125 0 12.332031-5.519531 12.332031-12.332031s-5.519531-12.332031-12.332031-12.332031zm0 0" fill="#e8f3fc"/><path d="m127.15625 467.425781c0-6.8125 5.519531-12.332031 12.332031-12.332031h-25.726562c-6.203125 0-11.316407 4.578125-12.1875 10.539062 7.019531 5.078126 14.3125 9.800782 21.867187 14.125h16.046875c-6.8125.003907-12.332031-5.519531-12.332031-12.332031zm0 0" fill="#b7dbf6"/><path d="m162.683594 479.761719h-39.242188c15.070313 8.628906 31.148438 15.699219 48.011719 21 2.203125-2.226563 3.5625-5.289063 3.5625-8.667969 0-6.8125-5.519531-12.332031-12.332031-12.332031zm0 0" fill="#b7dbf6"/><path d="m137.921875 479.761719h-14.480469c4.402344 2.519531 8.902344 4.890625 13.476563 7.140625-2.5-1.988282-1.796875-5.984375 1.003906-7.140625zm0 0" fill="#97cbef"/><path d="m138.222656 246.125c4.585938 0 8.960938-.832031 13.007813-2.316406l-9.386719-25.4375c-1.242188-3.367188-6.003906-3.367188-7.246094 0l-9.382812 25.4375c4.042968 1.484375 8.421875 2.316406 13.007812 2.316406zm0 0" fill="#1d3ba8"/><path d="m134.597656 218.371094-9.382812 25.4375c2.859375 1.050781 5.890625 1.765625 9.042968 2.101562 2.84375-14.394531 7.589844-27.539062 7.589844-27.539062-1.246094-3.367188-6.007812-3.367188-7.25 0zm0 0" fill="#122894"/><path d="m459.140625 222.25c0-7.046875-5.765625-12.8125-12.8125-12.8125h-206.136719c-7.050781 0-12.816406 5.765625-12.816406 12.8125v289.113281c5.824219.414063 11.699219.636719 17.625.636719 92.082031 0 172.285156-50.808594 214.140625-125.910156zm0 0" fill="#55f3ff"/><path d="m446.328125 209.4375h-166.117187v88.933594c19.703124 1.839844 43.773437 7.886718 73.097656 20.453125 56.460937 24.191406 83.460937 20.535156 105.832031 8.628906v-105.203125c0-7.046875-5.765625-12.8125-12.8125-12.8125zm0 0" fill="#06daf7"/><path d="m227.375 222.25v289.113281c5.824219.414063 11.699219.636719 17.625.636719 12.707031 0 25.191406-.96875 37.375-2.832031v-299.730469h-42.1875c-7.046875 0-12.8125 5.765625-12.8125 12.8125zm0 0" fill="#05b8e2"/><g fill="#e8f3fc"><path d="m188.78125 304.207031c0-4.425781 3.585938-8.007812 8.007812-8.007812 3.949219 0 7.230469 2.859375 7.886719 6.621093 2.167969 1.785157 10.300781 4.730469 22.445313 4.730469 12.144531 0 20.273437-2.945312 22.441406-4.730469.65625-3.761718 3.941406-6.621093 7.890625-6.621093 4.421875 0 8.007813 3.582031 8.007813 8.007812 0 25.847657-76.679688 26.003907-76.679688 0zm60.664062-.007812v.007812c0-.003906 0-.003906 0-.007812zm-44.648437 0v.007812c0-.003906 0-.003906 0-.007812zm0 0"/><path d="m188.78125 257.355469c0-4.421875 3.585938-8.007813 8.007812-8.007813 3.949219 0 7.230469 2.859375 7.886719 6.621094 2.167969 1.785156 10.300781 4.730469 22.445313 4.730469 12.144531 0 20.273437-2.945313 22.441406-4.730469.65625-3.761719 3.941406-6.621094 7.890625-6.621094 4.421875 0 8.007813 3.585938 8.007813 8.007813 0 25.847656-76.679688 26.003906-76.679688 0zm60.664062-.003907v.003907c0-.003907 0-.003907 0-.003907zm-44.648437 0v.003907c0-.003907 0-.003907 0-.003907zm0 0"/><path d="m188.78125 351.054688c0-4.421876 3.585938-8.007813 8.007812-8.007813 3.949219 0 7.230469 2.859375 7.886719 6.621094 2.167969 1.789062 10.300781 4.730469 22.445313 4.730469 12.144531 0 20.273437-2.941407 22.441406-4.730469.65625-3.761719 3.941406-6.621094 7.890625-6.621094 4.421875 0 8.007813 3.585937 8.007813 8.007813 0 25.847656-76.679688 26.003906-76.679688 0zm60.664062-.003907v.003907zm-44.648437 0v.003907zm0 0"/><path d="m188.78125 397.90625c0-4.421875 3.585938-8.007812 8.007812-8.007812 3.949219 0 7.230469 2.859374 7.886719 6.621093 2.167969 1.789063 10.296875 4.730469 22.445313 4.730469 12.144531 0 20.277344-2.941406 22.441406-4.730469.65625-3.761719 3.941406-6.621093 7.890625-6.621093 4.421875 0 8.007813 3.585937 8.007813 8.007812 0 25.847656-76.679688 26.003906-76.679688 0zm60.664062-.007812v.007812c0-.003906 0-.003906 0-.007812zm-44.648437 0v.007812c0-.003906 0-.003906 0-.007812zm0 0"/><path d="m188.78125 444.757812c0-4.425781 3.585938-8.011718 8.007812-8.011718 3.949219 0 7.230469 2.859375 7.886719 6.621094 2.167969 1.789062 10.300781 4.730468 22.445313 4.730468 12.144531 0 20.273437-2.941406 22.441406-4.730468.65625-3.761719 3.941406-6.621094 7.890625-6.621094 4.421875 0 8.007813 3.585937 8.007813 8.011718 0 25.84375-76.679688 26-76.679688 0zm60.664062-.007812v.007812c0-.003906 0-.003906 0-.007812zm-44.648437 0v.007812c0-.003906 0-.003906 0-.007812zm0 0"/><path d="m188.78125 491.605469c0-4.421875 3.585938-8.007813 8.007812-8.007813 3.949219 0 7.230469 2.859375 7.886719 6.621094 2.167969 1.789062 10.296875 4.730469 22.445313 4.730469 12.144531 0 20.277344-2.941407 22.441406-4.730469.65625-3.761719 3.941406-6.621094 7.890625-6.621094 4.421875 0 8.007813 3.585938 8.007813 8.007813 0 25.847656-76.679688 26.003906-76.679688 0zm60.664062-.003907v.003907zm-44.648437 0v.003907zm0 0"/><path d="m316.542969 442.992188h83.753906c.457031 0 .890625.085937 1.308594.214843v-37.621093c0-7.046876-5.765625-12.8125-12.8125-12.8125h-60.746094c-7.046875 0-12.8125 5.765624-12.8125 12.8125v37.621093c.417969-.128906.851563-.214843 1.308594-.214843zm0 0"/></g><path d="m346.902344 405.585938c0-7.046876 5.765625-12.8125 12.8125-12.8125h-31.667969c-7.046875 0-12.8125 5.765624-12.8125 12.8125v37.621093c.417969-.128906.851563-.21875 1.308594-.21875h30.359375zm0 0" fill="#b7dbf6"/><path d="m400.296875 442.992188c.457031 0 .890625.085937 1.308594.214843v-.214843zm0 0" fill="#b7dbf6"/><path d="m400.296875 438.71875h-83.753906c-2.492188 0-4.511719 2.019531-4.511719 4.515625v59.484375c34.667969-9.839844 66.203125-27.128906 92.777344-50.015625v-9.46875c0-2.496094-2.019532-4.515625-4.511719-4.515625zm0 0" fill="#f95d95"/><path d="m343.257812 443.234375c0-2.492187 2.023438-4.515625 4.515626-4.515625h-31.230469c-2.492188 0-4.511719 2.019531-4.511719 4.515625v59.484375c10.726562-3.046875 21.152344-6.808594 31.226562-11.222656zm0 0" fill="#ef4a8a"/><path d="m228.140625 90.394531c6.800781 2.148438 12.40625 6.964844 15.605469 13.21875.265625-1.425781.410156-2.894531.410156-4.394531v-27.582031c0-.417969-.011719-.835938-.03125-1.253907h-16.09375c.066406.410157.109375.828126.109375 1.253907zm0 0" fill="#f29b00"/><path d="m212.152344 90.394531v-18.757812c0-.425781.042968-.84375.109375-1.253907h-16.089844c-.023437.417969-.035156.835938-.035156 1.253907v27.582031c0 1.5.144531 2.96875.410156 4.394531 3.203125-6.253906 8.808594-11.070312 15.605469-13.21875zm0 0" fill="#f29b00"/><path d="m246.648438 113.527344c0 14.636718-11.863282 26.503906-26.5 26.503906-14.636719 0-26.5-11.867188-26.5-26.503906 0-14.632813 11.863281-26.5 26.5-26.5 14.636718 0 26.5 11.867187 26.5 26.5zm0 0" fill="#fce275"/><path d="m216.535156 113.527344c0 4.179687-3.386718 7.566406-7.566406 7.566406s-7.566406-3.386719-7.566406-7.566406c0-4.175782 3.386718-7.5625 7.566406-7.5625s7.566406 3.386718 7.566406 7.5625zm0 0" fill="#f4b500"/><path d="m238.890625 113.527344c0 4.179687-3.386719 7.566406-7.5625 7.566406-4.179687 0-7.566406-3.386719-7.566406-7.566406 0-4.175782 3.386719-7.5625 7.566406-7.5625 4.175781 0 7.5625 3.386718 7.5625 7.5625zm0 0" fill="#f4b500"/><path d="m398.332031 0h-356.371093c-6.128907 0-11.097657 4.972656-11.097657 11.101562v15.378907c0 25.425781 20.609375 46.039062 46.039063 46.039062h286.496094c25.425781 0 46.035156-20.613281 46.035156-46.039062v-15.378907c0-6.128906-4.96875-11.101562-11.101563-11.101562zm0 0" fill="#f9ce00"/><path d="m80.566406 44.203125v-35.152344c0-3.613281 1.605469-6.847656 4.132813-9.050781h-42.738281c-6.128907 0-11.097657 4.972656-11.097657 11.101562v15.378907c0 25.425781 20.609375 46.039062 46.039063 46.039062h21.664062c-10.636718-4.992187-18-15.792969-18-28.316406zm0 0" fill="#f4b500"/><path d="m400.296875 438.71875h-83.753906c-2.492188 0-4.511719 2.019531-4.511719 4.515625v25.410156c17.40625 6.484375 24.578125 10.804688 43.820312 16.894531 17.660157-8.976562 34.085938-20.027343 48.957032-32.835937v-9.46875c0-2.496094-2.019532-4.515625-4.511719-4.515625zm0 0" fill="#ef4a8a"/><path d="m343.257812 481.179688v-37.945313c0-2.492187 2.023438-4.515625 4.515626-4.515625h-31.230469c-2.492188 0-4.511719 2.019531-4.511719 4.515625v25.410156c13.542969 5.046875 18.132812 7.648438 31.226562 12.535157zm0 0" fill="#d32976"/></svg>