<svg id="Capa_1" enable-background="new 0 0 512 512" height="512" viewBox="0 0 512 512" width="512" xmlns="http://www.w3.org/2000/svg"><g><path d="m512 256c0 15.588-1.393 30.85-4.062 45.67l-250.738 33.33-255.382-48.33c-1.2-10.056-1.818-20.291-1.818-30.67 0-141.385 114.615-256 256-256s256 114.615 256 256z" fill="#b1e4f9"/><g><path d="m511.39 273.84c.4-5.89.61-11.84.61-17.84 0-.72 0-1.44-.01-2.16h-66.33v-99.77h45.24c-2.97-6.83-6.22-13.5-9.75-20h-35.49v-50.02c-6.3-6.94-12.98-13.54-20-19.76v69.78h-99.77v-99.78h58.16c-13.75-7.97-28.31-14.68-43.53-20h-14.63v-4.63c-6.56-1.86-13.23-3.46-20-4.8v9.43h-99.78v-9.42c-6.77 1.33-13.44 2.93-20 4.8v4.62h-14.64c-4.56 1.59-9.07 3.32-13.51 5.16-10.37 4.3-20.39 9.27-30.02 14.84h58.17v99.78h-99.77v-69.78c-7.02 6.23-13.7 12.83-20 19.77v50.01h-35.48c-1.71 3.15-3.36 6.35-4.94 9.58-1.68 3.43-3.28 6.9-4.81 10.42h45.23v99.77h-66.32c-.02.72-.02 1.44-.02 2.16 0 6 .21 11.95.62 17.84h65.72v99.78h379.32v-99.78zm-325.28 99.78h-99.77v-99.78h99.77zm0-119.78h-99.77v-99.77h99.77zm119.78 119.78h-99.78v-99.78h99.78zm0-119.78h-99.78v-99.77h99.78zm0-119.77h-99.78v-99.78h99.78zm119.77 239.55h-99.77v-99.78h99.77zm0-119.78h-99.77v-99.77h99.77z" fill="#90d8f9"/><g><path d="m411.892 203.352 11.075-19.183c2.885-4.996-.721-11.241-6.49-11.241h-9.17c-5.769 0-9.375 6.245-6.49 11.241z" fill="#434c54"/><path d="m473.28 198.953h-122.775v67.946c0 11.47 9.299 20.769 20.769 20.769h81.237c11.471 0 20.769-9.299 20.769-20.769z" fill="#d82e3d"/><g fill="#c32430"><path d="m406.455 287.67h-35.18c-11.47 0-20.77-9.3-20.77-20.77v-67.95h35.19v67.95c0 11.47 9.29 20.77 20.76 20.77z"/><path d="m475.256 192.216h-126.727c-3.241 0-5.869 2.628-5.869 5.869 0 3.241 2.628 5.869 5.869 5.869h126.727c3.241 0 5.869-2.628 5.869-5.869 0-3.242-2.628-5.869-5.869-5.869z"/></g></g><path d="m113.22 246.84h15.204v46.018h-15.204z" fill="#61a2f9"/><path d="m40.245 319.898h-20v-86.657c0-30.486 24.802-55.288 55.288-55.288s55.289 24.802 55.289 55.288v15.309h-20v-15.309c0-19.458-15.83-35.288-35.288-35.288s-35.289 15.83-35.289 35.288z" fill="#f1eee9"/><g fill="#d7d3cd"><path d="m79.931 178.144c-1.453-.115-2.916-.191-4.398-.191-30.486 0-55.288 24.802-55.288 55.288v86.657h8.796v-86.657c0-29.004 22.455-52.846 50.89-55.097z"/><path d="m84.33 197.953c-1.49 0-2.956.104-4.398.284 17.389 2.173 30.89 17.037 30.89 35.004v15.309h8.796v-15.309c0-19.458-15.83-35.288-35.288-35.288z"/></g><path d="m149.17 301.19v9.91h-143.22c-.69-3.12-1.32-6.27-1.89-9.43-.9-4.95-1.64-9.95-2.24-15h132.82c8.02 0 14.53 6.5 14.53 14.52z" fill="#f1eee9"/><path d="m465.406 286.67h-80-52.82-80c-8.02 0-14.53 6.5-14.53 14.52v9.91h98.66 44.56 98.66v-9.91c0-8.02-6.51-14.52-14.53-14.52z" fill="#434c54"/><g><path d="m173.129 59.591 99.305-28.018 70.13-15.786 70.131 15.786 99.305 28.018-169.436 28.019z" fill="#d7d3cd"/><g fill="#f1eee9"><path d="m173.129 59.591h338.871l-12.61 56.037h-313.652z"/><path d="m272.434 0h140.261v31.573h-140.261z"/></g></g><path d="m499.9 333.98c-2.779 8.702-6.012 17.201-9.669 25.47-2.968 2.85-9.643 11.512-9.643 11.512s-3.525 11.85-4.554 15.953c-44.662 74.907-126.489 125.085-220.034 125.085-93.544 0-175.371-50.177-220.033-125.082.003-.008-5.516-14.657-5.516-14.657l-8.682-12.811c-3.657-8.269-6.89-16.769-9.669-25.47z" fill="#61a2f9"/><path d="m491.94 355.48c1.509-3.561 2.935-7.166 4.28-10.81 0 0-3.152-7.094-2.001-10.69h-473.794c1.151 3.596-4.645 10.69-4.645 10.69 1.345 3.644 2.771 7.249 4.28 10.81h104.64v54.62h-73.13c4.59 6.09 9.45 11.96 14.57 17.61h58.56v48.09c5.73 3.44 11.6 6.65 17.6 9.63v-57.72h227.4v57.72c6-2.98 11.87-6.19 17.6-9.63v-48.09h58.56c5.12-5.65 9.98-11.52 14.57-17.61h-73.13v-54.62zm-122.24 54.62h-227.4v-54.62h227.4z" fill="#4a81f6"/><path d="m507.94 301.67c-1.99 11.03-4.69 21.81-8.04 32.31-1.15 3.6-2.38 7.16-3.68 10.69h-480.44c-1.3-3.53-2.53-7.09-3.68-10.69-3.35-10.5-6.05-21.28-8.04-32.31z" fill="#aa8080"/><circle cx="256" cy="377.365" fill="#f1eee9" r="17.944"/><path d="m261.536 394.435c-1.74.57-3.61.88-5.54.88-9.91 0-17.94-8.04-17.94-17.95s8.03-17.94 17.94-17.94c1.93 0 3.8.31 5.54.88-7.2 2.32-12.4 9.08-12.4 17.06s5.2 14.739 12.4 17.07z" fill="#d7d3cd"/><g><path d="m38.72 377.36c0 3.51-1.017 6.799-2.757 9.559-5.27-8.82-10.004-17.999-14.194-27.469 9.45.51 16.951 8.33 16.951 17.91z" fill="#f1eee9"/></g><path d="m490.23 359.45c-4.19 9.47-8.926 18.646-14.196 27.466-1.74-2.76-2.754-6.046-2.754-9.556 0-9.58 7.5-17.4 16.95-17.91z" fill="#d7d3cd"/><path d="m132.098 243.175h-22.553c-2.024 0-3.665 1.641-3.665 3.665 0 2.024 1.641 3.665 3.665 3.665h22.553c2.024 0 3.665-1.641 3.665-3.665 0-2.024-1.641-3.665-3.665-3.665z" fill="#f1eee9"/><path d="m116.95 249.44c.67.66 1.59 1.07 2.6 1.07h-10c-1.01 0-1.93-.41-2.6-1.07-.66-.67-1.07-1.59-1.07-2.6 0-2.02 1.64-3.66 3.67-3.66h10c-2.03 0-3.67 1.64-3.67 3.66 0 1.01.41 1.93 1.07 2.6z" fill="#d7d3cd"/><path d="m157.96 19.45v105.15c0 10.521-8.529 19.05-19.05 19.05h-112.99c27.31-55.84 74.35-100.27 132.04-124.2z" fill="#61a2f9"/><g fill="#434c54"><circle cx="468.767" cy="87.61" r="11.169"/><circle cx="436.829" cy="87.61" r="11.169"/></g></g></g></svg>