<svg height="512" viewBox="0 0 128 128" width="512" xmlns="http://www.w3.org/2000/svg"><g id="number"><text fill="#24253a" font-family="MyriadPro-Regular, Myriad Pro" font-size="40" letter-spacing=".002em" transform="translate(54.366 -738.265)">4<tspan x="-10.3" y="228">14</tspan><tspan x="-10.3" y="456">24</tspan><tspan x="-10.3" y="684">34</tspan><tspan x="-10.3" y="912">44</tspan><tspan x="-10.3" y="1140">54</tspan><tspan x="-10.3" y="1368">64</tspan><tspan x="-10.3" y="1596">74</tspan><tspan x="-10.3" y="1824">84</tspan><tspan x="-10.3" y="2052">94</tspan><tspan x="-20.599" y="2280">104</tspan><tspan x="-20.599" y="2508">114</tspan><tspan x="-20.599" y="2736">124</tspan><tspan x="-20.599" y="2964">134</tspan><tspan x="-20.599" y="3192">144</tspan><tspan x="-20.599" y="3420">154</tspan><tspan x="-20.599" y="3648">164</tspan><tspan x="-20.599" y="3876">174</tspan><tspan x="-20.599" y="4104">184</tspan><tspan x="-20.599" y="4332">194</tspan><tspan x="-20.599" y="4560">204</tspan><tspan x="-20.599" y="4788">214</tspan><tspan x="-20.599" y="5016">224</tspan><tspan x="-20.599" y="5244">234</tspan><tspan x="-20.599" y="5472">244</tspan></text></g><g id="Circle_Grid" data-name="Circle Grid"><circle cx="64" cy="64" fill="#2cbfae" r="64"/></g><g id="icon"><g fill="#dbd8dd"><path d="m35.854 104.831c-6.535 0-11.854-5.799-11.854-12.931 0-6.336 8.985-28.145 9.368-29.149l1.219.638c-3.2 8.4-9.252 23.706-9.252 28.511 0 6.265 4.718 11.362 10.517 11.362s10.517-5.1 10.517-11.362c0-4.876-6.052-20.225-9.252-28.638l1.219-.637c.383 1.006 9.368 22.852 9.368 29.275.002 7.132-5.315 12.931-11.85 12.931z"/><path d="m35.854 104.831c-2.021 0-3.9-1.39-5.291-3.915a19.023 19.023 0 0 1 -2.063-9.016c0-6.735 6.448-32.215 6.722-33.375l.644-2.721.642 2.721c.274 1.16 6.706 26.639 6.706 33.374a19.023 19.023 0 0 1 -2.066 9.012c-1.394 2.529-3.273 3.92-5.294 3.92zm.007-43.112c-1.673 7.281-6.03 24.888-6.03 30.181a17.247 17.247 0 0 0 1.853 8.163c1.136 2.063 2.617 3.2 4.17 3.2s3.033-1.136 4.17-3.2a17.247 17.247 0 0 0 1.853-8.163c0-5.294-4.346-22.9-6.016-30.181z"/><path d="m35.854 104.831c-.955 0-1.626-1.33-2.11-4.187a55.011 55.011 0 0 1 -.616-8.74c0-6.663 1.979-32.075 2.063-33.232h1.33c.084 1.157 2.059 26.569 2.059 33.232a55.011 55.011 0 0 1 -.616 8.74c-.484 2.856-1.154 4.187-2.11 4.187zm0-36.505c-.6 8.867-1.393 19.468-1.393 23.579a55.778 55.778 0 0 0 .508 7.922 10.074 10.074 0 0 0 .883 3.344 10.074 10.074 0 0 0 .883-3.344 55.778 55.778 0 0 0 .508-7.922c.002-4.111-.787-14.712-1.387-23.579z"/></g><path d="m39.363 35.956v27.035a1 1 0 0 1 -1 1h-4.963a1 1 0 0 1 -1-1v-27.035a3.479 3.479 0 0 1 3.479-3.479 3.479 3.479 0 0 1 3.484 3.479z" fill="#575b6d"/><path d="m32.404 48.234h6.959v4.663h-6.959z" fill="#414451"/><path d="m91.59 58.073h3.087v38.316h-3.087z" fill="#eeefee"/><path d="m96.976 37.381v21.619a1.849 1.849 0 0 1 -1.849 1.849h-3.986a1.849 1.849 0 0 1 -1.849-1.849v-21.619z" fill="#575b6d"/><path d="m105 90.279a11.6 11.6 0 0 1 -19.805 8.2 9.545 9.545 0 0 1 -.9-1.019 11.518 11.518 0 0 1 -2.5-7.184.383.383 0 0 1 .383-.383h22.438a.383.383 0 0 1 .384.386z" fill="#bbbbcd"/><path d="m102.982 89.9a11.592 11.592 0 0 1 -18.682 7.562 11.518 11.518 0 0 1 -2.5-7.184.383.383 0 0 1 .383-.383z" fill="#dbd8dd"/><path d="m63.027 58.073h3.087v26.756h-3.087z" fill="#dbd8dd"/><path d="m68.47 37.381v21.619a1.849 1.849 0 0 1 -1.849 1.849h-3.985a1.849 1.849 0 0 1 -1.85-1.849v-21.619z" fill="#575b6d"/><path d="m66.364 78.766h-3.476a6.99 6.99 0 0 0 -6.99 6.99v16.236a.925.925 0 0 0 .925.925h15.607a.925.925 0 0 0 .925-.925v-16.236a6.99 6.99 0 0 0 -6.991-6.99zm-5.113 18.834a1.331 1.331 0 1 1 -2.663 0v-10.4a1.331 1.331 0 1 1 2.663 0zm4.706 0a1.331 1.331 0 1 1 -2.663 0v-10.4a1.331 1.331 0 1 1 2.663 0zm4.706 0a1.327 1.327 0 1 1 -2.654 0v-10.4a1.327 1.327 0 1 1 2.654 0z" fill="#eeefee"/><rect fill="#f6b863" height="15.256" rx="1.849" width="81.153" x="23" y="23.169"/><circle cx="93.13" cy="30.797" fill="#eaa14e" r="2.654"/><circle cx="64.57" cy="30.797" fill="#eaa14e" r="2.654"/><circle cx="36.01" cy="30.797" fill="#eaa14e" r="2.654"/></g></svg>