<svg id="Capa_1" enable-background="new 0 0 512 512" height="512" viewBox="0 0 512 512" width="512" xmlns="http://www.w3.org/2000/svg"><g><g><g><g><g><g><g><g><g><g><g><circle cx="256" cy="256" fill="#ff8fb8" r="256"/></g></g></g></g></g></g></g></g></g></g><path d="m318.181 59.791-28.256-28.256-50.355 90.95h-101.698l-11.715 158.285 105.767 105.767-66.698 66.698 56.47 56.47c11.223 1.504 22.67 2.295 34.304 2.295 141.385 0 256-114.615 256-256 0-10.496-.647-20.841-1.874-31.006l-171.672-171.672z" fill="#ff5f96"/><g><g><path d="m205.941 280.77h-79.784v-174.998h79.784v26.571h-53.213v121.856h53.213z" fill="#ffe48d"/></g><g><path d="m257.155 358.562h-56.584v-55.533h56.584l10.142 27.767z" fill="#7c83e7"/><path d="m257.155 303.029h56.584v55.533h-56.584z" fill="#5f69e2"/></g><g><path d="m257.155 453.235h-91.929l10.63-111.066h81.299l14.572 55.533z" fill="#ffe48d"/><path d="m349.084 453.235h-91.929v-111.066h81.299z" fill="#ffce00"/><g><path d="m257.155 439.516h-56.584v-15.942h56.584l10.142 7.971z" fill="#7c83e7"/><path d="m257.155 423.574h56.584v15.943h-56.584z" fill="#5f69e2"/></g></g><g><path d="m257.155 68.734h-32.771v-37.199h32.771l5.874 18.6z" fill="#ffe48d"/><path d="m257.155 31.535h32.771v37.199h-32.771z" fill="#ffce00"/></g><g><path d="m257.155 84.582-84.979-10.001 3.68-21.259h81.299l14.572 10.63z" fill="#ffce00"/><path d="m342.134 74.581-84.979 10.001v-31.26h81.299z" fill="#ffbc00"/></g><g><path d="m257.155 324.634h-73.869l-11.11-250.053h84.979l35.251 125.027z" fill="#fff"/><path d="m331.023 324.634h-73.868v-250.053h84.979z" fill="#ebf3ff"/></g><g><path d="m268.025 382.839-10.87 27.465c-15.169 0-27.465-12.297-27.465-27.465 0-15.169 12.297-27.465 27.465-27.465z" fill="#7c83e7"/><path d="m284.62 382.839c0 15.169-12.297 27.465-27.465 27.465v-54.93c15.169 0 27.465 12.296 27.465 27.465z" fill="#5f69e2"/></g><path d="m257.155 143.133c-37.873-15.044-70.501 0-70.501 0l6.029 169.768h64.473l27.465-89.667z" fill="#adcfff"/><path d="m257.155 143.133c37.874 15.044 70.502 0 70.502 0l-6.029 169.768h-64.473z" fill="#8bbbff"/></g></g></svg>