<svg id="Capa_1" enable-background="new 0 0 512 512" height="512" viewBox="0 0 512 512" width="512" xmlns="http://www.w3.org/2000/svg"><g><g><g><g><g><g><g><g><g><circle cx="256" cy="256" fill="#7584f2" r="256"/></g></g></g></g></g></g></g></g><path d="m211.142 450.705 60.806 60.806c124.931-7.679 225.63-104.959 238.631-228.378l-177.257-177.257-3.435 1.407-48.472-48.472-100.357 251.464 68.942 68.943v62.732z" fill="#4855b7"/><path d="m271 420.705v-191.226h-30v191.226h-29.858v30h89.716v-30z" fill="#fff"/><path d="m271 420.705v-191.226h-14.879v221.226h44.737v-30z" fill="#e9edf5"/><g><path d="m333.322 105.876-38.131-11.311c-8.171-2.424-13.776-9.933-13.776-18.456v-17.298h-50.83v17.299c0 8.523-5.605 16.032-13.776 18.456l-38.131 11.311v42.359l20.157 65.529c4.579 14.885 3.134 30.971-4.024 44.802-3.339 6.453-6.192 13.135-8.539 19.992-3.493 10.204-5.214 20.932-5.214 31.718h150.282v-1.262c0-8.802-1.1-17.585-3.49-26.056-2.415-8.561-5.605-16.895-9.534-24.899l-.265-.539c-6.488-13.216-7.841-28.369-3.797-42.525l19.069-66.76v-42.36z" fill="#ffce00"/></g><g><path d="m333.322 148.235v-42.359l-38.131-11.311c-8.172-2.424-13.776-9.933-13.776-18.456v-17.298h-25.294v251.465h75.219v-1.262c0-8.802-1.1-17.584-3.49-26.056-2.416-8.561-5.605-16.895-9.534-24.899l-.264-.539c-6.488-13.216-7.841-28.369-3.798-42.525z" fill="#fdba12"/></g></g></svg>