<?xml version="1.0" encoding="iso-8859-1"?>
<!-- Generator: Adobe Illustrator 21.0.0, SVG Export Plug-In . SVG Version: 6.00 Build 0)  -->
<svg xmlns="http://www.w3.org/2000/svg" xmlns:xlink="http://www.w3.org/1999/xlink" version="1.1" id="Capa_1" x="0px" y="0px" viewBox="0 0 512 512" style="enable-background:new 0 0 512 512;" xml:space="preserve" width="512" height="512">
<g>
	<g>
		<circle style="fill:#65B2FF;" cx="256" cy="256" r="256"/>
		<path style="fill:#0F9BE8;" d="M512,256c0,141.38-114.62,256-256,256S0,397.38,0,256c0-46.22,12.25-89.57,33.68-127    C77.8,206.07,160.84,258,256,258s178.21-51.93,222.32-129C499.75,166.43,512,209.78,512,256z"/>
		<path style="fill:#0066E8;" d="M481.26,377.7v0.01C437.97,457.68,353.32,512,256,512S74.03,457.68,30.74,377.71v-0.01H481.26z"/>
	</g>
	<g>
		<g>
			<polygon style="fill:#D0F6FF;" points="263.941,324.866 248.941,324.866 248.941,268.109 173.142,268.109 173.142,165.896      188.142,165.896 188.142,253.109 263.941,253.109    "/>
			<polygon style="fill:#D0F6FF;" points="263.941,324.866 248.941,324.866 248.941,253.109 323.858,253.109 323.858,165.896      338.858,165.896 338.858,268.109 263.941,268.109    "/>
		</g>
		<g>
			<g>
				<path style="fill:#545D7A;" d="M390.6,350.7v123.09C351.49,498.02,305.38,512,256,512c-23.05,0-45.39-3.05-66.64-8.76      c-24.27-6.53-47.11-16.53-67.96-29.45V350.7c0-22.2,18-40.19,40.19-40.19h188.82C372.6,310.51,390.6,328.5,390.6,350.7z"/>
				<path style="fill:#474F6F;" d="M390.6,350.7v123.09C351.49,498.02,305.38,512,256,512c-23.05,0-45.39-3.05-66.64-8.76V310.51      h161.05C372.6,310.51,390.6,328.5,390.6,350.7z"/>
				<path style="fill:#323B5A;" d="M390.6,350.7v123.09C351.49,498.02,305.38,512,256,512V310.51h94.41      C372.6,310.51,390.6,328.5,390.6,350.7z"/>
				<rect x="121.405" y="377.81" style="fill:#474F6F;" width="269.19" height="67.296"/>
				<rect x="189.361" y="377.81" style="fill:#323B5A;" width="201.234" height="67.296"/>
				<rect x="256.004" y="377.81" style="fill:#20273A;" width="134.591" height="67.296"/>
			</g>
			<g>
				<g>
					<ellipse style="fill:#DD1265;" cx="292.866" cy="478.863" rx="10.948" ry="10.952"/>
					<path style="fill:#BA0D5C;" d="M303.816,478.863c0,6.045-4.9,10.952-10.952,10.952v-21.904       C298.916,467.912,303.816,472.819,303.816,478.863z"/>
				</g>
				<g>
					<ellipse style="fill:#FFD112;" cx="323.301" cy="478.863" rx="10.948" ry="10.952"/>
					<path style="fill:#FF9F00;" d="M334.251,478.863c0,6.045-4.9,10.952-10.952,10.952v-21.904       C329.351,467.912,334.251,472.819,334.251,478.863z"/>
				</g>
				<g>
					<ellipse style="fill:#95D600;" cx="354.569" cy="478.863" rx="10.948" ry="10.952"/>
					<path style="fill:#85AF12;" d="M365.519,478.863c0,6.045-4.9,10.952-10.952,10.952v-21.904       C360.619,467.912,365.519,472.819,365.519,478.863z"/>
				</g>
				<rect x="160.314" y="471.393" style="fill:#FFFFFF;" width="58.093" height="14.94"/>
				<rect x="189.361" y="471.393" style="fill:#D0F6FF;" width="29.047" height="14.94"/>
			</g>
			<g>
				<g>
					<ellipse style="fill:#DD1265;" cx="292.866" cy="411.458" rx="10.948" ry="10.952"/>
					<path style="fill:#BA0D5C;" d="M303.816,411.458c0,6.045-4.9,10.952-10.952,10.952v-21.904       C298.916,400.506,303.816,405.413,303.816,411.458z"/>
				</g>
				<g>
					<ellipse style="fill:#FFD112;" cx="323.301" cy="411.458" rx="10.948" ry="10.952"/>
					<path style="fill:#FF9F00;" d="M334.251,411.458c0,6.045-4.9,10.952-10.952,10.952v-21.904       C329.351,400.506,334.251,405.413,334.251,411.458z"/>
				</g>
				<g>
					<ellipse style="fill:#95D600;" cx="354.569" cy="411.458" rx="10.948" ry="10.952"/>
					<path style="fill:#85AF12;" d="M365.519,411.458c0,6.045-4.9,10.952-10.952,10.952v-21.904       C360.619,400.506,365.519,405.413,365.519,411.458z"/>
				</g>
				<rect x="160.314" y="403.988" style="fill:#FFFFFF;" width="58.093" height="14.94"/>
				<rect x="189.361" y="403.988" style="fill:#D0F6FF;" width="29.047" height="14.94"/>
			</g>
			<g>
				<g>
					<ellipse style="fill:#DD1265;" cx="292.866" cy="344.052" rx="10.948" ry="10.952"/>
					<path style="fill:#BA0D5C;" d="M303.816,344.052c0,6.045-4.9,10.952-10.952,10.952V333.1       C298.916,333.1,303.816,338.008,303.816,344.052z"/>
				</g>
				<g>
					<ellipse style="fill:#FFD112;" cx="323.301" cy="344.052" rx="10.948" ry="10.952"/>
					<path style="fill:#FF9F00;" d="M334.251,344.052c0,6.045-4.9,10.952-10.952,10.952V333.1       C329.351,333.1,334.251,338.008,334.251,344.052z"/>
				</g>
				<g>
					<ellipse style="fill:#95D600;" cx="354.569" cy="344.052" rx="10.948" ry="10.952"/>
					<path style="fill:#85AF12;" d="M365.519,344.052c0,6.045-4.9,10.952-10.952,10.952V333.1       C360.619,333.1,365.519,338.008,365.519,344.052z"/>
				</g>
				<rect x="160.314" y="336.582" style="fill:#FFFFFF;" width="58.093" height="14.94"/>
				<rect x="189.361" y="336.582" style="fill:#D0F6FF;" width="29.047" height="14.94"/>
			</g>
		</g>
		<g>
			<g>
				<polygon style="fill:#474F6F;" points="227.003,230.72 133.392,230.72 140.698,218.985 171.541,213.406 171.541,187.839       188.854,187.839 188.854,213.406 219.697,218.985     "/>
				<polygon style="fill:#323B5A;" points="227.003,230.72 180.197,230.72 180.197,187.839 188.854,187.839 188.854,213.406       219.697,218.985     "/>
				<rect x="171.541" y="187.839" style="fill:#323B5A;" width="17.314" height="25.568"/>
				<rect x="180.197" y="187.839" style="fill:#20273A;" width="8.657" height="25.568"/>
				<path style="fill:#323B5A;" d="M236.822,103.306H123.573c-5.151,0-9.33,4.178-9.33,9.33v75.581c0,5.154,4.178,9.333,9.33,9.333      h113.249c5.154,0,9.333-4.178,9.333-9.333v-75.581C246.155,107.484,241.977,103.306,236.822,103.306z"/>
				<path style="fill:#20273A;" d="M246.155,112.636v75.581c0,5.154-4.178,9.333-9.333,9.333h-56.625v-94.243h56.625      C241.977,103.306,246.155,107.484,246.155,112.636z"/>
				<path style="fill:#D0F6FF;" d="M233.681,121.962v56.932c0,1.513-1.399,2.737-3.127,2.737H129.842      c-1.725,0-3.127-1.224-3.127-2.737v-56.932c0-1.513,1.403-2.737,3.127-2.737h100.712      C232.282,119.225,233.681,120.449,233.681,121.962z"/>
				<path style="fill:#8FC9F7;" d="M233.681,121.962v56.932c0,1.513-1.399,2.737-3.127,2.737h-50.356v-62.405h50.356      C232.282,119.225,233.681,120.449,233.681,121.962z"/>
			</g>
			<path style="fill:#323B5A;" d="M219.213,161.601c0,1.84-0.749,3.511-1.956,4.719s-2.879,1.956-4.724,1.956h-64.668     c-3.69,0-6.68-2.989-6.68-6.675c0-1.845,0.749-3.516,1.956-4.724s2.879-1.956,4.724-1.956h64.668     C216.224,154.921,219.213,157.91,219.213,161.601z"/>
			<path style="fill:#20273A;" d="M219.213,161.601c0,1.84-0.749,3.511-1.956,4.719s-2.879,1.956-4.724,1.956h-32.334v-13.354     h32.334C216.224,154.921,219.213,157.91,219.213,161.601z"/>
			<path style="fill:#20273A;" d="M212.208,164.647H148.19c-1.683,0-3.048-1.365-3.048-3.048l0,0c0-1.683,1.365-3.048,3.048-3.048     h64.018c1.683,0,3.048,1.365,3.048,3.048l0,0C215.256,163.282,213.891,164.647,212.208,164.647z"/>
			<path style="fill:#95D600;" d="M169.594,158.551h-21.277c-1.669,0-3.124,1.286-3.174,2.954c-0.052,1.726,1.332,3.142,3.047,3.142     h21.404c1.683,0,3.048-1.365,3.048-3.048l0,0C172.642,159.916,171.278,158.551,169.594,158.551z"/>
		</g>
		<g>
			<path style="fill:#474F6F;" d="M367.081,120.3v91.339c0,3.888-3.15,7.046-7.046,7.046h-56.19c-3.896,0-7.046-3.158-7.046-7.046     V120.3c0-3.888,3.15-7.039,7.046-7.039h56.19C363.931,113.261,367.081,116.412,367.081,120.3z"/>
			<path style="fill:#323B5A;" d="M367.081,120.3v91.339c0,3.888-3.15,7.046-7.046,7.046h-28.021V113.261h28.021     C363.931,113.261,367.081,116.412,367.081,120.3z"/>
			<rect x="306.855" y="125.885" style="fill:#D0F6FF;" width="50.17" height="71.197"/>
			<rect x="332.014" y="125.885" style="fill:#8FC9F7;" width="25.011" height="71.197"/>
			<path style="fill:#323B5A;" d="M351.549,161.35c0,0.92-0.374,1.756-0.978,2.359s-1.439,0.978-2.362,0.978h-32.334     c-1.845,0-3.34-1.495-3.34-3.337c0-0.923,0.374-1.758,0.978-2.362c0.604-0.604,1.439-0.978,2.362-0.978h32.334     C350.054,158.01,351.549,159.505,351.549,161.35z"/>
			<path style="fill:#20273A;" d="M351.549,161.35c0,0.92-0.374,1.756-0.978,2.359s-1.439,0.978-2.362,0.978h-16.167v-6.677h16.167     C350.054,158.01,351.549,159.505,351.549,161.35z"/>
			<path style="fill:#20273A;" d="M348.046,162.873h-32.009c-0.842,0-1.524-0.682-1.524-1.524l0,0c0-0.842,0.682-1.524,1.524-1.524     h32.009c0.842,0,1.524,0.682,1.524,1.524l0,0C349.57,162.191,348.888,162.873,348.046,162.873z"/>
			<path style="fill:#95D600;" d="M326.739,159.825h-10.638c-0.834,0-1.562,0.643-1.587,1.477c-0.026,0.863,0.666,1.571,1.523,1.571     h10.702c0.842,0,1.524-0.682,1.524-1.524l0,0C328.263,160.507,327.581,159.825,326.739,159.825z"/>
			<circle style="fill:#20273A;" cx="332.462" cy="207.592" r="6.056"/>
		</g>
	</g>
</g>















</svg>
