<svg id="Layer_1" enable-background="new 0 0 512 512" height="512" viewBox="0 0 512 512" width="512" xmlns="http://www.w3.org/2000/svg"><path d="m25.47 350.109h461.06c9.357-25.951 14.468-53.931 14.468-83.107 0-135.309-109.69-244.998-244.998-244.998s-244.998 109.69-244.998 244.998c0 29.176 5.111 57.156 14.468 83.107z" fill="#4fabf7"/><path d="m243.22 107.461c-1.873 0-3.745-.715-5.174-2.143l-78.34-78.34c-2.858-2.858-2.858-7.491 0-10.349 2.857-2.856 7.49-2.856 10.348 0l78.34 78.34c2.858 2.858 2.858 7.49 0 10.349-1.429 1.429-3.301 2.143-5.174 2.143z" fill="#bec9f7"/><path d="m262.231 107.309c-1.873 0-3.745-.715-5.174-2.143-2.858-2.858-2.858-7.491 0-10.349l79.607-79.607c2.857-2.856 7.49-2.856 10.348 0 2.858 2.858 2.858 7.491 0 10.349l-79.607 79.607c-1.429 1.428-3.302 2.143-5.174 2.143z" fill="#bec9f7"/><path d="m291.364 127.495c-1.337-19.282-17.392-34.513-37.014-34.513s-35.677 15.23-37.014 34.513z" fill="#2d3c6b"/><path d="m264.264 94.332c-3.157-.874-6.479-1.35-9.915-1.35-19.623 0-35.677 15.23-37.014 34.513h54.256c-19.942 0-22.893-26.845-7.327-33.163z" fill="#222d5b"/><path d="m164.88 31.56c-2.497 0-4.994-.953-6.899-2.857l-10.46-10.46c-3.81-3.81-3.81-9.988 0-13.798 3.81-3.809 9.987-3.808 13.797 0l10.46 10.46c3.81 3.81 3.81 9.988-.001 13.798-1.903 1.905-4.4 2.857-6.897 2.857z" fill="#dae2fe"/><path d="m341.837 30.141c-2.497 0-4.994-.953-6.899-2.857-3.809-3.81-3.809-9.988 0-13.798l10.629-10.629c3.81-3.809 9.988-3.809 13.798 0 3.81 3.81 3.81 9.988 0 13.798l-10.629 10.629c-1.905 1.904-4.402 2.857-6.899 2.857z" fill="#dae2fe"/><path d="m155.499 490.5h201.001c20.179-9.088 38.905-20.83 55.735-34.779h-312.471c16.831 13.949 35.556 25.691 55.735 34.779z" fill="#bec9f7"/><path d="m155.5 490.5h126.267c.342-1.07.131-2.275-.634-3.173-10.511-12.347-4.09-22.846-.248-27.303 1.057-1.226 1.143-3.045.133-4.302h-181.254c16.831 13.948 35.556 25.69 55.736 34.778z" fill="#acbbef"/><path d="m473.658 379.535c4.904-9.466 9.217-19.288 12.872-29.426v-194.736c0-16.483-13.41-29.893-29.892-29.893h-401.276c-16.483 0-29.892 13.41-29.892 29.893v194.736c3.656 10.138 7.968 19.961 12.873 29.427l49.16 65.289c4.741 4.493 9.656 8.805 14.744 12.911h307.507c5.088-4.107 10.004-8.418 14.745-12.912z" fill="#dae2fe"/><path d="m25.47 155.373v194.736c3.656 10.138 7.968 19.961 12.872 29.427l49.16 65.289c4.741 4.493 9.656 8.805 14.744 12.911h179.475c-.004-.734-.239-1.463-.735-2.06-3.008-3.615-1.648-6.759-.068-8.703 1.023-1.259.998-3.034-.021-4.297-3.397-4.208-1.75-7.946.012-10.193 1.029-1.313.916-3.206-.27-4.38-6.655-6.592-3.503-12.162-.546-15.215 1.388-1.432 1.3-3.734-.258-4.978-27.325-21.809-13.661-49.673-9.433-56.855.652-1.108.606-2.485-.109-3.553l-82.421-123.1c-.382-.571-.939-1.005-1.578-1.256-30.822-12.127-22.226-40.256-19.068-48.191.493-1.24.215-2.653-.723-3.602-6.414-6.49-3.058-12.9-.458-16.171 1.006-1.266.982-3.048-.072-4.274-3.681-4.281-1.797-8.215.06-10.508.984-1.215.978-2.901.037-4.15-2.204-2.923-1.48-5.78-.318-7.816.54-.946.584-2.026.232-2.954h-110.622c-16.482 0-29.892 13.41-29.892 29.893z" fill="#bec9f7"/><path d="m80.165 437.584h351.669c13.168-13.571 24.778-28.657 34.543-44.978v-237.233c0-5.371-4.369-9.741-9.74-9.741h-401.275c-5.37 0-9.74 4.37-9.74 9.741v237.233c9.765 16.321 21.376 31.408 34.543 44.978z" fill="#934a2e"/><path d="m45.622 155.373v237.233c9.765 16.321 21.375 31.408 34.543 44.978h198.759c.019-2.057.982-3.821 1.985-5.1 1.029-1.313.916-3.206-.27-4.38-6.655-6.592-3.503-12.162-.546-15.215 1.388-1.432 1.3-3.734-.258-4.978-27.325-21.809-13.661-49.673-9.433-56.855.652-1.108.606-2.485-.109-3.553l-82.421-123.1c-.382-.571-.939-1.005-1.578-1.256-30.822-12.127-22.226-40.256-19.068-48.191.493-1.24.215-2.653-.723-3.602-6.414-6.49-3.058-12.9-.458-16.171 1.006-1.266.982-3.048-.072-4.274-1.599-1.86-2.146-3.654-2.103-5.277h-108.508c-5.37 0-9.74 4.37-9.74 9.741z" fill="#7f3822"/><path d="m370.494 403.584v-223.952c0-3.753-3.042-6.794-6.794-6.794h-284.078c-3.752 0-6.794 3.042-6.794 6.794v223.952c0 3.752 3.042 6.794 6.794 6.794h284.078c3.752.001 6.794-3.041 6.794-6.794z" fill="#2d3c6b"/><path d="m72.827 179.632v223.952c0 3.752 3.042 6.794 6.794 6.794h201.445c-.031-.927-.438-1.834-1.232-2.467-27.325-21.809-13.661-49.673-9.433-56.855.652-1.108.606-2.485-.109-3.553l-82.421-123.1c-.382-.571-.939-1.005-1.578-1.256-30.822-12.127-22.226-40.256-19.068-48.191.275-.69.302-1.431.118-2.118h-87.722c-3.752 0-6.794 3.042-6.794 6.794z" fill="#222d5b"/><path d="m360.418 386.575v-189.933c0-13.147-10.657-23.804-23.804-23.804h-229.906c-13.147 0-23.804 10.658-23.804 23.804v189.933c0 13.147 10.658 23.804 23.804 23.804h229.906c13.146 0 23.804-10.658 23.804-23.804z" fill="#3c5082"/><path d="m279.835 407.911c-27.325-21.809-13.661-49.673-9.433-56.855.652-1.108.606-2.485-.109-3.553l-82.421-123.1c-.382-.571-.939-1.005-1.578-1.256-30.822-12.127-22.226-40.256-19.068-48.191.275-.69.302-1.431.118-2.118h-60.635c-13.146 0-23.804 10.658-23.804 23.804v189.933c0 13.147 10.658 23.804 23.805 23.804h174.358c-.033-.927-.44-1.834-1.233-2.468z" fill="#2d3c6b"/><ellipse cx="418.436" cy="336.054" fill="#dae2fe" rx="25.617" ry="25.617" transform="matrix(.229 -.974 .974 .229 -4.34 666.632)"/><path d="m427.732 346.066c-.146-1.216-1.048-2.219-2.236-2.52-11.033-2.787-12.734-11.624-12.892-15.895-.05-1.344-.973-2.459-2.261-2.844-5.551-1.657-5.615-5.941-4.985-8.728.151-.67.047-1.336-.232-1.917-7.379 4.496-12.307 12.618-12.307 21.891 0 14.148 11.469 25.617 25.617 25.617 7.665 0 14.54-3.371 19.234-8.707-7.854.723-9.594-4.03-9.938-6.897z" fill="#bec9f7"/><path d="m430.64 336.054c0 6.74-5.464 12.204-12.204 12.204s-12.204-5.464-12.204-12.204 5.464-12.204 12.204-12.204 12.204 5.464 12.204 12.204z" fill="#bec9f7"/><g fill="#b76c4e"><path d="m436.954 190.373h-37.037c-4.041 0-7.317-3.275-7.317-7.317s3.276-7.317 7.317-7.317h37.037c4.041 0 7.317 3.275 7.317 7.317.001 4.042-3.276 7.317-7.317 7.317z"/><path d="m436.954 215.739h-37.037c-4.041 0-7.317-3.275-7.317-7.317s3.276-7.317 7.317-7.317h37.037c4.041 0 7.317 3.276 7.317 7.317s-3.276 7.317-7.317 7.317z"/><path d="m436.954 241.106h-37.037c-4.041 0-7.317-3.276-7.317-7.317 0-4.042 3.276-7.317 7.317-7.317h37.037c4.041 0 7.317 3.275 7.317 7.317.001 4.042-3.276 7.317-7.317 7.317z"/><path d="m436.954 266.473h-37.037c-4.041 0-7.317-3.276-7.317-7.317 0-4.042 3.276-7.317 7.317-7.317h37.037c4.041 0 7.317 3.276 7.317 7.317.001 4.042-3.276 7.317-7.317 7.317z"/><path d="m436.954 291.839h-37.037c-4.041 0-7.317-3.276-7.317-7.317 0-4.042 3.276-7.317 7.317-7.317h37.037c4.041 0 7.317 3.276 7.317 7.317.001 4.042-3.276 7.317-7.317 7.317z"/></g><path d="m424.84 396.866h-12.809c-4.041 0-7.317-3.276-7.317-7.317s3.276-7.317 7.317-7.317h12.809c4.041 0 7.317 3.276 7.317 7.317s-3.276 7.317-7.317 7.317z" fill="#ff4155"/><circle cx="221.661" cy="291.608" fill="#ff4155" r="68.981"/><path d="m262.426 339.572c.108-1.509-.986-2.81-2.487-3.006-24.219-3.155-23.659-23.075-22.727-29.928.181-1.331-.619-2.603-1.891-3.034-26.453-8.972-29.941-34.329-30.4-41.182-.071-1.053-.727-1.965-1.691-2.393-13.133-5.83-11.219-16.057-9.365-20.934.541-1.424-.175-3.024-1.581-3.61-2.436-1.017-3.762-2.457-4.417-4.007-20.997 11.826-35.188 34.315-35.188 60.131 0 38.097 30.884 68.981 68.981 68.981 15.993 0 30.703-5.458 42.402-14.592-1.552-2.016-1.772-4.539-1.636-6.426z" fill="#e80054"/><path d="m202.725 264.123v54.97c0 3.008 3.304 4.846 5.86 3.26l44.273-27.485c2.417-1.501 2.417-5.018 0-6.519l-44.273-27.485c-2.556-1.587-5.86.251-5.86 3.259z" fill="#dae2fe"/><path d="m235.321 303.604c-26.453-8.972-29.941-34.329-30.4-41.182-.036-.537-.228-1.036-.533-1.454-.981.672-1.664 1.791-1.664 3.155v54.97c0 3.008 3.304 4.846 5.86 3.26l28.245-17.534c-.335-.555-.859-.995-1.508-1.215z" fill="#bec9f7"/><path d="m73.347 430.267c4.536 5.071 9.274 9.957 14.213 14.634h336.88c4.939-4.678 9.677-9.563 14.213-14.634z" fill="#b76c4e"/><path d="m473.695 379.485v-224.112c0-9.406-7.652-17.058-17.057-17.058h-401.276c-9.406 0-17.058 7.653-17.058 17.058v224.113c4.408 8.514 9.293 16.74 14.634 24.634v-248.747c0-1.337 1.087-2.424 2.423-2.424h401.276c1.336 0 2.423 1.087 2.423 2.424v248.747c5.342-7.894 10.227-16.121 14.635-24.635z" fill="#b76c4e"/><path d="m281.604 430.267h-208.257c4.536 5.071 9.274 9.957 14.213 14.634h194.108c.012-.784-.244-1.572-.771-2.225-3.397-4.208-1.75-7.946.012-10.193.509-.648.737-1.44.695-2.216z" fill="#934a2e"/><path d="m38.305 155.373v224.113c4.408 8.514 9.293 16.74 14.634 24.634v-248.747c0-1.337 1.087-2.424 2.423-2.424h111.41c-.029-.729-.292-1.45-.8-2.04-3.681-4.281-1.797-8.215.06-10.508.497-.614.74-1.348.738-2.085h-111.408c-9.405-.001-17.057 7.652-17.057 17.057z" fill="#934a2e"/><path d="m221.66 367.907c-42.071 0-76.298-34.228-76.298-76.299 0-42.07 34.227-76.298 76.298-76.298s76.298 34.228 76.298 76.298c.001 42.071-34.226 76.299-76.298 76.299zm0-137.963c-34.002 0-61.664 27.662-61.664 61.664s27.663 61.665 61.664 61.665c34.002 0 61.664-27.663 61.664-61.665s-27.662-61.664-61.664-61.664z" fill="#ff7186"/><path d="m262.426 339.572c.038-.536-.081-1.042-.31-1.485-10.837 9.446-24.984 15.186-40.456 15.186-34.002 0-61.664-27.663-61.664-61.665 0-23.919 13.699-44.686 33.655-54.908-.305-.526-.768-.966-1.367-1.216-5.363-2.239-5.382-6.525-4.579-9.531.235-.878.049-1.755-.421-2.428-24.844 12.596-41.922 38.374-41.922 68.082 0 42.072 34.227 76.299 76.298 76.299 19.039 0 36.458-7.026 49.839-18.601-8.39-.603-9.323-6.252-9.073-9.733z" fill="#ff4155"/><path d="m153.337 489.5c31.228 14.433 66.001 22.5 102.663 22.5s71.435-8.067 102.663-22.5z" fill="#2d3c6b"/><path d="m282.045 509.574c-7.815-7.135-3.699-14.495-.86-17.989.494-.608.737-1.346.74-2.085h-128.588c31.228 14.433 66.001 22.5 102.663 22.5 9.047 0 17.977-.496 26.769-1.453-.182-.36-.419-.695-.724-.973z" fill="#222d5b"/><circle cx="325.618" cy="203.482" fill="#4b6496" r="13.809"/><circle cx="300.374" cy="213.206" fill="#4b6496" r="7.154"/><path d="m427.124 344.619c-.403-.517-.969-.906-1.628-1.072-11.033-2.787-12.734-11.624-12.892-15.895-.026-.713-.304-1.357-.746-1.867-3.381 2.17-5.626 5.954-5.626 10.269 0 6.74 5.464 12.204 12.204 12.204 3.401 0 6.475-1.394 8.688-3.639z" fill="#acbbef"/></svg>