<svg id="Capa_1" enable-background="new 0 0 512 512" height="512" viewBox="0 0 512 512" width="512" xmlns="http://www.w3.org/2000/svg"><g><path d="m512 256c0 63.11-22.84 120.89-60.7 165.52-46.96 55.35-100.552 38.953-178.822 38.953-11.39 0-22.61-.74-33.6-2.19-6.45-.85-29.298 49.597-35.588 48.277-116.1-24.29-203.29-127.25-203.29-250.56 0-141.38 114.62-256 256-256s256 114.62 256 256z" fill="#ffbb16"/><path d="m107.732 437.512c-28.928 0-52.463-23.534-52.463-52.462v-80.121h20v80.121c0 17.9 14.563 32.462 32.463 32.462 17.899 0 32.462-14.562 32.462-32.462v-173.676c0-21.613 17.583-39.196 39.196-39.196h66.61v-53.075c0-21.613 17.583-39.196 39.196-39.196s39.196 17.583 39.196 39.196v33.878c0 21.613-17.583 39.197-39.196 39.197h-19.196v60.323h-20v-60.323h-66.609c-10.585 0-19.196 8.611-19.196 19.196v173.676c-.001 28.928-23.535 52.462-52.463 52.462zm158.268-265.334h19.196c10.585 0 19.196-8.612 19.196-19.197v-33.878c0-10.585-8.611-19.196-19.196-19.196s-19.196 8.611-19.196 19.196z" fill="#8bc852"/><g><path d="m451.3 421.52c-46.96 55.35-117.03 90.48-195.3 90.48-18.07 0-35.7-1.87-52.71-5.44-4.58-79.14-4.02-158.28 1.67-237.41.98-13.62 11.5-24.58 25.07-26.14 63.86-7.35 127.72-7.35 191.59 0 13.56 1.56 24.08 12.52 25.06 26.14 3.66 50.79 5.2 101.58 4.62 152.37z" fill="#dd636e"/><path d="m238.88 242.04c-8.31 4.69-14.06 13.3-14.77 23.32-5.87 81.48-6.44 162.97-1.71 244.45-6.45-.85-12.82-1.93-19.11-3.25-4.59-79.14-4.03-158.28 1.67-237.41.98-13.61 11.5-24.57 25.06-26.14 2.95-.33 5.91-.66 8.86-.97z" fill="#d82e3d"/><path d="m396.227 382.748h-140.822c-12.486 0-22.572-10.255-22.289-22.738.501-22.099 1.405-44.173 2.71-66.181.654-11.027 9.305-19.921 20.31-20.878 23.228-2.02 46.581-3.039 69.688-3.039 23.098 0 46.449 1.018 69.677 3.038 11.005.957 19.656 9.851 20.31 20.878 1.306 22.009 2.208 44.084 2.705 66.185.281 12.483-9.805 22.735-22.289 22.735z" fill="#3d4fc3"/><path d="m396.227 389.772h-140.822c-7.965 0-15.418-3.137-20.986-8.833-5.549-5.676-8.505-13.165-8.325-21.088.501-22.102 1.416-44.455 2.72-66.437.855-14.404 12.338-26.209 26.713-27.46 23.381-2.034 47.032-3.065 70.296-3.065 23.257 0 46.904 1.031 70.286 3.065 14.375 1.25 25.858 13.056 26.713 27.46 1.305 22.003 2.219 44.357 2.715 66.443.178 7.922-2.78 15.41-8.328 21.085-5.566 5.694-13.018 8.83-20.982 8.83zm-70.403-112.835c-22.86 0-46.101 1.013-69.079 3.012-7.484.651-13.463 6.797-13.908 14.297-1.294 21.811-2.201 43.992-2.699 65.924-.093 4.111 1.444 8 4.327 10.95 2.903 2.97 6.789 4.605 10.941 4.605h140.822c4.151 0 8.037-1.635 10.939-4.604 2.884-2.949 4.421-6.837 4.329-10.948-.493-21.914-1.399-44.096-2.694-65.927-.445-7.499-6.424-13.646-13.908-14.297-22.979-1.999-46.217-3.012-69.07-3.012z" fill="#d82e3d"/><g><path d="m291.022 458.994c-14.298.629-28.597.629-42.895 0-7.459-.328-13.444-6.204-13.955-13.653-.383-5.591-.383-11.183 0-16.774.511-7.449 6.496-13.324 13.955-13.653 14.298-.629 28.597-.629 42.895 0 7.459.328 13.444 6.204 13.955 13.652.383 5.592.383 11.183 0 16.775-.511 7.449-6.496 13.325-13.955 13.653z" fill="#ffbb16"/><path d="m261.122 459.378c-4.322-.065-8.656-.194-12.989-.389-7.467-.324-13.442-6.203-13.961-13.648-.378-5.597-.378-11.184 0-16.771.519-7.456 6.494-13.334 13.961-13.659 4.312-.184 8.623-.324 12.935-.378-5.695 1.999-9.866 7.24-10.298 13.561-.41 5.911-.41 11.811 0 17.711.432 6.344 4.625 11.596 10.352 13.573z" fill="#ff931f"/></g><g><path d="m400.04 458.994c-14.298.629-28.597.629-42.895 0-7.459-.328-13.444-6.204-13.955-13.653-.383-5.591-.383-11.183 0-16.774.511-7.449 6.496-13.324 13.955-13.653 14.298-.629 28.597-.629 42.895 0 7.459.328 13.444 6.204 13.955 13.652.383 5.592.383 11.183 0 16.775-.511 7.449-6.496 13.325-13.955 13.653z" fill="#8bc852"/><path d="m370.14 459.378c-4.322-.065-8.656-.194-12.989-.389-7.467-.324-13.442-6.203-13.961-13.648-.378-5.597-.378-11.184 0-16.771.519-7.456 6.494-13.334 13.961-13.659 4.312-.184 8.623-.324 12.935-.378-5.695 1.999-9.866 7.24-10.298 13.561-.41 5.911-.41 11.811 0 17.711.432 6.344 4.625 11.596 10.352 13.573z" fill="#528e61"/></g></g><g><path d="m434.097 257.501h-30v-109.987c0-64.797-52.717-117.514-117.514-117.514h-106.374c-64.797 0-117.514 52.717-117.514 117.514v109.988h-30v-109.988c0-81.339 66.175-147.514 147.514-147.514h106.374c81.339 0 147.514 66.175 147.514 147.514z" fill="#5e3881"/><g><g><path d="m70.33 187.178v140.65c-3.07 0-6.09-.2-9.05-.57-34.56-4.45-61.28-33.99-61.28-69.76s26.72-65.3 61.28-69.75c2.96-.37 5.98-.57 9.05-.57z" fill="#734a9b"/><path d="m70.324 273.808v54.02c-38.84 0-70.32-31.49-70.32-70.33 0-9.57 1.91-18.69 5.38-27 10.58 25.43 35.67 43.31 64.94 43.31z" fill="#5e3881"/><path d="m70.33 187.178v140.65c-3.07 0-6.09-.2-9.05-.57-.7-2.39-1.07-4.92-1.07-7.53v-124.45c0-2.61.37-5.14 1.07-7.53 2.96-.37 5.98-.57 9.05-.57z" fill="#5e3881"/><path d="m96.505 346.903c-15.008 0-27.175-12.167-27.175-27.175v-124.453c0-15.008 12.167-27.175 27.175-27.175 15.008 0 27.175 12.167 27.175 27.175v124.454c0 15.008-12.167 27.174-27.175 27.174z" fill="#544f57"/><path d="m123.675 265.193v54.53c0 15.01-12.16 27.18-27.17 27.18s-27.18-12.17-27.18-27.18v-54.53c0 15.01 12.17 27.18 27.18 27.18s27.17-12.17 27.17-27.18z" fill="#454045"/></g><g><path d="m396.462 187.178v140.65c3.07 0 6.09-.2 9.05-.57 34.56-4.45 61.28-33.99 61.28-69.76s-26.72-65.3-61.28-69.75c-2.96-.37-5.98-.57-9.05-.57z" fill="#734a9b"/><path d="m396.468 273.808v54.02c38.84 0 70.32-31.49 70.32-70.33 0-9.57-1.91-18.69-5.38-27-10.58 25.43-35.67 43.31-64.94 43.31z" fill="#5e3881"/><path d="m396.462 187.178v140.65c3.07 0 6.09-.2 9.05-.57.7-2.39 1.07-4.92 1.07-7.53v-124.45c0-2.61-.37-5.14-1.07-7.53-2.96-.37-5.98-.57-9.05-.57z" fill="#5e3881"/><path d="m370.287 346.903c15.008 0 27.175-12.167 27.175-27.175v-124.453c0-15.008-12.167-27.175-27.175-27.175-15.008 0-27.175 12.167-27.175 27.175v124.454c0 15.008 12.167 27.174 27.175 27.174z" fill="#544f57"/><path d="m343.117 265.193v54.53c0 15.01 12.16 27.18 27.17 27.18s27.18-12.17 27.18-27.18v-54.53c0 15.01-12.17 27.18-27.18 27.18s-27.17-12.17-27.17-27.18z" fill="#454045"/></g></g></g><path d="m326.073 317.258c4.392 0 5.977-5.795 2.197-8.031l-33.036-19.536c-1.355-.801-3.039-.801-4.394 0l-33.036 19.536c-3.78 2.235-2.195 8.031 2.197 8.031h4.435v33.314h-.15c-3.59 0-6.5 2.91-6.5 6.5 0 3.59 2.91 6.5 6.5 6.5h56.06c3.59 0 6.5-2.91 6.5-6.5 0-3.146-2.236-5.769-5.205-6.37v-33.444zm-17.21 33.314h-11.538v-30.994h11.538zm-31.654-30.993h11.538v30.994h-11.538z" fill="#2b3890"/></g></svg>