<svg id="Capa_1" enable-background="new 0 0 512 512" height="512" viewBox="0 0 512 512" width="512" xmlns="http://www.w3.org/2000/svg"><g><circle cx="256" cy="256" fill="#bde55c" r="256"/><path d="m175.972 277.5 50.529 50.529-95.501 95.501 85.422 85.422c12.9 2.002 26.117 3.048 39.578 3.048 141.385 0 256-114.615 256-256 0-9.72-.561-19.308-1.616-28.747l-154.384-154.384z" fill="#a6d344"/><path d="m156 122.869v120.66l100 18.412 26.024-59.118-26.024-94.412z" fill="#adcfff"/><path d="m356 122.869-100-14.458v153.53l100-18.412z" fill="#8bbbff"/><path d="m256 423.529h-125v-120l125-14.059 27.824 74.059z" fill="#b473ec"/><path d="m381 423.529h-125v-134.059l125 14.059z" fill="#8d4bd1"/><path d="m256 303.529h-125l25-60h100l27.824 30z" fill="#8d4bd1"/><path d="m381 303.529h-125v-60h100z" fill="#6b2fba"/><path d="m256 122.869h-100v-50h100l11.824 25z" fill="#b473ec"/><path d="m256 72.869h100v50h-100z" fill="#8d4bd1"/><path d="m246 288.235v-64.706h10l5 32.353-5 32.353z" fill="#fff"/><path d="m256 223.529h10v64.706h-10z" fill="#e9edf5"/><path d="m256 228.376c-11.046 0-20-8.954-20-20s8.954-20 20-20l10 20z" fill="#fb448b"/><path d="m276 208.376c0 11.046-8.954 20-20 20v-40c11.046 0 20 8.954 20 20z" fill="#ce2c75"/><g fill="#e9edf5"><path d="m279.75 266.029h25v20h-25z" transform="matrix(0 1 -1 0 568.279 -16.221)"/><path d="m316 266.029h25v20h-25z" transform="matrix(0 1 -1 0 604.529 -52.471)"/></g></g></svg>