<svg id="Capa_1" enable-background="new 0 0 512 512" height="512" viewBox="0 0 512 512" width="512" xmlns="http://www.w3.org/2000/svg"><g><g><g><g><g><g><g><g><g><ellipse cx="256" cy="256" fill="#ffce00" rx="256" ry="256" transform="matrix(.707 -.707 .707 .707 -106.039 256)"/></g></g></g></g></g></g></g></g><path d="m512 256c0-5.429-.169-10.818-.502-16.163l-123.038-123.038-8.932 17.258-81.391 8.292-50.567-50.568-100.062 65.912 83.971 83.97-123.684 164.625 101.453 101.454c15.159 2.796 30.785 4.258 46.752 4.258 141.385 0 256-114.615 256-256z" fill="#ffa300"/><g><g><path d="m100.487 272.871-6.052 99.946c-1.473 24.328 17.86 44.867 42.232 44.867h13.134c15.008 0 28.893-7.95 36.489-20.894l47.922-81.652z" fill="#636978"/></g><g><path d="m411.513 272.871 6.052 99.946c1.473 24.328-17.86 44.867-42.232 44.867h-13.134c-15.008 0-28.893-7.95-36.489-20.894l-47.922-81.652z" fill="#414952"/></g><g><g><path d="m307.957 319.166h-130.574v-119.837h160.495z" fill="#555a66"/></g></g><g><g><path d="m337.878 199.329h-81.835v119.837h51.914z" fill="#333940"/></g></g><g><g><g><circle cx="174.029" cy="272.871" fill="#414952" r="73.542"/></g></g><g><g><circle cx="337.878" cy="272.871" fill="#23272b" r="73.542"/></g></g></g><g><g><g><circle cx="337.878" cy="236.122" fill="#7e8596" r="14.134"/></g></g><g><g><circle cx="337.878" cy="309.62" fill="#7e8596" r="14.134"/></g></g></g><g><g><g><circle cx="374.627" cy="272.871" fill="#7e8596" r="14.134"/></g></g><g><g><circle cx="301.129" cy="272.871" fill="#7e8596" r="14.134"/></g></g></g><g><g><path d="m205.152 257.309h-15.562v-15.562c0-8.594-6.967-15.562-15.562-15.562-8.594 0-15.562 6.967-15.562 15.562v15.562h-15.562c-8.594 0-15.562 6.967-15.562 15.562 0 8.594 6.967 15.562 15.562 15.562h15.562v15.562c0 8.594 6.967 15.562 15.562 15.562 8.594 0 15.562-6.967 15.562-15.562v-15.562h15.562c8.594 0 15.562-6.967 15.562-15.562-.001-8.595-6.968-15.562-15.562-15.562z" fill="#afb4c8"/></g></g></g><g><path d="m289.376 84.934c-23.77.002-31.209 12.063-33.376 17.629-2.167-5.566-9.606-17.627-33.376-17.629-48.853-.005-45.265 63.798-99.083 31.865 0 0 7.535 50.589 57.852 52.383 53.112 1.894 70.839-23.034 74.607-29.68 3.768 6.646 21.495 31.573 74.607 29.68 50.318-1.794 57.852-52.383 57.852-52.383-53.818 31.932-50.23-31.87-99.083-31.865z" fill="#555a66"/></g><g><path d="m256 139.503c3.768 6.646 21.495 31.573 74.607 29.68 50.318-1.794 57.852-52.383 57.852-52.383-53.818 31.932-50.231-31.87-99.083-31.865-23.77.002-31.209 12.063-33.376 17.629z" fill="#414952"/></g></g></svg>