<svg id="Capa_1" enable-background="new 0 0 512 512" height="512" viewBox="0 0 512 512" width="512" xmlns="http://www.w3.org/2000/svg"><g><g><g><g><g><g><g><g><circle cx="256" cy="256" fill="#fe8205" r="256"/></g></g></g></g></g></g></g><path d="m512 256c0-1.956-.022-3.907-.066-5.853l-110.466-110.466-319.594 214.446 157.331 157.331c5.552.359 11.152.542 16.795.542 57.978 0 111.454-19.273 154.371-51.763l5.6-5.6.686.686c58.149-46.928 95.343-118.782 95.343-199.323z" fill="#ef530f"/><g><path d="m440.131 323.709-17.44-142.791c-4.951-34.856-34.792-60.758-69.997-60.758h-193.388c-35.206 0-65.047 25.902-69.997 60.758l-17.44 142.791c-3.093 21.777 13.809 41.249 35.804 41.249 11.496 0 22.307-5.466 29.122-14.723l49.652-67.44h139.105l49.652 67.44c6.816 9.257 17.626 14.723 29.122 14.723 21.996 0 38.898-19.472 35.805-41.249z" fill="#fff"/></g><g><path d="m440.131 323.709-17.44-142.791c-4.951-34.856-34.792-60.758-69.997-60.758h-96.694v162.634h69.552l49.652 67.44c6.816 9.257 17.627 14.723 29.122 14.723 21.996.001 38.898-19.471 35.805-41.248z" fill="#e9edf5"/></g><g><g><circle cx="321.377" cy="281.166" fill="#414952" r="29.552"/></g><g><circle cx="190.623" cy="281.166" fill="#636978" r="29.552"/></g></g><g><g><g><ellipse cx="350.928" cy="162.903" fill="#7584f2" rx="16.941" ry="16.941" transform="matrix(.803 -.596 .596 .803 -27.99 241.065)"/></g><g><ellipse cx="350.928" cy="221.709" fill="#7584f2" rx="16.941" ry="16.941" transform="matrix(.803 -.596 .596 .803 -63.015 252.634)"/></g></g><g><g><ellipse cx="380.331" cy="192.306" fill="#7584f2" rx="16.941" ry="16.941" transform="matrix(.998 -.056 .056 .998 -10.163 21.578)"/></g><g><path d="m321.526 209.248c-9.356 0-16.941-7.585-16.941-16.941 0-9.357 7.585-16.941 16.941-16.941s16.941 7.585 16.941 16.941-7.585 16.941-16.941 16.941z" fill="#7584f2"/></g></g></g><g><path d="m206.163 179.845h-28.263v-28.263l-30.787.001v28.262h-28.262v30.787h28.262v28.263l30.787-.001v-28.262h28.263z" fill="#bec3d2"/></g></g></svg>