<svg id="Capa_1" enable-background="new 0 0 512 512" height="512" viewBox="0 0 512 512" width="512" xmlns="http://www.w3.org/2000/svg"><g><path d="m455.34 405.16h-360.725c-32.141 0-61.425-18.964-74.072-48.512-13.222-30.894-20.543-64.916-20.543-100.648 0-139.801 112.062-253.428 251.259-255.956 142.939-2.596 259.709 111.121 260.734 254.08.381 53.106-15.41 102.502-42.74 143.556-3.103 4.66-8.314 7.48-13.913 7.48z" fill="#86befb"/><path d="m72.21 195.052c2.929 2.929 2.929 7.678 0 10.606-2.931 2.929-7.679 2.929-10.607 0-22.418-22.419-22.418-58.898 0-81.317 1.465-1.464 3.385-2.197 5.304-2.197s3.839.732 5.304 2.197c2.929 2.929 2.929 7.678 0 10.606-16.571 16.572-16.571 43.535-.001 60.105zm25-49.749c2.929-2.929 2.929-7.678 0-10.606-1.465-1.464-3.385-2.197-5.304-2.197s-3.839.732-5.304 2.197c-16.709 16.709-16.709 43.897 0 60.606 2.93 2.929 7.678 2.929 10.607 0s2.929-7.678 0-10.606c-10.86-10.861-10.86-28.533.001-39.394z" fill="#3493f8"/><path d="m166 300h-31c-8.284 0-15-6.716-15-15v-270c0-8.284 6.716-15 15-15h31c8.284 0 15 6.716 15 15v270c0 8.285-6.716 15-15 15z" fill="#ff2ea6"/><path d="m351 300h-186c-8.284 0-15-6.716-15-15v-270c0-8.284 6.716-15 15-15h186c8.284 0 15 6.716 15 15v270c0 8.285-6.716 15-15 15z" fill="#ff50b5"/><path d="m336 130c0 44.183-35.817 80-80 80s-80-35.817-80-80 35.817-80 80-80 80 35.817 80 80z" fill="#ffaee0"/><path d="m196 35c0 8.284-6.716 15-15 15s-15-6.716-15-15 6.716-15 15-15 15 6.716 15 15zm135 15c8.284 0 15-6.716 15-15s-6.716-15-15-15-15 6.716-15 15c0 8.285 6.716 15 15 15zm0 190c-8.284 0-15 6.716-15 15s6.716 15 15 15 15-6.716 15-15-6.716-15-15-15z" fill="#bc157d"/><path d="m316 130c0 33.137-26.863 60-60 60s-60-26.863-60-60 26.863-60 60-60 60 26.863 60 60z" fill="#51489a"/><path d="m469.159 397.821c-43.556 65.335-116.35 109.51-199.688 113.831-.045.002-.091.005-.138.007-15.908.755-29.248-11.899-29.37-27.824-.443-58.045-.682-187.083-.682-187.083 0-8.656 7.017-15.673 15.673-15.673h198.531c8.656 0 15.673 7.017 15.673 15.673v101.069z" fill="#51489a"/><path d="m312.425 505.761c0-.01 0-.02 0-.03v-208.98c0-8.656 7.017-15.673 15.673-15.673h125.388c8.656 0 15.673 7.017 15.673 15.673v101.07c-35.884 53.827-91.614 93.292-156.734 107.94z" fill="#5f55af"/><path d="m92.996 244.506v151.993c0 21.987-27.961 31.403-41.232 13.873-12.818-16.932-23.579-35.507-31.911-55.354v-110.512c0-8.656 7.017-15.673 15.673-15.673h41.796c8.657 0 15.674 7.017 15.674 15.673z" fill="#ffd399"/><path d="m270.629 244.506v261.224c0 2.095-.411 4.094-1.157 5.921-4.462.232-8.953.349-13.472.349-83.743 0-158.094-40.21-204.8-102.375v-165.119c0-8.656 7.017-15.673 15.673-15.673h188.082c8.656 0 15.674 7.017 15.674 15.673z" fill="#ffe7c0"/><path d="m239.282 411.69c0 43.431-33.122 79.126-75.484 83.203-32.932-12.719-62.575-32.051-87.3-56.369-2.853-8.423-4.4-17.448-4.4-26.834 0-46.167 37.425-83.592 83.592-83.592s83.592 37.425 83.592 83.592zm-83.592-161.959c-17.312 0-31.347 14.034-31.347 31.347 0 17.312 14.035 31.347 31.347 31.347s31.347-14.034 31.347-31.347-14.035-31.347-31.347-31.347z" fill="#ffcd71"/><path d="m300 125c0 19.33-11.193 35-25 35s-25-15.67-25-35 11.193-35 25-35 25 15.67 25 35zm-81.616 286.69c0 34.625-28.069 62.694-62.694 62.694s-62.694-28.069-62.694-62.694 28.069-62.694 62.694-62.694 62.694 28.069 62.694 62.694zm-49.633-130.612c0 7.214-5.848 13.061-13.061 13.061-7.214 0-13.061-5.848-13.061-13.061 0-7.214 5.848-13.061 13.061-13.061s13.061 5.847 13.061 13.061z" fill="#5f55af"/><path d="m176.065 470.998c-6.388 2.194-13.243 3.386-20.376 3.386-34.625 0-62.694-28.069-62.694-62.694s28.069-62.694 62.694-62.694c7.133 0 13.987 1.191 20.376 3.386-24.623 8.457-42.318 31.816-42.318 59.308s17.696 50.851 42.318 59.308z" fill="#51489a"/><path d="m430 195c0 8.284-8.954 15-20 15s-20-6.716-20-15 8.954-15 20-15c1.727 0 3.402.164 5 .473v-52.973c0-4.142 3.358-7.5 7.5-7.5s7.5 3.358 7.5 7.5z" fill="#453d83"/><path d="m329.187 452.349c-1.465 1.464-3.385 2.197-5.304 2.197s-3.839-.732-5.304-2.197c-2.929-2.929-2.929-7.678 0-10.606 16.57-16.571 16.57-43.534 0-60.104-2.929-2.929-2.929-7.678 0-10.606 2.931-2.929 7.679-2.929 10.607 0 22.418 22.418 22.418 58.896.001 81.316zm-25-70.962c-2.93-2.929-7.678-2.929-10.607 0s-2.929 7.678 0 10.606c10.861 10.861 10.861 28.533 0 39.394-2.929 2.929-2.929 7.678 0 10.606 1.465 1.464 3.385 2.197 5.304 2.197s3.839-.732 5.304-2.197c16.708-16.709 16.708-43.897-.001-60.606z" fill="#958fca"/><path d="m430 315c0 8.284-8.954 15-20 15s-20-6.716-20-15 8.954-15 20-15c1.727 0 3.402.164 5 .473v-52.973c0-4.142 3.358-7.5 7.5-7.5s7.5 3.358 7.5 7.5z" fill="#fff5f5"/></g></svg>