<svg height="480pt" viewBox="-10 0 480 480" width="480pt" xmlns="http://www.w3.org/2000/svg"><path d="m460.261719 273.058594v39l-101.082031-27.398438s-.167969 152.21875-.167969 154.789063c0 22.390625-21.832031 40.550781-48.75 40.550781-26.921875 0-48.761719-18.160156-48.761719-40.550781s21.828125-40.550781 48.761719-40.550781c5.933593-.015626 11.835937.894531 17.488281 2.703124v-166.082031l70.800781 20.058594zm0 0" fill="#f8ec7d"/><path d="m405.5 202.75c-.113281 17.832031-2.449219 35.578125-6.949219 52.828125l-70.800781-20.058594v126.871094c-34.050781 27.488281-77.839844 43.109375-125 43.109375-111.980469 0-202.75-90.769531-202.75-202.75s90.769531-202.75 202.75-202.75 202.75 90.769531 202.75 202.75zm-124.769531 5.199219c0-44.503907-36.078125-80.578125-80.582031-80.578125-44.5 0-80.578126 36.074218-80.578126 80.578125 0 44.503906 36.078126 80.582031 80.578126 80.582031 44.503906-.003906 80.578124-36.078125 80.582031-80.582031zm0 0" fill="#e48e66"/><path d="m200.148438 127.371094c44.503906 0 80.582031 36.074218 80.582031 80.578125 0 44.503906-36.078125 80.582031-80.582031 80.582031-44.5 0-80.578126-36.078125-80.578126-80.582031 0-44.5 36.078126-80.578125 80.578126-80.578125zm23.28125 80.578125c0-12.855469-10.421876-23.277344-23.28125-23.277344-12.855469 0-23.277344 10.421875-23.277344 23.277344 0 12.859375 10.421875 23.28125 23.277344 23.28125 12.859374 0 23.285156-10.421875 23.28125-23.28125zm0 0" fill="#f8ec7d"/><path d="m223.429688 207.949219c0 12.859375-10.421876 23.28125-23.28125 23.28125-12.855469 0-23.277344-10.421875-23.277344-23.28125 0-12.855469 10.421875-23.277344 23.277344-23.277344 12.859374 0 23.28125 10.421875 23.28125 23.277344zm0 0" fill="#6fe3ff"/><g fill="#f8ec7d"><path d="m63.824219 231.53125c-2.980469-.003906-5.507813-2.195312-5.933594-5.144531-.996094-6.964844-1.503906-13.992188-1.511719-21.027344-.003906-3.316406 2.679688-6.003906 5.992188-6.007813h.007812c3.3125 0 5.996094 2.679688 6 5.988282.007813 6.46875.472656 12.929687 1.390625 19.335937.25 1.722657-.265625 3.46875-1.40625 4.785157-1.140625 1.316406-2.796875 2.070312-4.539062 2.070312zm0 0"/><path d="m202.75 351.71875c-31.523438.070312-62.214844-10.117188-87.441406-29.023438-24.65625-18.46875-42.917969-44.1875-52.238282-73.550781-.667968-2.050781-.183593-4.304687 1.269532-5.902343 1.457031-1.59375 3.65625-2.285157 5.761718-1.808594 2.109376.480468 3.792969 2.054687 4.417969 4.121094 8.558594 26.957031 25.332031 50.566406 47.96875 67.523437 23.15625 17.355469 51.332031 26.707031 80.269531 26.640625 3.3125 0 6 2.6875 6 6 0 3.316406-2.6875 6-6 6zm0 0"/><path d="m343.121094 211.351562c-3.308594 0-5.996094-2.679687-6-5.992187-.007813-5.15625-.304688-10.308594-.890625-15.429687-.378907-3.292969 1.980469-6.269532 5.273437-6.648438 3.289063-.382812 6.265625 1.980469 6.648438 5.273438.636718 5.570312.960937 11.175781.96875 16.785156.003906 3.3125-2.675782 6.003906-5.992188 6.011718zm0 0"/><path d="m338.015625 173.820312c-2.695313 0-5.058594-1.800781-5.777344-4.398437-16.273437-58.089844-69.164062-98.296875-129.492187-98.441406-3.3125 0-6-2.6875-6-6s2.6875-6 6-6c65.71875.15625 123.332031 43.957031 141.054687 107.238281.5 1.804688.128907 3.742188-1.007812 5.234375-1.132813 1.492187-2.902344 2.367187-4.777344 2.363281zm0 0"/></g></svg>