<svg id="Capa_1" enable-background="new 0 0 512 512" height="512" viewBox="0 0 512 512" width="512" xmlns="http://www.w3.org/2000/svg"><g><g><path d="m494.5 256c0 137.243-101.257 247.5-238.5 247.5-5.037 0-10.039.85-15.001.555-52.802-3.144-101.165-22.776-140.011-53.818-2.807-2.243-4.564-4.545-7.269-6.905-3.014-2.629-6.965-5.331-9.848-8.1-23.071-22.162-41.872-48.736-55.047-78.364-1.103-2.48-1.166-4.98-2.189-7.502-1.007-2.481-2.974-4.982-3.902-7.502-9.034-24.536-14.308-50.89-15.123-78.364-.073-2.491.89-4.991.89-7.5s-.963-5.009-.889-7.5c.814-27.474 6.088-53.828 15.123-78.364.927-2.519 2.894-5.019 3.9-7.498 1.024-2.523 1.087-5.025 2.19-7.506 13.175-29.628 31.976-56.202 55.047-78.363 2.665-2.561 6.388-5.062 9.165-7.503 2.924-2.569 4.909-5.071 7.952-7.503 38.846-31.042 87.209-50.674 140.011-53.818 4.962-.295 9.964.555 15.001.555 137.243 0 238.5 110.257 238.5 247.5z" fill="#739ad6"/><path d="m256 7.5c-5.038 0-10.036.168-15 .464 130.256 7.757 233.5 115.831 233.5 248.036s-103.244 240.279-233.5 248.036c4.964.296 9.962.464 15 .464 58.463 0 112.211-20.189 154.652-53.975 3.031-2.413 5.005-4.896 7.919-7.446s6.767-5.166 9.559-7.848c23.07-22.162 41.871-48.735 55.046-78.363 1.212-2.726 1.377-5.478 2.493-8.255.898-2.234 2.764-4.484 3.598-6.749 9.034-24.536 14.308-50.89 15.123-78.364.074-2.491-.889-4.991-.889-7.5s.963-5.009.889-7.5c-.815-27.474-6.088-53.828-15.123-78.364-.834-2.265-2.7-4.515-3.598-6.749-1.116-2.777-1.281-5.529-2.493-8.255-13.175-29.628-31.976-56.202-55.046-78.363-2.736-2.628-6.532-5.194-9.385-7.696-2.854-2.502-4.765-4.939-7.732-7.31-42.498-33.96-96.384-54.263-155.013-54.263z" fill="#5a84c8"/><path d="m157.325 316.408c-5.178 0-10.205-.404-15 .717-25.757 6.018-44.834 27.157-44.834 52.238s19.077 46.22 44.834 52.238c4.795 1.12 9.822.717 15 .717 32.993 0 49.835-23.204 49.835-52.955s-16.842-52.955-49.835-52.955z" fill="#ffe07d"/><path d="m157.325 315.408c-5.178 0-10.205.598-15 1.718 25.757 6.018 44.835 27.156 44.835 52.237s-19.078 46.219-44.835 52.237c4.795 1.12 9.822 1.718 15 1.718 32.993 0 59.835-24.204 59.835-53.955s-26.842-53.955-59.835-53.955z" fill="#ffd064"/><path d="m354.675 277.5c-5.178 0-10.205-.404-15.001.717-25.757 6.018-44.834 27.157-44.834 52.238s19.077 46.22 44.834 52.237c4.795 1.12 9.822.717 15.001.717 32.993 0 49.835-23.204 49.835-52.954s-16.842-52.955-49.835-52.955z" fill="#ffe07d"/><path d="m354.675 276.5c-5.178 0-10.205.598-15 1.718 25.757 6.018 44.835 27.156 44.835 52.237s-19.078 46.218-44.835 52.236c4.795 1.12 9.822 1.718 15 1.718 32.993 0 59.835-24.204 59.835-53.954s-26.842-53.955-59.835-53.955z" fill="#ffd064"/></g><path d="m437.019 74.981c-48.352-48.352-112.639-74.981-181.019-74.981s-132.668 26.629-181.02 74.981c-48.351 48.352-74.98 112.639-74.98 181.019 0 10.422.633 20.918 1.882 31.197.5 4.112 4.242 7.039 8.35 6.54 4.112-.499 7.04-4.238 6.541-8.35-.877-7.219-1.43-14.552-1.656-21.887h187.043v70.189c-10.972-11.199-26.999-18.281-44.835-18.281-21.86 0-41.01 10.631-51.451 26.455h-75.141c-3.115-8.195-5.813-16.62-8.051-25.262-1.039-4.01-5.132-6.421-9.141-5.38-4.01 1.038-6.418 5.131-5.38 9.141 29.22 112.833 131.135 191.638 247.839 191.638 68.38 0 132.667-26.629 181.019-74.98 48.352-48.352 74.981-112.64 74.981-181.02s-26.629-132.667-74.981-181.019zm44.294 266.881h-68.162c.882-3.68 1.358-7.494 1.358-11.408v-66.954h82.363c-.825 27.177-6.126 53.58-15.559 78.362zm-171.473-11.407c0-21.479 20.113-38.955 44.835-38.955s44.835 17.475 44.835 38.955-20.113 38.954-44.835 38.954-44.835-17.475-44.835-38.954zm104.67-81.955v-24.545c0-4.142-3.358-7.5-7.5-7.5s-7.5 3.358-7.5 7.5v24.545h-182.35v-78.032c0-.112.013-.221.028-.33h182.322v21.131c0 4.142 3.358 7.5 7.5 7.5s7.5-3.358 7.5-7.5v-21.131h66.803c9.433 24.782 14.734 51.186 15.56 78.362zm-15-93.362h-128.225l125.125-30.915c1.028-.254 1.783.178 2.141.458s.958.909.958 1.968v28.489zm-313.923-69.551c3.031-3.031 6.133-5.964 9.293-8.812h73.011c4.142 0 7.5-3.358 7.5-7.5s-3.358-7.5-7.5-7.5h-54.645c41.13-30.364 90.679-46.775 142.754-46.775s101.624 16.411 142.754 46.775h-198.176c-4.142 0-7.5 3.358-7.5 7.5s3.358 7.5 7.5 7.5h216.541c3.16 2.848 6.262 5.781 9.293 8.812 20.482 20.482 36.808 44.009 48.588 69.55h-60.49v-28.488c0-5.417-2.446-10.439-6.711-13.778-4.266-3.34-9.728-4.511-14.986-3.211l-177.35 43.818c-1.511.373-2.931.938-4.244 1.659h-174.22c11.78-25.541 28.106-49.067 48.588-69.55zm-70.46 162.913c.825-27.177 6.127-53.58 15.559-78.362h171.487c-.002.111-.014.219-.014.33v78.032zm384.383 15v31.281c-10.972-11.199-26.999-18.281-44.835-18.281-32.993 0-59.835 24.204-59.835 53.955 0 3.914.476 7.728 1.358 11.408h-79.038v-78.363zm-242.185 66.908c24.722 0 44.835 17.475 44.835 38.955s-20.113 38.955-44.835 38.955-44.834-17.475-44.834-38.955c-.001-21.48 20.112-38.955 44.834-38.955zm-44.087 119.817h285.516c-41.13 30.364-90.679 46.775-142.754 46.775-52.828 0-102.433-17.158-142.762-46.775zm313.175-23.812c-3.031 3.031-6.133 5.964-9.293 8.812h-322.327c-24.088-21.638-43.888-48.181-57.765-78.362h62.101c-1.061 4.015-1.639 8.197-1.639 12.5 0 29.751 26.842 53.955 59.834 53.955 32.993 0 59.835-24.204 59.835-53.955v-12.5h85.367c10.269 16.424 29.79 27.546 52.149 27.546 22.358 0 41.879-11.122 52.148-27.546h68.177c-11.779 25.541-28.105 49.067-48.587 69.55z"/></g></svg>