<svg id="Capa_1" enable-background="new 0 0 512 512" height="512" viewBox="0 0 512 512" width="512" xmlns="http://www.w3.org/2000/svg" xmlns:xlink="http://www.w3.org/1999/xlink"><linearGradient id="SVGID_1_" gradientUnits="userSpaceOnUse" x1="74.98" x2="437.018" y1="437.018" y2="74.98"><stop offset="0" stop-color="#ff2f2b"/><stop offset="1" stop-color="#ff9ceb"/></linearGradient><radialGradient id="SVGID_2_" cx="256" cy="256" gradientUnits="userSpaceOnUse" r="256"><stop offset="0" stop-color="#ff2f2b"/><stop offset=".0687" stop-color="#ff353a" stop-opacity=".931"/><stop offset=".3933" stop-color="#ff527d" stop-opacity=".603"/><stop offset=".6659" stop-color="#ff66ad" stop-opacity=".327"/><stop offset=".8727" stop-color="#ff73cb" stop-opacity=".118"/><stop offset=".9897" stop-color="#ff78d6" stop-opacity="0"/></radialGradient><linearGradient id="lg1"><stop offset="0" stop-color="#ffa9d7"/><stop offset=".2953" stop-color="#ffc6e5"/><stop offset=".7601" stop-color="#ffeff8"/><stop offset="1" stop-color="#fff"/></linearGradient><linearGradient id="SVGID_3_" gradientUnits="userSpaceOnUse" x1="-53.231" x2="405.452" xlink:href="#lg1" y1="428.722" y2="-29.961"/><linearGradient id="SVGID_4_" gradientTransform="matrix(1 0 0 -1 0 512)" gradientUnits="userSpaceOnUse" x1="5.042" x2="462.196" xlink:href="#lg1" y1="-131.311" y2="325.843"/><linearGradient id="lg2"><stop offset="0" stop-color="#ff70a9"/><stop offset=".0263" stop-color="#ff73ab"/><stop offset=".6862" stop-color="#ffb0d3"/><stop offset="1" stop-color="#ffc8e3"/></linearGradient><linearGradient id="SVGID_5_" gradientUnits="userSpaceOnUse" x1="-139.691" x2="401.062" xlink:href="#lg2" y1="681.731" y2="140.979"/><linearGradient id="SVGID_6_" gradientUnits="userSpaceOnUse" x1="-102.015" x2="549.42" xlink:href="#lg2" y1="601.584" y2="-49.851"/><linearGradient id="SVGID_7_" gradientUnits="userSpaceOnUse" x1="373.573" x2="524.687" xlink:href="#lg1" y1="297.788" y2="146.674"/><linearGradient id="SVGID_8_" gradientUnits="userSpaceOnUse" x1="-6.817" x2="610.233" xlink:href="#lg1" y1="518.851" y2="-98.199"/><linearGradient id="SVGID_9_" gradientUnits="userSpaceOnUse" x1="-258.434" x2="644.752" xlink:href="#lg2" y1="770.392" y2="-132.794"/><radialGradient id="SVGID_10_" cx="255.812" cy="256" gradientUnits="userSpaceOnUse" r="204.898"><stop offset="0" stop-color="#ff9ceb" stop-opacity="0"/><stop offset=".1485" stop-color="#ff9ae7" stop-opacity=".149"/><stop offset=".2933" stop-color="#ff93db" stop-opacity=".293"/><stop offset=".4368" stop-color="#ff88c8" stop-opacity=".437"/><stop offset=".5794" stop-color="#ff78ac" stop-opacity=".579"/><stop offset=".7214" stop-color="#ff6489" stop-opacity=".721"/><stop offset=".861" stop-color="#ff4c5e" stop-opacity=".861"/><stop offset="1" stop-color="#ff2f2b"/></radialGradient><linearGradient id="SVGID_11_" gradientUnits="userSpaceOnUse" x1="-453.256" x2="337.537" xlink:href="#lg1" y1="965.182" y2="174.389"/><linearGradient id="SVGID_12_" gradientUnits="userSpaceOnUse" x1="-18.914" x2="314.829" xlink:href="#lg1" y1="532.059" y2="198.316"/><linearGradient id="SVGID_13_" gradientTransform="matrix(-1 0 0 1 -4383.997 .004)" gradientUnits="userSpaceOnUse" x1="-4513.254" x2="-4821.389" xlink:href="#lg2" y1="340.469" y2="32.333"/><linearGradient id="SVGID_14_" gradientTransform="matrix(0 1 1 0 .004 4895.997)" gradientUnits="userSpaceOnUse" x1="-4468.797" x2="-4747.715" xlink:href="#lg1" y1="40.245" y2="319.164"/><linearGradient id="SVGID_15_" gradientTransform="matrix(.866 .5 -.5 .866 102.805 218.326)" gradientUnits="userSpaceOnUse" x1="181.118" x2="284.876" xlink:href="#lg2" y1="99.943" y2="-287.289"/><linearGradient id="SVGID_16_" gradientTransform="matrix(.866 .5 -.5 .866 102.805 218.326)" gradientUnits="userSpaceOnUse" x1="70.925" x2="304.59" xlink:href="#lg2" y1="366.147" y2="-505.905"/><radialGradient id="SVGID_17_" cx="256.792" cy="256.692" gradientUnits="userSpaceOnUse" r="103.38"><stop offset="0" stop-color="#ff2f2b" stop-opacity=".5"/><stop offset=".068" stop-color="#ff414b" stop-opacity=".466"/><stop offset=".1742" stop-color="#ff5975" stop-opacity=".413"/><stop offset=".2861" stop-color="#ff6e99" stop-opacity=".357"/><stop offset=".4028" stop-color="#ff7eb7" stop-opacity=".299"/><stop offset=".5257" stop-color="#ff8cce" stop-opacity=".237"/><stop offset=".6577" stop-color="#ff95de" stop-opacity=".171"/><stop offset=".8053" stop-color="#ff9ae8" stop-opacity=".097"/><stop offset="1" stop-color="#ff9ceb" stop-opacity="0"/></radialGradient><linearGradient id="SVGID_18_" gradientUnits="userSpaceOnUse" x1="158.505" x2="347.578" xlink:href="#lg1" y1="353.312" y2="164.239"/><linearGradient id="SVGID_19_" gradientUnits="userSpaceOnUse" x1="189.071" x2="291.921" xlink:href="#lg2" y1="322.742" y2="219.892"/><g><circle cx="256" cy="256" fill="url(#SVGID_1_)" r="256"/><circle cx="256" cy="256" fill="url(#SVGID_2_)" r="256"/><path d="m327.204 77.567c-1.999-6.517-7.928-11.08-14.586-11.189-37.774-.617-75.548-.522-113.322.284-6.661.143-12.599 4.727-14.618 11.241-6.811 22.013-13.642 43.987-20.448 65.901 61.09-1.172 122.179-1.262 183.269-.271-6.768-21.946-13.548-43.942-20.295-65.966z" fill="url(#SVGID_3_)"/><path d="m327.204 434.434c-1.999 6.516-7.928 11.08-14.586 11.189-37.774.617-75.548.522-113.322-.284-6.661-.142-12.599-4.727-14.618-11.241-6.811-22.013-13.642-43.987-20.448-65.901 61.09 1.172 122.179 1.262 183.269.271-6.768 21.946-13.548 43.941-20.295 65.966z" fill="url(#SVGID_4_)"/><path d="m302.717 45.323c-9.778-2.396-19.793-4.041-30.004-4.899.305 143.718.305 287.436 0 431.153 10.208-.859 20.226-2.502 30.004-4.9 3.423-.84 5.877-4 5.912-7.581 1.327-135.398 1.327-270.795 0-406.193-.035-3.581-2.489-6.74-5.912-7.58z" fill="url(#SVGID_5_)"/><path d="m272.713 40.424c-5.517-.462-11.087-.704-16.713-.688-16.037.045-31.661 2.078-46.735 5.848-3.427.858-5.89 4.028-5.937 7.603-1.77 135.208-1.77 270.417 0 405.626.048 3.576 2.51 6.747 5.937 7.603 15.074 3.772 30.697 5.802 46.735 5.848 5.625.017 11.197-.225 16.713-.688 3.393-.82 5.803-3.943 5.815-7.515.463-138.708.463-277.416 0-416.124-.014-3.571-2.422-6.694-5.815-7.513z" fill="url(#SVGID_6_)"/><path d="m410.546 278.643c.055-15.095.055-30.19 0-45.284 12.731.089 23.103 10.232 23.103 22.642.001 12.41-10.372 22.554-23.103 22.642z" fill="url(#SVGID_7_)"/><path d="m418.275 256c-.257 87.099-74.391 162.266-162.357 162.454-87.963-.637-162.314-75.802-162.568-162.454.254-86.651 74.605-161.817 162.568-162.454 87.964.189 162.099 75.355 162.357 162.454z" fill="url(#SVGID_8_)"/><path d="m387.525 256c-.137 71.369-59.839 131.634-131.643 131.706-71.803-.368-131.649-60.629-131.782-131.706.134-71.077 59.979-131.338 131.782-131.706 71.806.072 131.505 60.336 131.643 131.706z" fill="url(#SVGID_9_)"/><path d="m387.525 256c-.137 71.369-59.839 131.634-131.643 131.706-71.803-.368-131.649-60.629-131.782-131.706.134-71.077 59.979-131.338 131.782-131.706 71.806.072 131.505 60.336 131.643 131.706z" fill="url(#SVGID_10_)"/><path d="m372.15 256c-.094 63.318-52.678 116.295-116.283 116.332-63.603-.266-116.301-53.244-116.392-116.332.091-63.088 52.789-116.065 116.392-116.332 63.606.037 116.188 53.012 116.283 116.332z" fill="url(#SVGID_11_)"/><path d="m271.158 341.583c-63.858-.068-116.428-52.703-116.255-116.027.044-12.451 2.118-24.453 5.882-35.74-13.382 18.896-21.312 41.664-21.31 66.184.091 63.086 52.789 116.066 116.392 116.332 51.212.066 95.101-34.418 110.518-80.623-21.176 29.814-56.007 49.836-95.227 49.874z" fill="url(#SVGID_12_)"/><path d="m255.847 162.73c8.449-.01 15.309 6.883 15.316 15.374.016 25.965.024 51.931.024 77.896-10.25 0-20.5 0-30.75 0 0-25.955.024-51.91.073-77.865.019-8.485 6.888-15.394 15.337-15.405z" fill="url(#SVGID_13_)"/><path d="m162.537 256c-.001-4.21 3.445-7.623 7.69-7.631 28.528-.035 57.057-.053 85.585-.056v15.374c-28.528-.003-57.057-.021-85.585-.056-4.243-.007-7.691-3.421-7.69-7.631z" fill="url(#SVGID_14_)"/><path d="m330.94 281.537c-8.864-5.08-17.735-10.18-26.61-15.291-5.128 8.868-10.26 17.744-15.39 26.625 8.865 5.108 17.724 10.203 26.574 15.276 7.326 4.2 16.728 1.622 20.994-5.719s1.773-16.684-5.568-20.891z" fill="url(#SVGID_15_)"/><path d="m263.5 242.685c-5.125 8.877-10.251 17.755-15.374 26.628 13.611 7.862 27.22 15.725 40.814 23.558 7.341 4.231 16.741 1.686 20.997-5.665 4.257-7.351 1.745-16.724-5.607-20.96-13.607-7.838-27.22-15.703-40.83-23.561z" fill="url(#SVGID_16_)"/><path d="m330.94 281.537c-19.898-11.402-39.828-22.907-59.753-34.413-.002-23.006-.01-46.013-.024-69.02-.008-8.491-6.865-15.384-15.316-15.374-8.45.011-15.317 6.919-15.337 15.405-.049 25.955-.073 51.91-.073 77.865 2.562 4.436 5.126 8.874 7.689 13.312 22.488 12.989 44.969 25.983 67.388 38.833 7.326 4.201 16.728 1.623 20.994-5.718 4.267-7.34 1.773-16.683-5.568-20.89z" fill="url(#SVGID_17_)"/><path d="m278.875 256c-.002 12.733-10.327 23.066-23.06 23.061-12.732-.006-23.064-10.337-23.065-23.061 0-12.723 10.332-23.057 23.065-23.061 12.733-.003 23.06 10.328 23.06 23.061z" fill="url(#SVGID_18_)"/><path d="m263.5 256c0 4.246-3.442 7.687-7.687 7.687-4.247 0-7.688-3.444-7.688-7.687-.001-4.246 3.443-7.687 7.688-7.687 4.246-.001 7.685 3.443 7.687 7.687z" fill="url(#SVGID_19_)"/></g></svg>