<svg height="512" viewBox="0 0 512 512" width="512" xmlns="http://www.w3.org/2000/svg"><g id="BULINE"><circle cx="256" cy="256" fill="#f55b4b" r="256"/></g><g id="Icons"><path d="m197.69 409.08-185.32-74.7a10.32 10.32 0 0 1 -5.48-14l99.39-210.38a10.31 10.31 0 0 1 13.19-5.17l160.26 64.59a10.33 10.33 0 0 1 5.93 12.88l-74.33 220.5a10.32 10.32 0 0 1 -13.64 6.28z" fill="#f6c752"/><path d="m197.69 409.08-185.33-74.7a10.32 10.32 0 0 1 -5.47-14l99.39-210.38a10.31 10.31 0 0 1 13.19-5.17l11.69 4.71-94.75 200.58a10.32 10.32 0 0 0 5.48 14l172.53 69.54-3.08 9.16a10.33 10.33 0 0 1 -13.65 6.26z" fill="#f7bb38"/><circle cx="143.61" cy="148.09" fill="#e88032" r="12.51"/><circle cx="232.31" cy="183.84" fill="#9b1818" r="12.51"/><path d="m230.25 189a5.52 5.52 0 0 1 -3.06-7.18l13.43-33.32a42.3 42.3 0 1 0 -78.46-31.62l-13.43 33.32a5.52 5.52 0 0 1 -10.23-4.2l13.43-33.32a53.33 53.33 0 0 1 98.92 39.88l-13.43 33.34a5.5 5.5 0 0 1 -7.17 3.1z" fill="#fff"/><path d="m155.36 114.1-13.43 33.31a5.5 5.5 0 0 0 1.46 6.19 5.42 5.42 0 0 1 -1.84-.39 5.52 5.52 0 0 1 -3.05-7.21l13.43-33.32a53.38 53.38 0 0 1 69.4-29.52c.57.23 1.14.47 1.7.72a53.38 53.38 0 0 0 -67.67 30.22z" fill="#dbd9d9"/><path d="m232.09 189.35a5.42 5.42 0 0 1 -1.84-.39 5.52 5.52 0 0 1 -3.06-7.18l13.43-33.32a42.34 42.34 0 0 0 -21.72-54.31c.58.21 1.16.42 1.73.65a42.35 42.35 0 0 1 23.42 55.05l-13.43 33.31a5.49 5.49 0 0 0 1.47 6.19z" fill="#dbd9d9"/><path d="m314.31 409.08 185.32-74.7a10.32 10.32 0 0 0 5.48-14l-99.39-210.38a10.31 10.31 0 0 0 -13.19-5.17l-160.26 64.55a10.33 10.33 0 0 0 -5.93 12.88l74.33 220.54a10.32 10.32 0 0 0 13.64 6.28z" fill="#366fca"/><path d="m314.31 409.08 185.33-74.7a10.32 10.32 0 0 0 5.47-14l-99.39-210.38a10.31 10.31 0 0 0 -13.19-5.17l-11.69 4.71 94.75 200.62a10.32 10.32 0 0 1 -5.48 14l-172.53 69.48 3.08 9.16a10.33 10.33 0 0 0 13.65 6.28z" fill="#3586cb"/><circle cx="368.39" cy="148.09" fill="#3366af" r="12.51"/><circle cx="279.69" cy="183.84" fill="#9b1818" r="12.51"/><path d="m281.75 189a5.52 5.52 0 0 0 3.06-7.18l-13.43-33.32a42.3 42.3 0 1 1 78.46-31.62l13.43 33.32a5.52 5.52 0 1 0 10.23-4.2l-13.43-33.32a53.33 53.33 0 0 0 -98.92 39.88l13.43 33.31a5.5 5.5 0 0 0 7.17 3.13z" fill="#fff"/><path d="m356.64 114.1 13.43 33.31a5.5 5.5 0 0 1 -1.46 6.19 5.42 5.42 0 0 0 1.84-.39 5.52 5.52 0 0 0 3.05-7.21l-13.43-33.32a53.38 53.38 0 0 0 -69.4-29.52c-.57.23-1.14.47-1.7.72a53.38 53.38 0 0 1 67.67 30.22z" fill="#dbd9d9"/><path d="m279.91 189.35a5.42 5.42 0 0 0 1.84-.39 5.52 5.52 0 0 0 3.06-7.18l-13.43-33.32a42.34 42.34 0 0 1 21.72-54.31c-.58.21-1.16.42-1.73.65a42.35 42.35 0 0 0 -23.37 55.05l13.43 33.31a5.49 5.49 0 0 1 -1.52 6.19z" fill="#dbd9d9"/><path d="m355.64 413.81h-199.81a10.33 10.33 0 0 1 -10.31-10.93l13.48-232.33a10.33 10.33 0 0 1 10.31-9.73h172.82a10.33 10.33 0 0 1 10.31 9.73l13.56 232.33a10.33 10.33 0 0 1 -10.36 10.93z" fill="#db1b1b"/><path d="m355.64 413.81h-199.81a10.33 10.33 0 0 1 -10.31-10.93l13.48-232.33a10.33 10.33 0 0 1 10.31-9.73h12.6l-12.85 221.49a10.33 10.33 0 0 0 10.31 10.93h186l.56 9.64a10.33 10.33 0 0 1 -10.29 10.93z" fill="#c41c1c"/><circle cx="207.92" cy="191.96" fill="#9b1818" r="12.51"/><circle cx="303.55" cy="191.96" fill="#9b1818" r="12.51"/><path d="m303.55 197.48a5.52 5.52 0 0 1 -5.55-5.48v-36a42.3 42.3 0 1 0 -84.59 0v36a5.52 5.52 0 0 1 -11 0v-36a53.34 53.34 0 0 1 106.67 0v36a5.52 5.52 0 0 1 -5.53 5.48z" fill="#fff"/><path d="m206.11 156v36a5.48 5.48 0 0 0 3.67 5.19 5.5 5.5 0 0 1 -7.38-5.19v-36a53.39 53.39 0 0 1 53.34-53.33h1.85a53.39 53.39 0 0 0 -51.48 53.33z" fill="#dbd9d9"/><path d="m305.4 197.15a5.41 5.41 0 0 1 -1.85.33 5.52 5.52 0 0 1 -5.55-5.48v-36a42.34 42.34 0 0 0 -40.44-42.25c.61 0 1.23-.05 1.85-.05a42.34 42.34 0 0 1 42.32 42.3v36a5.49 5.49 0 0 0 3.67 5.15z" fill="#dbd9d9"/><g fill="#fff"><path d="m325.1 293.68q-6.8-8.88-20.08-8.89-27 0-27 34.1t26.91 34.11q27 0 26.95-34.1 0-16.33-6.78-25.22zm-20.36 47.57q-7.41 0-7.42-22.46 0-22.26 7.61-22.27t7.52 22.48q0 22.26-7.71 22.25zm-9.07-117.41-92.3 127.49h16.41l92.3-127.49zm-65.26 6.65q-6.79-8.85-20.07-8.85-14.43 0-21.16 9.72-5.7 8.22-5.87 23.39v1q0 34.1 26.94 34.1t27-34.1q-.05-16.41-6.84-25.26zm-20.34 47.61q-7.42 0-7.43-22.45 0-22.28 7.6-22.28t7.61 22.46q0 22.28-7.78 22.27z"/><path d="m79.47 307.38 5.53-6.13a13.73 13.73 0 0 1 5.5 7.25q1.45 4.51-1 10.35-3.34 7.95-9.1 10a15.49 15.49 0 0 1 -11.72-.4 16 16 0 0 1 -8.64-8 15 15 0 0 1 5.66-18.45l-1.85-.78 2.79-6.65 10.11 4.24-2.9 6.91a6.48 6.48 0 0 0 -3.74.56 4.77 4.77 0 0 0 -2.3 2.45q-1.87 4.5 5.86 7.75t9.71-1.4q1.71-4.08-3.91-7.7z"/><path d="m104.83 281.11-6.34 15.12-6.63-2.78.93-2.23-4.39-1.84-13 2.78-.79 1.89-6.61-2.78 6.07-14.47 6.63 2.78-.7 1.65 6.88-.57-4.15-5.94-.71 1.7-6.63-2.78 4.48-10.64 6.63 2.78-.72 1.73 7.1 11.17 4.4 1.85.92-2.19z"/><path d="m115.18 256.43-6.57 15.66-6.61-2.78 1-2.41-14.43-6-1 2.41-6.62-2.78 7.05-16.97a42.81 42.81 0 0 1 3.81-7.46 8.24 8.24 0 0 1 4.19-3.22 6.83 6.83 0 0 1 4.87.24 5.34 5.34 0 0 1 3.13 3 8.76 8.76 0 0 1 .47 4.45 10.07 10.07 0 0 1 4.59-3.36 6.85 6.85 0 0 1 4.87.17 7.33 7.33 0 0 1 4 3.78 9.44 9.44 0 0 1 .46 6 53.31 53.31 0 0 1 -3.21 9.27zm-22.68-6.52 5 2.12 1-2.37q1-2.4.63-3.45a2.62 2.62 0 0 0 -1.53-1.49 2.86 2.86 0 0 0 -2-.08c-.7.23-1.47 1.32-2.29 3.28zm10.09 4.23 5.45 2.29 1-2.41a7.59 7.59 0 0 0 .8-3.57 2.45 2.45 0 0 0 -1.7-1.88 2.63 2.63 0 0 0 -2.46 0 6.81 6.81 0 0 0 -2.11 3.18z"/><path d="m134.31 210.81-11.08 26.41-6.63-2.78.91-2.15-14.43-6-.92 2.19-6.63-2.78 11.09-26.45 8.86 3.72-3 7.26-2.23-.93-2.63 6.29 4.25 1.78 2.3-5.47 5.63 2.36-2.29 5.47 4.54 1.91 2.63-6.29-2.23-.94 3-7.26z"/><path d="m142.34 191.67-6.31 15-6.63-2.78.94-2.25-14.43-6.05-.94 2.25-6.63-2.78 6.31-15c.57-1.36 1.12-2.6 1.65-3.74s1-2.09 1.44-2.88.87-1.49 1.3-2.12a9.11 9.11 0 0 1 4.67-3.59 8 8 0 0 1 5.74.25 7.72 7.72 0 0 1 3.43 2.76 7.18 7.18 0 0 1 1.32 4l7.93-1.17.84-2 6.63 2.78-4.19 10-13.83 1.29-1.43 3.36 4.68 2 .88-2.09zm-22.49-7 5.27 2.21.5-1.19a25.51 25.51 0 0 0 1.2-3.24 2.81 2.81 0 0 0 -.17-1.85 2.45 2.45 0 0 0 -1.43-1.33 2.57 2.57 0 0 0 -2-.1 2.78 2.78 0 0 0 -1.45 1.24 28.13 28.13 0 0 0 -1.55 3.29z"/><path d="m463.4 324.76 4.56 9.86-6.09 2.81-.91-2-13.25 6.13.93 2-6.09 2.81-7.1-15.34 8.09-8.29-11.6.7-7.05-15.25 6.09-2.82.92 2 13.26-6.13-1-2.05 6.09-2.82 6.14 13.28-6.09 2.81-.93-2-14.21 6.57 23.85-1.7 1.75 3.8-16.59 16.91 14-6.49-.93-2z"/><path d="m436 298.94a14.62 14.62 0 0 1 -6.88 1.3 14.38 14.38 0 0 1 -7.2-2.47 13.4 13.4 0 0 1 -2.23-1.84 16.79 16.79 0 0 1 -1.87-2.35 21.5 21.5 0 0 1 -1.62-2.89q-3.15-6.84-.89-12.44a15.41 15.41 0 0 1 3-4.79 13.75 13.75 0 0 1 4.44-3.21 14 14 0 0 1 11.05-.4q5.72 2.06 8.78 8.66 2.94 6.38 1.09 12.06a13.55 13.55 0 0 1 -7.67 8.37zm-5.11-11q4.25-2 5.34-3.47a2.88 2.88 0 0 0 .36-3.17 2.93 2.93 0 0 0 -2.59-1.81q-1.84-.15-6.16 1.84t-5.33 3.45a2.9 2.9 0 0 0 -.35 3.19 3 3 0 0 0 2.59 1.81c1.17.06 3.25-.55 6.09-1.88z"/><path d="m429.22 250.83 4.83 10.44-6.05 2.81-1-2.23-13.33 6.15 1 2.23-6.06 2.77-5.61-12 9-15.4-7.2 3.33.95 2.06-6.09 2.82-4.66-10.28 6.09-2.81 1 2.21 19.68-9.1 3.87 8.38-10.43 17.79 9-4.14-1-2.25z"/><path d="m413.46 216.76 5.47 11.83-6.09 2.81-.92-2-13.25 6.13.92 2-6.09 2.82-5.63-12.18a40.36 40.36 0 0 1 -2.64-7 14.72 14.72 0 0 1 -.2-6 12 12 0 0 1 2.66-5.67 13.54 13.54 0 0 1 2.35-2.31 14.76 14.76 0 0 1 3-1.8 14.41 14.41 0 0 1 6.69-1.39 12 12 0 0 1 5.78 1.61 12.65 12.65 0 0 1 4 3.7 53.52 53.52 0 0 1 3.95 7.45zm-19.34 8.94 13.25-6.13-.43-.93q-1.6-3.48-3.93-3.66a10.41 10.41 0 0 0 -5.12 1.12 14.49 14.49 0 0 0 -3.13 2 5.18 5.18 0 0 0 -1.79 2.78c-.25 1 .08 2.53 1 4.48z"/><path d="m400.33 188.36 4.67 10.07-6.09 2.82-.89-1.94-15.47 1.36.95 2.05-6.09 2.81-8.46-18.29 6.09-2.81 1 2 11-11-.86-1.86 6.09-2.82 6.13 13.28-5.57 2.58-1-2.23-2.83 2.49 3 6.52 3.72-.37-1-2.08zm-20.09 6.38 8.15-.86-2.1-4.56z"/><path d="m383.34 151.6 6.42 13.9-6.09 2.81-.94-2-4 1.86-6.25 10.68.8 1.74-6.09 2.82-6.19-13.34 6.09-2.81.71 1.51 3.94-5.1-6.71-.88.72 1.56-6.09 2.82-4.52-9.79 6.09-2.81.73 1.59 12.18 2.14 4-1.87-.93-2z"/></g><circle cx="331.88" cy="232.8" fill="#f55b4b" r="12.93"/><circle cx="331.88" cy="201.36" fill="#f55b4b" r="10.67"/></g></svg>